<svg viewBox="0 0 480 360" xmlns="http://www.w3.org/2000/svg"><defs><linearGradient id="sky" x1="0" y1="0" x2="0" y2="1"><stop offset="0" stop-color="#ffe0a6"/><stop offset="0.55" stop-color="#ffb38f"/><stop offset="1" stop-color="#f6c1d6"/></linearGradient><linearGradient id="grass" x1="0" y1="0" x2="0" y2="1"><stop offset="0" stop-color="#cf9f6a"/><stop offset="1" stop-color="#b9854f"/></linearGradient></defs><rect x="0" y="0" width="480" height="360" rx="0" fill="url(#sky)" /><circle cx="240" cy="150" r="73.60000000000001" fill="#ffd9a0" opacity="0.45"/><line x1="302.1" y1="150" x2="318.2" y2="150" stroke="#ffd9a0" stroke-width="5" stroke-linecap="round"/><line x1="293.78" y1="181.05" x2="307.72" y2="189.1" stroke="#ffd9a0" stroke-width="5" stroke-linecap="round"/><line x1="271.05" y1="203.78" x2="279.1" y2="217.72" stroke="#ffd9a0" stroke-width="5" stroke-linecap="round"/><line x1="240" y1="212.1" x2="240" y2="228.2" stroke="#ffd9a0" stroke-width="5" stroke-linecap="round"/><line x1="208.95" y1="203.78" x2="200.9" y2="217.72" stroke="#ffd9a0" stroke-width="5" stroke-linecap="round"/><line x1="186.22" y1="181.05" x2="172.28" y2="189.1" stroke="#ffd9a0" stroke-width="5" stroke-linecap="round"/><line x1="177.9" y1="150" x2="161.8" y2="150" stroke="#ffd9a0" stroke-width="5" stroke-linecap="round"/><line x1="186.22" y1="118.95" x2="172.28" y2="110.9" stroke="#ffd9a0" stroke-width="5" stroke-linecap="round"/><line x1="208.95" y1="96.22" x2="200.9" y2="82.28" stroke="#ffd9a0" stroke-width="5" stroke-linecap="round"/><line x1="240" y1="87.9" x2="240" y2="71.8" stroke="#ffd9a0" stroke-width="5" stroke-linecap="round"/><line x1="271.05" y1="96.22" x2="279.1" y2="82.28" stroke="#ffd9a0" stroke-width="5" stroke-linecap="round"/><line x1="293.78" y1="118.95" x2="307.72" y2="110.9" stroke="#ffd9a0" stroke-width="5" stroke-linecap="round"/><circle cx="240" cy="150" r="46" fill="#ff9e5a" /><ellipse cx="360" cy="89.6" rx="36" ry="13.200000000000001" fill="#ffffff" /><circle cx="343.2" cy="82.4" r="14.399999999999999" fill="#ffffff" /><circle cx="360" cy="72.8" r="18.72" fill="#ffffff" /><circle cx="378" cy="81.2" r="14.879999999999999" fill="#ffffff" /><ellipse cx="110" cy="71.2" rx="27" ry="9.9" fill="#ffffff" /><circle cx="97.4" cy="65.8" r="10.799999999999999" fill="#ffffff" /><circle cx="110" cy="58.6" r="14.040000000000001" fill="#ffffff" /><circle cx="123.5" cy="64.9" r="11.16" fill="#ffffff" /><ellipse cx="110" cy="300" rx="230" ry="130" fill="#d7a96f" /><ellipse cx="400" cy="310" rx="240" ry="140" fill="#caa063" /><path d="M0 244 Q240 220 480 244 L480 360 L0 360 Z" fill="url(#grass)" /><ellipse cx="100" cy="299.6" rx="35.1" ry="10.53" fill="rgba(90,60,30,0.13)" /><ellipse cx="88.3" cy="297" rx="8.84" ry="7.280000000000001" fill="#7a5436" /><ellipse cx="111.7" cy="297" rx="8.84" ry="7.280000000000001" fill="#7a5436" /><ellipse cx="100" cy="272.3" rx="23.92" ry="26.52" fill="#b9824f" /><ellipse cx="100" cy="276.46000000000004" rx="15.079999999999998" ry="18.2" fill="#ecd2ac" /><line x1="79.72" y1="268.40000000000003" x2="74.52" y2="285.3" stroke="#b9824f" stroke-width="11.96" stroke-linecap="round"/><line x1="118.2" y1="267.1" x2="131.2" y2="233.3" stroke="#b9824f" stroke-width="11.96" stroke-linecap="round"/><circle cx="81.28" cy="211.2" r="10.4" fill="#b9824f" /><circle cx="81.28" cy="211.2" r="5.2" fill="#ecd2ac" /><circle cx="118.72" cy="211.2" r="10.4" fill="#b9824f" /><circle cx="118.72" cy="211.2" r="5.2" fill="#ecd2ac" /><circle cx="100" cy="232" r="26" fill="#b9824f" /><ellipse cx="91.16" cy="221.6" rx="8.32" ry="5.72" fill="rgba(255,255,255,0.4)" /><ellipse cx="100" cy="239.8" rx="15.6" ry="11.96" fill="#ecd2ac" /><circle cx="91.16" cy="230.96" r="3.12" fill="#4a3526" /><circle cx="108.84" cy="230.96" r="3.12" fill="#4a3526" /><circle cx="92.096" cy="229.9616" r="1.0608000000000002" fill="#ffffff" /><circle cx="109.77600000000001" cy="229.9616" r="1.0608000000000002" fill="#ffffff" /><ellipse cx="100" cy="235.12" rx="3.38" ry="2.6" fill="#7a5436" /><path d="M 94.8 240.84 Q 100 246.04 105.2 240.84" stroke="#4a3526" stroke-width="2" fill="none" stroke-linecap="round"/><circle cx="84.92" cy="237.2" r="3.9" fill="#f29bb0" opacity="0.7"/><circle cx="115.08" cy="237.2" r="3.9" fill="#f29bb0" opacity="0.7"/><ellipse cx="225" cy="285" rx="26.4" ry="7.919999999999999" fill="rgba(90,60,30,0.13)" /><line x1="206.3" y1="268.5" x2="193.1" y2="254.2" stroke="#e0b06a" stroke-width="6.6" stroke-linecap="round"/><ellipse cx="225" cy="263" rx="18.48" ry="21.56" fill="#e0b06a" /><ellipse cx="225" cy="266.08" rx="11" ry="13.64" fill="#f6e3bf" /><ellipse cx="216.2" cy="282.8" rx="6.16" ry="4.84" fill="#bd8742" /><ellipse cx="233.8" cy="282.8" rx="6.16" ry="4.84" fill="#bd8742" /><line x1="209.16" y1="260.8" x2="204.76" y2="272.9" stroke="#e0b06a" stroke-width="9.24" stroke-linecap="round"/><line x1="239.96" y1="258.6" x2="250.3" y2="231.1" stroke="#e0b06a" stroke-width="9.24" stroke-linecap="round"/><ellipse cx="206.08" cy="232.64" rx="7.04" ry="13.2" fill="#bd8742" transform="rotate(-14 206.08 230)"/><ellipse cx="243.92" cy="232.64" rx="7.04" ry="13.2" fill="#bd8742" transform="rotate(14 243.92 230)"/><circle cx="225" cy="230" r="22" fill="#e0b06a" /><ellipse cx="217.52" cy="221.2" rx="7.04" ry="4.84" fill="rgba(255,255,255,0.4)" /><ellipse cx="225" cy="237.48" rx="11.440000000000001" ry="9.24" fill="#f6e3bf" /><circle cx="217.96" cy="229.56" r="2.6399999999999997" fill="#4a3526" /><circle cx="232.04" cy="229.56" r="2.6399999999999997" fill="#4a3526" /><circle cx="218.752" cy="228.7152" r="0.8976" fill="#ffffff" /><circle cx="232.832" cy="228.7152" r="0.8976" fill="#ffffff" /><ellipse cx="225" cy="233.96" rx="3.08" ry="2.42" fill="#4a3526" /><path d="M 221.04 239.24 Q 225 243.2 228.96 239.24" stroke="#4a3526" stroke-width="2" fill="none" stroke-linecap="round"/><circle cx="212.68" cy="235.28" r="3.08" fill="#f29bb0" opacity="0.7"/><circle cx="237.32" cy="235.28" r="3.08" fill="#f29bb0" opacity="0.7"/><ellipse cx="338" cy="291.5" rx="27.599999999999998" ry="8.28" fill="rgba(90,60,30,0.13)" /><path d="M 356.4 274.25 q 21.85 -2.3 18.4 -21.85 q -2.76 -10.35 -11.5 -6.44" fill="none" stroke="#a9b2bd" stroke-width="7.82" stroke-linecap="round"/><ellipse cx="338" cy="268.5" rx="18.86" ry="22.08" fill="#a9b2bd" /><ellipse cx="338" cy="271.72" rx="11.04" ry="13.799999999999999" fill="#e8ecf1" /><ellipse cx="328.8" cy="289.2" rx="6.210000000000001" ry="5.06" fill="#7f8a98" /><ellipse cx="347.2" cy="289.2" rx="6.210000000000001" ry="5.06" fill="#7f8a98" /><line x1="321.44" y1="266.2" x2="316.84" y2="278.85" stroke="#a9b2bd" stroke-width="9.200000000000001" stroke-linecap="round"/><line x1="354.56" y1="266.2" x2="359.16" y2="278.85" stroke="#a9b2bd" stroke-width="9.200000000000001" stroke-linecap="round"/><path d="M 317.3 218.82 L 324.66 203.64 L 332.02 218.82 Z" fill="#a9b2bd" /><path d="M 320.98 216.98 L 324.66 208.24 L 328.34 216.98 Z" fill="#f3a6c0" /><path d="M 343.98 218.82 L 351.34 203.64 L 358.7 218.82 Z" fill="#a9b2bd" /><path d="M 347.66 216.98 L 351.34 208.24 L 355.02 216.98 Z" fill="#f3a6c0" /><circle cx="338" cy="234" r="23" fill="#a9b2bd" /><ellipse cx="330.18" cy="224.8" rx="7.36" ry="5.06" fill="rgba(255,255,255,0.4)" /><circle cx="330.18" cy="233.54" r="2.76" fill="#4a3526" /><circle cx="345.82" cy="233.54" r="2.76" fill="#4a3526" /><circle cx="331.008" cy="232.6568" r="0.9384" fill="#ffffff" /><circle cx="346.64799999999997" cy="232.6568" r="0.9384" fill="#ffffff" /><path d="M 335.93 237.68 L 340.07 237.68 L 338 240.44 Z" fill="#f3a6c0" /><path d="M 334.32 242.28 Q 338 245.96 341.68 242.28" stroke="#4a3526" stroke-width="2" fill="none" stroke-linecap="round"/><line x1="333.4" y1="238.6" x2="318.45" y2="236.76" stroke="#6f7780" stroke-width="1.035" stroke-linecap="round"/><line x1="333.4" y1="240.21" x2="318.45" y2="241.36" stroke="#6f7780" stroke-width="1.035" stroke-linecap="round"/><line x1="342.6" y1="238.6" x2="357.55" y2="236.76" stroke="#6f7780" stroke-width="1.035" stroke-linecap="round"/><line x1="342.6" y1="240.21" x2="357.55" y2="241.36" stroke="#6f7780" stroke-width="1.035" stroke-linecap="round"/><circle cx="325.12" cy="238.6" r="3.22" fill="#f29bb0" opacity="0.7"/><circle cx="350.88" cy="238.6" r="3.22" fill="#f29bb0" opacity="0.7"/><ellipse cx="432" cy="286" rx="23" ry="6.8999999999999995" fill="rgba(90,60,30,0.13)" /><ellipse cx="425.2" cy="213" rx="5.2" ry="14" fill="#fff6ec" transform="rotate(-12 425.2 218)"/><ellipse cx="425.2" cy="213" rx="2.6" ry="10" fill="#f6b9c6" transform="rotate(-12 425.2 218)"/><ellipse cx="438.8" cy="213" rx="5.2" ry="14" fill="#fff6ec" transform="rotate(12 438.8 218)"/><ellipse cx="438.8" cy="213" rx="2.6" ry="10" fill="#f6b9c6" transform="rotate(12 438.8 218)"/><ellipse cx="432" cy="266" rx="16.4" ry="19.2" fill="#fff6ec" /><ellipse cx="432" cy="268.4" rx="10" ry="12" fill="#efe1d0" /><ellipse cx="424" cy="284" rx="6" ry="4.4" fill="#efe1d0" /><ellipse cx="440" cy="284" rx="6" ry="4.4" fill="#efe1d0" /><line x1="417.6" y1="264" x2="413.6" y2="275" stroke="#fff6ec" stroke-width="8.4" stroke-linecap="round"/><line x1="445.6" y1="262" x2="455" y2="237" stroke="#fff6ec" stroke-width="8.4" stroke-linecap="round"/><circle cx="432" cy="236" r="20" fill="#fff6ec" /><ellipse cx="425.2" cy="228" rx="6.4" ry="4.4" fill="rgba(255,255,255,0.4)" /><circle cx="425.6" cy="235.6" r="2.2" fill="#4a3526" /><circle cx="438.4" cy="235.6" r="2.2" fill="#4a3526" /><circle cx="426.26000000000005" cy="234.896" r="0.7480000000000001" fill="#ffffff" /><circle cx="439.06" cy="234.896" r="0.7480000000000001" fill="#ffffff" /><path d="M 430 239.2 L 434 239.2 L 432 242 Z" fill="#f6b9c6" /><path d="M 428.8 243.2 Q 432 246.4 435.2 243.2" stroke="#4a3526" stroke-width="2" fill="none" stroke-linecap="round"/><circle cx="421.2" cy="240" r="2.6" fill="#f29bb0" opacity="0.7"/><circle cx="442.8" cy="240" r="2.6" fill="#f29bb0" opacity="0.7"/><ellipse cx="174" cy="117" rx="5.5" ry="7" fill="#ffc4a0" /><ellipse cx="186" cy="117" rx="5.5" ry="7" fill="#ffc4a0" /><ellipse cx="174.5" cy="125.5" rx="4.2" ry="5" fill="#ffc4a0" opacity="0.85"/><ellipse cx="185.5" cy="125.5" rx="4.2" ry="5" fill="#ffc4a0" opacity="0.85"/><rect x="179.2" y="114" width="1.6" height="13" rx="0.8" fill="#5b4632" /></svg>