<svg viewBox="0 0 480 360" xmlns="http://www.w3.org/2000/svg"><defs><linearGradient id="sky" x1="0" y1="0" x2="0" y2="1"><stop offset="0" stop-color="#bfe6ff"/><stop offset="1" stop-color="#eaf7ff"/></linearGradient><linearGradient id="grass" x1="0" y1="0" x2="0" y2="1"><stop offset="0" stop-color="#9ad36f"/><stop offset="1" stop-color="#84c457"/></linearGradient></defs><rect x="0" y="0" width="480" height="360" rx="0" fill="url(#sky)" /><circle cx="410" cy="56" r="48" fill="#ffe89a" opacity="0.45"/><line x1="450.5" y1="56" x2="461" y2="56" stroke="#ffe89a" stroke-width="5" stroke-linecap="round"/><line x1="445.07" y1="76.25" x2="454.17" y2="81.5" stroke="#ffe89a" stroke-width="5" stroke-linecap="round"/><line x1="430.25" y1="91.07" x2="435.5" y2="100.17" stroke="#ffe89a" stroke-width="5" stroke-linecap="round"/><line x1="410" y1="96.5" x2="410" y2="107" stroke="#ffe89a" stroke-width="5" stroke-linecap="round"/><line x1="389.75" y1="91.07" x2="384.5" y2="100.17" stroke="#ffe89a" stroke-width="5" stroke-linecap="round"/><line x1="374.93" y1="76.25" x2="365.83" y2="81.5" stroke="#ffe89a" stroke-width="5" stroke-linecap="round"/><line x1="369.5" y1="56" x2="359" y2="56" stroke="#ffe89a" stroke-width="5" stroke-linecap="round"/><line x1="374.93" y1="35.75" x2="365.83" y2="30.5" stroke="#ffe89a" stroke-width="5" stroke-linecap="round"/><line x1="389.75" y1="20.93" x2="384.5" y2="11.83" stroke="#ffe89a" stroke-width="5" stroke-linecap="round"/><line x1="410" y1="15.5" x2="410" y2="5" stroke="#ffe89a" stroke-width="5" stroke-linecap="round"/><line x1="430.25" y1="20.93" x2="435.5" y2="11.83" stroke="#ffe89a" stroke-width="5" stroke-linecap="round"/><line x1="445.07" y1="35.75" x2="454.17" y2="30.5" stroke="#ffe89a" stroke-width="5" stroke-linecap="round"/><circle cx="410" cy="56" r="30" fill="#ffd24d" /><ellipse cx="330" cy="80.4" rx="39" ry="14.3" fill="#ffffff" /><circle cx="311.8" cy="72.6" r="15.6" fill="#ffffff" /><circle cx="330" cy="62.2" r="20.28" fill="#ffffff" /><circle cx="349.5" cy="71.3" r="16.12" fill="#ffffff" /><ellipse cx="190" cy="53.2" rx="27" ry="9.9" fill="#ffffff" /><circle cx="177.4" cy="47.8" r="10.799999999999999" fill="#ffffff" /><circle cx="190" cy="40.6" r="14.040000000000001" fill="#ffffff" /><circle cx="203.5" cy="46.9" r="11.16" fill="#ffffff" /><ellipse cx="110" cy="292" rx="230" ry="130" fill="#cdeeb0" /><ellipse cx="400" cy="302" rx="240" ry="140" fill="#b2e28d" /><path d="M0 232 Q240 206 480 232 L480 360 L0 360 Z" fill="url(#grass)" /><ellipse cx="70" cy="241.6" rx="28.8" ry="8.64" fill="rgba(90,60,30,0.13)" /><rect x="64.88" y="192" width="10.24" height="51.2" rx="3.2" fill="#b07a4e" /><circle cx="70" cy="179.2" r="30.4" fill="#5fae46" /><circle cx="47.6" cy="192" r="22.4" fill="#7cc35e" /><circle cx="92.4" cy="192" r="23.04" fill="#7cc35e" /><circle cx="70" cy="176" r="25.6" fill="#7cc35e" /><ellipse cx="60.4" cy="169.6" rx="12.8" ry="8.96" fill="#a3d885" opacity="0.7"/><ellipse cx="150" cy="314.20000000000005" rx="36.45" ry="10.935" fill="rgba(90,60,30,0.13)" /><ellipse cx="137.85" cy="311.5" rx="9.180000000000001" ry="7.5600000000000005" fill="#7a5436" /><ellipse cx="162.15" cy="311.5" rx="9.180000000000001" ry="7.5600000000000005" fill="#7a5436" /><ellipse cx="150" cy="285.85" rx="24.84" ry="27.54" fill="#b9824f" /><ellipse cx="150" cy="290.17" rx="15.659999999999998" ry="18.9" fill="#ecd2ac" /><line x1="128.94" y1="281.8" x2="123.53999999999999" y2="299.35" stroke="#b9824f" stroke-width="12.42" stroke-linecap="round"/><line x1="171.06" y1="281.8" x2="176.46" y2="299.35" stroke="#b9824f" stroke-width="12.42" stroke-linecap="round"/><circle cx="130.56" cy="222.4" r="10.8" fill="#b9824f" /><circle cx="130.56" cy="222.4" r="5.4" fill="#ecd2ac" /><circle cx="169.44" cy="222.4" r="10.8" fill="#b9824f" /><circle cx="169.44" cy="222.4" r="5.4" fill="#ecd2ac" /><circle cx="150" cy="244" r="27" fill="#b9824f" /><ellipse cx="140.82" cy="233.2" rx="8.64" ry="5.94" fill="rgba(255,255,255,0.4)" /><ellipse cx="150" cy="252.1" rx="16.2" ry="12.42" fill="#ecd2ac" /><circle cx="140.82" cy="242.92" r="3.2399999999999998" fill="#4a3526" /><circle cx="159.18" cy="242.92" r="3.2399999999999998" fill="#4a3526" /><circle cx="141.792" cy="241.8832" r="1.1016" fill="#ffffff" /><circle cx="160.15200000000002" cy="241.8832" r="1.1016" fill="#ffffff" /><ellipse cx="150" cy="247.24" rx="3.5100000000000002" ry="2.7" fill="#7a5436" /><path d="M 144.6 253.18 Q 150 258.58 155.4 253.18" stroke="#4a3526" stroke-width="2" fill="none" stroke-linecap="round"/><circle cx="134.34" cy="249.4" r="4.05" fill="#f29bb0" opacity="0.7"/><circle cx="165.66" cy="249.4" r="4.05" fill="#f29bb0" opacity="0.7"/><ellipse cx="330" cy="307.5" rx="32.4" ry="9.719999999999999" fill="rgba(90,60,30,0.13)" /><path d="M 351.6 287.25 q 25.65 -2.7 21.6 -25.65 q -3.24 -12.15 -13.5 -7.56" fill="none" stroke="#a9b2bd" stroke-width="9.18" stroke-linecap="round"/><ellipse cx="330" cy="280.5" rx="22.139999999999997" ry="25.919999999999998" fill="#a9b2bd" /><ellipse cx="330" cy="284.28" rx="12.959999999999999" ry="16.2" fill="#e8ecf1" /><ellipse cx="319.2" cy="304.8" rx="7.290000000000001" ry="5.94" fill="#7f8a98" /><ellipse cx="340.8" cy="304.8" rx="7.290000000000001" ry="5.94" fill="#7f8a98" /><line x1="310.56" y1="277.8" x2="305.16" y2="292.65" stroke="#a9b2bd" stroke-width="10.8" stroke-linecap="round"/><line x1="349.44" y1="277.8" x2="354.84" y2="292.65" stroke="#a9b2bd" stroke-width="10.8" stroke-linecap="round"/><path d="M 305.7 222.18 L 314.34 204.36 L 322.98 222.18 Z" fill="#a9b2bd" /><path d="M 310.02 220.02 L 314.34 209.76 L 318.66 220.02 Z" fill="#f3a6c0" /><path d="M 337.02 222.18 L 345.66 204.36 L 354.3 222.18 Z" fill="#a9b2bd" /><path d="M 341.34 220.02 L 345.66 209.76 L 349.98 220.02 Z" fill="#f3a6c0" /><circle cx="330" cy="240" r="27" fill="#a9b2bd" /><ellipse cx="320.82" cy="229.2" rx="8.64" ry="5.94" fill="rgba(255,255,255,0.4)" /><circle cx="320.82" cy="239.46" r="3.2399999999999998" fill="#4a3526" /><circle cx="339.18" cy="239.46" r="3.2399999999999998" fill="#4a3526" /><circle cx="321.792" cy="238.4232" r="1.1016" fill="#ffffff" /><circle cx="340.152" cy="238.4232" r="1.1016" fill="#ffffff" /><path d="M 327.57 244.32 L 332.43 244.32 L 330 247.56 Z" fill="#f3a6c0" /><path d="M 325.68 249.72 Q 330 254.04 334.32 249.72" stroke="#4a3526" stroke-width="2" fill="none" stroke-linecap="round"/><line x1="324.6" y1="245.4" x2="307.05" y2="243.24" stroke="#6f7780" stroke-width="1.2149999999999999" stroke-linecap="round"/><line x1="324.6" y1="247.29" x2="307.05" y2="248.64" stroke="#6f7780" stroke-width="1.2149999999999999" stroke-linecap="round"/><line x1="335.4" y1="245.4" x2="352.95" y2="243.24" stroke="#6f7780" stroke-width="1.2149999999999999" stroke-linecap="round"/><line x1="335.4" y1="247.29" x2="352.95" y2="248.64" stroke="#6f7780" stroke-width="1.2149999999999999" stroke-linecap="round"/><circle cx="314.88" cy="245.4" r="3.7800000000000002" fill="#f29bb0" opacity="0.7"/><circle cx="345.12" cy="245.4" r="3.7800000000000002" fill="#f29bb0" opacity="0.7"/><g><circle cx="68" cy="342" r="4.96" fill="#b58bff" /><circle cx="62.47213595499958" cy="349.60845213036123" r="4.96" fill="#b58bff" /><circle cx="53.52786404500042" cy="346.70228201833976" r="4.96" fill="#b58bff" /><circle cx="53.52786404500042" cy="337.29771798166024" r="4.96" fill="#b58bff" /><circle cx="62.47213595499958" cy="334.39154786963877" r="4.96" fill="#b58bff" /><circle cx="60" cy="342" r="4.4" fill="#ffe14d" /></g><g><circle cx="307" cy="344" r="4.34" fill="#ff8fb3" /><circle cx="302.1631189606246" cy="350.65739561406605" r="4.34" fill="#ff8fb3" /><circle cx="294.3368810393754" cy="348.1144967660473" r="4.34" fill="#ff8fb3" /><circle cx="294.3368810393754" cy="339.8855032339527" r="4.34" fill="#ff8fb3" /><circle cx="302.1631189606246" cy="337.3426043859339" r="4.34" fill="#ff8fb3" /><circle cx="300" cy="344" r="3.8500000000000005" fill="#ffe14d" /></g><ellipse cx="373.4" cy="136.7" rx="6.050000000000001" ry="7.699999999999999" fill="#ffb0d4" /><ellipse cx="386.6" cy="136.7" rx="6.050000000000001" ry="7.699999999999999" fill="#ffb0d4" /><ellipse cx="373.95" cy="146.05" rx="4.62" ry="5.5" fill="#ffb0d4" opacity="0.85"/><ellipse cx="386.05" cy="146.05" rx="4.62" ry="5.5" fill="#ffb0d4" opacity="0.85"/><rect x="379.12" y="133.4" width="1.76" height="14.3" rx="0.88" fill="#5b4632" /><path d="M 110 330 q -3 -10 0 -16 q 3 6 0 16 M 115 330 q -2 -8 1 -13 q 2 5 -1 13" stroke="#7ab84e" stroke-width="2.4" fill="none" stroke-linecap="round"/><path d="M 430 322 q -3 -10 0 -16 q 3 6 0 16 M 435 322 q -2 -8 1 -13 q 2 5 -1 13" stroke="#7ab84e" stroke-width="2.4" fill="none" stroke-linecap="round"/><path d="M 250 348 q -3 -10 0 -16 q 3 6 0 16 M 255 348 q -2 -8 1 -13 q 2 5 -1 13" stroke="#7ab84e" stroke-width="2.4" fill="none" stroke-linecap="round"/></svg>