<svg viewBox="0 0 480 360" xmlns="http://www.w3.org/2000/svg"><style>
.enter{animation:bpEnter .7s cubic-bezier(.2,.9,.3,1.25) both}
.bob{animation:bpBob 3s ease-in-out infinite}
.bob2{animation:bpBob 3.7s ease-in-out infinite}
.sway{animation:bpSway 4s ease-in-out infinite;transform-box:fill-box;transform-origin:bottom center}
.flutter{animation:bpFlutter 3.2s ease-in-out infinite;transform-box:fill-box;transform-origin:center}
.twinkle{animation:bpTwinkle 2.4s ease-in-out infinite;transform-box:fill-box;transform-origin:center}
.spin{animation:bpSpin 24s linear infinite;transform-box:fill-box;transform-origin:center}
@keyframes bpEnter{0%{opacity:0;transform:translateY(28px)}100%{opacity:1;transform:translateY(0)}}
@keyframes bpBob{0%,100%{transform:translateY(0)}50%{transform:translateY(-6px)}}
@keyframes bpSway{0%,100%{transform:rotate(-3.5deg)}50%{transform:rotate(3.5deg)}}
@keyframes bpFlutter{0%{transform:translate(0,0) rotate(-7deg)}50%{transform:translate(12px,-14px) rotate(7deg)}100%{transform:translate(0,0) rotate(-7deg)}}
@keyframes bpTwinkle{0%,100%{opacity:.55;transform:scale(.8)}50%{opacity:1;transform:scale(1.18)}}
@keyframes bpSpin{to{transform:rotate(360deg)}}
@media(prefers-reduced-motion:reduce){.enter,.bob,.bob2,.sway,.flutter,.twinkle,.spin{animation:none}}
</style><defs><linearGradient id="sky" x1="0" y1="0" x2="0" y2="1"><stop offset="0" stop-color="#bfe6ff"/><stop offset="1" stop-color="#eaf7ff"/></linearGradient><linearGradient id="grass" x1="0" y1="0" x2="0" y2="1"><stop offset="0" stop-color="#9ad36f"/><stop offset="1" stop-color="#84c457"/></linearGradient></defs><rect x="0" y="0" width="480" height="360" rx="0" fill="url(#sky)" /><circle cx="64" cy="58" r="48" fill="#ffe89a" opacity="0.45"/><g class="spin"><line x1="104.5" y1="58" x2="115" y2="58" stroke="#ffe89a" stroke-width="5" stroke-linecap="round"/><line x1="99.07" y1="78.25" x2="108.17" y2="83.5" stroke="#ffe89a" stroke-width="5" stroke-linecap="round"/><line x1="84.25" y1="93.07" x2="89.5" y2="102.17" stroke="#ffe89a" stroke-width="5" stroke-linecap="round"/><line x1="64" y1="98.5" x2="64" y2="109" stroke="#ffe89a" stroke-width="5" stroke-linecap="round"/><line x1="43.75" y1="93.07" x2="38.5" y2="102.17" stroke="#ffe89a" stroke-width="5" stroke-linecap="round"/><line x1="28.93" y1="78.25" x2="19.83" y2="83.5" stroke="#ffe89a" stroke-width="5" stroke-linecap="round"/><line x1="23.5" y1="58" x2="13" y2="58" stroke="#ffe89a" stroke-width="5" stroke-linecap="round"/><line x1="28.93" y1="37.75" x2="19.83" y2="32.5" stroke="#ffe89a" stroke-width="5" stroke-linecap="round"/><line x1="43.75" y1="22.93" x2="38.5" y2="13.83" stroke="#ffe89a" stroke-width="5" stroke-linecap="round"/><line x1="64" y1="17.5" x2="64" y2="7" stroke="#ffe89a" stroke-width="5" stroke-linecap="round"/><line x1="84.25" y1="22.93" x2="89.5" y2="13.83" stroke="#ffe89a" stroke-width="5" stroke-linecap="round"/><line x1="99.07" y1="37.75" x2="108.17" y2="32.5" stroke="#ffe89a" stroke-width="5" stroke-linecap="round"/></g><circle cx="64" cy="58" r="30" fill="#ffd24d" /><ellipse cx="330" cy="80.4" rx="39" ry="14.3" fill="#ffffff" /><circle cx="311.8" cy="72.6" r="15.6" fill="#ffffff" /><circle cx="330" cy="62.2" r="20.28" fill="#ffffff" /><circle cx="349.5" cy="71.3" r="16.12" fill="#ffffff" /><ellipse cx="190" cy="53.2" rx="27" ry="9.9" fill="#ffffff" /><circle cx="177.4" cy="47.8" r="10.799999999999999" fill="#ffffff" /><circle cx="190" cy="40.6" r="14.040000000000001" fill="#ffffff" /><circle cx="203.5" cy="46.9" r="11.16" fill="#ffffff" /><ellipse cx="110" cy="292" rx="230" ry="130" fill="#cdeeb0" /><ellipse cx="400" cy="302" rx="240" ry="140" fill="#b2e28d" /><path d="M0 232 Q240 206 480 232 L480 360 L0 360 Z" fill="url(#grass)" /><ellipse cx="410" cy="237.7" rx="30.6" ry="9.18" fill="rgba(90,60,30,0.13)" /><rect x="404.56" y="185" width="10.88" height="54.400000000000006" rx="3.4000000000000004" fill="#b07a4e" /><circle cx="410" cy="171.4" r="32.3" fill="#5fae46" /><circle cx="386.2" cy="185" r="23.799999999999997" fill="#7cc35e" /><circle cx="433.8" cy="185" r="24.48" fill="#7cc35e" /><circle cx="410" cy="168" r="27.200000000000003" fill="#7cc35e" /><ellipse cx="399.8" cy="161.2" rx="13.600000000000001" ry="9.520000000000001" fill="#a3d885" opacity="0.7"/><g class="enter"><g class="bob2"><ellipse cx="140" cy="312.79999999999995" rx="37.800000000000004" ry="11.340000000000002" fill="rgba(90,60,30,0.13)" /><ellipse cx="127.4" cy="310" rx="9.520000000000001" ry="7.840000000000001" fill="#7a5436" /><ellipse cx="152.6" cy="310" rx="9.520000000000001" ry="7.840000000000001" fill="#7a5436" /><ellipse cx="140" cy="283.4" rx="25.76" ry="28.560000000000002" fill="#b9824f" /><ellipse cx="140" cy="287.88" rx="16.24" ry="19.599999999999998" fill="#ecd2ac" /><line x1="118.16" y1="279.2" x2="112.56" y2="297.4" stroke="#b9824f" stroke-width="12.88" stroke-linecap="round"/><line x1="159.6" y1="277.79999999999995" x2="173.6" y2="241.4" stroke="#b9824f" stroke-width="12.88" stroke-linecap="round"/><circle cx="119.84" cy="217.6" r="11.200000000000001" fill="#b9824f" /><circle cx="119.84" cy="217.6" r="5.6000000000000005" fill="#ecd2ac" /><circle cx="160.16" cy="217.6" r="11.200000000000001" fill="#b9824f" /><circle cx="160.16" cy="217.6" r="5.6000000000000005" fill="#ecd2ac" /><circle cx="140" cy="240" r="28" fill="#b9824f" /><ellipse cx="130.48" cy="228.8" rx="8.96" ry="6.16" fill="rgba(255,255,255,0.4)" /><ellipse cx="140" cy="248.4" rx="16.8" ry="12.88" fill="#ecd2ac" /><circle cx="130.48" cy="238.88" r="3.36" fill="#4a3526" /><circle cx="149.52" cy="238.88" r="3.36" fill="#4a3526" /><circle cx="131.488" cy="237.8048" r="1.1424" fill="#ffffff" /><circle cx="150.52800000000002" cy="237.8048" r="1.1424" fill="#ffffff" /><ellipse cx="140" cy="243.36" rx="3.64" ry="2.8000000000000003" fill="#7a5436" /><path d="M 134.4 249.52 Q 140 255.12 145.6 249.52" stroke="#4a3526" stroke-width="2" fill="none" stroke-linecap="round"/><circle cx="123.76" cy="245.6" r="4.2" fill="#f29bb0" opacity="0.7"/><circle cx="156.24" cy="245.6" r="4.2" fill="#f29bb0" opacity="0.7"/></g></g><g class="enter"><g class="bob"><ellipse cx="312" cy="308" rx="33.6" ry="10.08" fill="rgba(90,60,30,0.13)" /><line x1="288.2" y1="287" x2="271.4" y2="268.8" stroke="#e0b06a" stroke-width="8.4" stroke-linecap="round"/><ellipse cx="312" cy="280" rx="23.52" ry="27.439999999999998" fill="#e0b06a" /><ellipse cx="312" cy="283.92" rx="14" ry="17.36" fill="#f6e3bf" /><ellipse cx="300.8" cy="305.2" rx="7.840000000000001" ry="6.16" fill="#bd8742" /><ellipse cx="323.2" cy="305.2" rx="7.840000000000001" ry="6.16" fill="#bd8742" /><line x1="291.84" y1="277.2" x2="286.24" y2="292.6" stroke="#e0b06a" stroke-width="11.76" stroke-linecap="round"/><line x1="332.16" y1="277.2" x2="337.76" y2="292.6" stroke="#e0b06a" stroke-width="11.76" stroke-linecap="round"/><ellipse cx="287.92" cy="241.36" rx="8.96" ry="16.8" fill="#bd8742" transform="rotate(-14 287.92 238)"/><ellipse cx="336.08" cy="241.36" rx="8.96" ry="16.8" fill="#bd8742" transform="rotate(14 336.08 238)"/><circle cx="312" cy="238" r="28" fill="#e0b06a" /><ellipse cx="302.48" cy="226.8" rx="8.96" ry="6.16" fill="rgba(255,255,255,0.4)" /><ellipse cx="312" cy="247.52" rx="14.56" ry="11.76" fill="#f6e3bf" /><circle cx="303.04" cy="237.44" r="3.36" fill="#4a3526" /><circle cx="320.96" cy="237.44" r="3.36" fill="#4a3526" /><circle cx="304.048" cy="236.3648" r="1.1424" fill="#ffffff" /><circle cx="321.96799999999996" cy="236.3648" r="1.1424" fill="#ffffff" /><ellipse cx="312" cy="243.04" rx="3.9200000000000004" ry="3.08" fill="#4a3526" /><path d="M 306.96 249.76 Q 312 254.8 317.04 249.76" stroke="#4a3526" stroke-width="2" fill="none" stroke-linecap="round"/><circle cx="296.32" cy="244.72" r="3.9200000000000004" fill="#f29bb0" opacity="0.7"/><circle cx="327.68" cy="244.72" r="3.9200000000000004" fill="#f29bb0" opacity="0.7"/></g></g><g class="sway" style="animation-delay:0s"><circle cx="78" cy="340" r="4.96" fill="#ff8fb3" /><circle cx="72.47213595499957" cy="347.60845213036123" r="4.96" fill="#ff8fb3" /><circle cx="63.52786404500042" cy="344.70228201833976" r="4.96" fill="#ff8fb3" /><circle cx="63.52786404500042" cy="335.29771798166024" r="4.96" fill="#ff8fb3" /><circle cx="72.47213595499957" cy="332.39154786963877" r="4.96" fill="#ff8fb3" /><circle cx="70" cy="340" r="4.4" fill="#ffe14d" /></g><g class="sway" style="animation-delay:0.3s"><circle cx="367" cy="342" r="4.34" fill="#ffd24d" /><circle cx="362.1631189606246" cy="348.65739561406605" r="4.34" fill="#ffd24d" /><circle cx="354.3368810393754" cy="346.1144967660473" r="4.34" fill="#ffd24d" /><circle cx="354.3368810393754" cy="337.8855032339527" r="4.34" fill="#ffd24d" /><circle cx="362.1631189606246" cy="335.3426043859339" r="4.34" fill="#ffd24d" /><circle cx="360" cy="342" r="3.8500000000000005" fill="#ffe14d" /></g><g class="flutter"><ellipse cx="213.4" cy="126.7" rx="6.050000000000001" ry="7.699999999999999" fill="#c4a0ff" /><ellipse cx="226.6" cy="126.7" rx="6.050000000000001" ry="7.699999999999999" fill="#c4a0ff" /><ellipse cx="213.95" cy="136.05" rx="4.62" ry="5.5" fill="#c4a0ff" opacity="0.85"/><ellipse cx="226.05" cy="136.05" rx="4.62" ry="5.5" fill="#c4a0ff" opacity="0.85"/><rect x="219.12" y="123.4" width="1.76" height="14.3" rx="0.88" fill="#5b4632" /></g><path d="M 40 322 q -3 -10 0 -16 q 3 6 0 16 M 45 322 q -2 -8 1 -13 q 2 5 -1 13" stroke="#7ab84e" stroke-width="2.4" fill="none" stroke-linecap="round"/><path d="M 250 340 q -3 -10 0 -16 q 3 6 0 16 M 255 340 q -2 -8 1 -13 q 2 5 -1 13" stroke="#7ab84e" stroke-width="2.4" fill="none" stroke-linecap="round"/><path d="M 440 320 q -3 -10 0 -16 q 3 6 0 16 M 445 320 q -2 -8 1 -13 q 2 5 -1 13" stroke="#7ab84e" stroke-width="2.4" fill="none" stroke-linecap="round"/></svg>