<svg viewBox="0 0 480 360" xmlns="http://www.w3.org/2000/svg"><defs><linearGradient id="sky" x1="0" y1="0" x2="0" y2="1"><stop offset="0" stop-color="#bfe6ff"/><stop offset="1" stop-color="#eaf7ff"/></linearGradient><linearGradient id="grass" x1="0" y1="0" x2="0" y2="1"><stop offset="0" stop-color="#9ad36f"/><stop offset="1" stop-color="#84c457"/></linearGradient></defs><rect x="0" y="0" width="480" height="360" rx="0" fill="url(#sky)" /><circle cx="410" cy="58" r="48" fill="#ffe89a" opacity="0.45"/><line x1="450.5" y1="58" x2="461" y2="58" stroke="#ffe89a" stroke-width="5" stroke-linecap="round"/><line x1="445.07" y1="78.25" x2="454.17" y2="83.5" stroke="#ffe89a" stroke-width="5" stroke-linecap="round"/><line x1="430.25" y1="93.07" x2="435.5" y2="102.17" stroke="#ffe89a" stroke-width="5" stroke-linecap="round"/><line x1="410" y1="98.5" x2="410" y2="109" stroke="#ffe89a" stroke-width="5" stroke-linecap="round"/><line x1="389.75" y1="93.07" x2="384.5" y2="102.17" stroke="#ffe89a" stroke-width="5" stroke-linecap="round"/><line x1="374.93" y1="78.25" x2="365.83" y2="83.5" stroke="#ffe89a" stroke-width="5" stroke-linecap="round"/><line x1="369.5" y1="58" x2="359" y2="58" stroke="#ffe89a" stroke-width="5" stroke-linecap="round"/><line x1="374.93" y1="37.75" x2="365.83" y2="32.5" stroke="#ffe89a" stroke-width="5" stroke-linecap="round"/><line x1="389.75" y1="22.93" x2="384.5" y2="13.83" stroke="#ffe89a" stroke-width="5" stroke-linecap="round"/><line x1="410" y1="17.5" x2="410" y2="7" stroke="#ffe89a" stroke-width="5" stroke-linecap="round"/><line x1="430.25" y1="22.93" x2="435.5" y2="13.83" stroke="#ffe89a" stroke-width="5" stroke-linecap="round"/><line x1="445.07" y1="37.75" x2="454.17" y2="32.5" stroke="#ffe89a" stroke-width="5" stroke-linecap="round"/><circle cx="410" cy="58" r="30" fill="#ffd24d" /><ellipse cx="330" cy="80.4" rx="39" ry="14.3" fill="#ffffff" /><circle cx="311.8" cy="72.6" r="15.6" fill="#ffffff" /><circle cx="330" cy="62.2" r="20.28" fill="#ffffff" /><circle cx="349.5" cy="71.3" r="16.12" fill="#ffffff" /><ellipse cx="190" cy="53.2" rx="27" ry="9.9" fill="#ffffff" /><circle cx="177.4" cy="47.8" r="10.799999999999999" fill="#ffffff" /><circle cx="190" cy="40.6" r="14.040000000000001" fill="#ffffff" /><circle cx="203.5" cy="46.9" r="11.16" fill="#ffffff" /><ellipse cx="110" cy="292" rx="230" ry="130" fill="#cdeeb0" /><ellipse cx="400" cy="302" rx="240" ry="140" fill="#b2e28d" /><path d="M0 232 Q240 206 480 232 L480 360 L0 360 Z" fill="url(#grass)" /><ellipse cx="60" cy="213.5" rx="27" ry="8.1" fill="rgba(90,60,30,0.13)" /><rect x="55.2" y="167" width="9.6" height="48" rx="3" fill="#b07a4e" /><circle cx="60" cy="155" r="28.5" fill="#5fae46" /><circle cx="39" cy="167" r="21" fill="#7cc35e" /><circle cx="81" cy="167" r="21.599999999999998" fill="#7cc35e" /><circle cx="60" cy="152" r="24" fill="#7cc35e" /><ellipse cx="51" cy="146" rx="12" ry="8.4" fill="#a3d885" opacity="0.7"/><ellipse cx="150" cy="197.15" rx="20.7" ry="6.21" fill="rgba(90,60,30,0.13)" /><rect x="146.32" y="161.5" width="7.36" height="36.800000000000004" rx="2.3000000000000003" fill="#b07a4e" /><circle cx="150" cy="152.3" r="21.849999999999998" fill="#5fae46" /><circle cx="133.9" cy="161.5" r="16.099999999999998" fill="#7cc35e" /><circle cx="166.1" cy="161.5" r="16.56" fill="#7cc35e" /><circle cx="150" cy="150" r="18.400000000000002" fill="#7cc35e" /><ellipse cx="143.1" cy="145.4" rx="9.200000000000001" ry="6.44" fill="#a3d885" opacity="0.7"/><ellipse cx="420" cy="207.5" rx="27" ry="8.1" fill="rgba(90,60,30,0.13)" /><rect x="415.2" y="161" width="9.6" height="48" rx="3" fill="#b07a4e" /><circle cx="420" cy="149" r="28.5" fill="#5fae46" /><circle cx="399" cy="161" r="21" fill="#7cc35e" /><circle cx="441" cy="161" r="21.599999999999998" fill="#7cc35e" /><circle cx="420" cy="146" r="24" fill="#7cc35e" /><ellipse cx="411" cy="140" rx="12" ry="8.4" fill="#a3d885" opacity="0.7"/><ellipse cx="330" cy="195.1" rx="19.8" ry="5.94" fill="rgba(90,60,30,0.13)" /><rect x="326.48" y="161" width="7.04" height="35.2" rx="2.2" fill="#b07a4e" /><circle cx="330" cy="152.2" r="20.9" fill="#5fae46" /><circle cx="314.6" cy="161" r="15.399999999999999" fill="#7cc35e" /><circle cx="345.4" cy="161" r="15.84" fill="#7cc35e" /><circle cx="330" cy="150" r="17.6" fill="#7cc35e" /><ellipse cx="323.4" cy="145.6" rx="8.8" ry="6.16" fill="#a3d885" opacity="0.7"/><path d="M210 360 Q245 300 235 250 Q228 220 250 200 L280 200 Q262 224 270 252 Q282 305 300 360 Z" fill="#f2dca3" /><path d="M210 360 Q245 300 235 250 Q228 220 250 200" fill="none" stroke="#e6cb88" stroke-width="3"/><ellipse cx="250" cy="310" rx="40.5" ry="12.15" fill="rgba(90,60,30,0.13)" /><ellipse cx="236.5" cy="307" rx="10.200000000000001" ry="8.4" fill="#7a5436" /><ellipse cx="263.5" cy="307" rx="10.200000000000001" ry="8.4" fill="#7a5436" /><ellipse cx="250" cy="278.5" rx="27.6" ry="30.6" fill="#b9824f" /><ellipse cx="250" cy="283.3" rx="17.4" ry="21" fill="#ecd2ac" /><line x1="226.6" y1="274" x2="220.6" y2="293.5" stroke="#b9824f" stroke-width="13.8" stroke-linecap="round"/><line x1="273.4" y1="274" x2="279.4" y2="293.5" stroke="#b9824f" stroke-width="13.8" stroke-linecap="round"/><circle cx="228.4" cy="208" r="12" fill="#b9824f" /><circle cx="228.4" cy="208" r="6" fill="#ecd2ac" /><circle cx="271.6" cy="208" r="12" fill="#b9824f" /><circle cx="271.6" cy="208" r="6" fill="#ecd2ac" /><circle cx="250" cy="232" r="30" fill="#b9824f" /><ellipse cx="239.8" cy="220" rx="9.6" ry="6.6" fill="rgba(255,255,255,0.4)" /><ellipse cx="250" cy="241" rx="18" ry="13.8" fill="#ecd2ac" /><circle cx="239.8" cy="230.8" r="3.5999999999999996" fill="#4a3526" /><circle cx="260.2" cy="230.8" r="3.5999999999999996" fill="#4a3526" /><circle cx="240.88000000000002" cy="229.64800000000002" r="1.224" fill="#ffffff" /><circle cx="261.28" cy="229.64800000000002" r="1.224" fill="#ffffff" /><ellipse cx="250" cy="235.6" rx="3.9000000000000004" ry="3" fill="#7a5436" /><path d="M 244 242.2 Q 250 248.2 256 242.2" stroke="#4a3526" stroke-width="2" fill="none" stroke-linecap="round"/><circle cx="232.6" cy="238" r="4.5" fill="#f29bb0" opacity="0.7"/><circle cx="267.4" cy="238" r="4.5" fill="#f29bb0" opacity="0.7"/><g><circle cx="78" cy="336" r="4.96" fill="#ff8fb3" /><circle cx="72.47213595499957" cy="343.60845213036123" r="4.96" fill="#ff8fb3" /><circle cx="63.52786404500042" cy="340.70228201833976" r="4.96" fill="#ff8fb3" /><circle cx="63.52786404500042" cy="331.29771798166024" r="4.96" fill="#ff8fb3" /><circle cx="72.47213595499957" cy="328.39154786963877" r="4.96" fill="#ff8fb3" /><circle cx="70" cy="336" r="4.4" fill="#ffe14d" /></g><g><circle cx="428" cy="340" r="4.96" fill="#ffd24d" /><circle cx="422.4721359549996" cy="347.60845213036123" r="4.96" fill="#ffd24d" /><circle cx="413.5278640450004" cy="344.70228201833976" r="4.96" fill="#ffd24d" /><circle cx="413.5278640450004" cy="335.29771798166024" r="4.96" fill="#ffd24d" /><circle cx="422.4721359549996" cy="332.39154786963877" r="4.96" fill="#ffd24d" /><circle cx="420" cy="340" r="4.4" fill="#ffe14d" /></g><g><circle cx="157" cy="346" r="4.34" fill="#b58bff" /><circle cx="152.16311896062464" cy="352.65739561406605" r="4.34" fill="#b58bff" /><circle cx="144.33688103937536" cy="350.1144967660473" r="4.34" fill="#b58bff" /><circle cx="144.33688103937536" cy="341.8855032339527" r="4.34" fill="#b58bff" /><circle cx="152.16311896062464" cy="339.3426043859339" r="4.34" fill="#b58bff" /><circle cx="150" cy="346" r="3.8500000000000005" fill="#ffe14d" /></g><ellipse cx="173.4" cy="146.7" rx="6.050000000000001" ry="7.699999999999999" fill="#ffb0d4" /><ellipse cx="186.6" cy="146.7" rx="6.050000000000001" ry="7.699999999999999" fill="#ffb0d4" /><ellipse cx="173.95" cy="156.05" rx="4.62" ry="5.5" fill="#ffb0d4" opacity="0.85"/><ellipse cx="186.05" cy="156.05" rx="4.62" ry="5.5" fill="#ffb0d4" opacity="0.85"/><rect x="179.12" y="143.4" width="1.76" height="14.3" rx="0.88" fill="#5b4632" /><path d="M 40 320 q -3 -10 0 -16 q 3 6 0 16 M 45 320 q -2 -8 1 -13 q 2 5 -1 13" stroke="#7ab84e" stroke-width="2.4" fill="none" stroke-linecap="round"/><path d="M 360 330 q -3 -10 0 -16 q 3 6 0 16 M 365 330 q -2 -8 1 -13 q 2 5 -1 13" stroke="#7ab84e" stroke-width="2.4" fill="none" stroke-linecap="round"/><path d="M 300 350 q -3 -10 0 -16 q 3 6 0 16 M 305 350 q -2 -8 1 -13 q 2 5 -1 13" stroke="#7ab84e" stroke-width="2.4" fill="none" stroke-linecap="round"/></svg>