<svg viewBox="0 0 480 360" xmlns="http://www.w3.org/2000/svg"><style>
.enter{animation:bpEnter .7s cubic-bezier(.2,.9,.3,1.25) both}
.bob{animation:bpBob 3s ease-in-out infinite}
.bob2{animation:bpBob 3.7s ease-in-out infinite}
.sway{animation:bpSway 4s ease-in-out infinite;transform-box:fill-box;transform-origin:bottom center}
.flutter{animation:bpFlutter 3.2s ease-in-out infinite;transform-box:fill-box;transform-origin:center}
.twinkle{animation:bpTwinkle 2.4s ease-in-out infinite;transform-box:fill-box;transform-origin:center}
.spin{animation:bpSpin 24s linear infinite;transform-box:fill-box;transform-origin:center}
@keyframes bpEnter{0%{opacity:0;transform:translateY(28px)}100%{opacity:1;transform:translateY(0)}}
@keyframes bpBob{0%,100%{transform:translateY(0)}50%{transform:translateY(-6px)}}
@keyframes bpSway{0%,100%{transform:rotate(-3.5deg)}50%{transform:rotate(3.5deg)}}
@keyframes bpFlutter{0%{transform:translate(0,0) rotate(-7deg)}50%{transform:translate(12px,-14px) rotate(7deg)}100%{transform:translate(0,0) rotate(-7deg)}}
@keyframes bpTwinkle{0%,100%{opacity:.55;transform:scale(.8)}50%{opacity:1;transform:scale(1.18)}}
@keyframes bpSpin{to{transform:rotate(360deg)}}
@media(prefers-reduced-motion:reduce){.enter,.bob,.bob2,.sway,.flutter,.twinkle,.spin{animation:none}}
</style><defs><linearGradient id="sky" x1="0" y1="0" x2="0" y2="1"><stop offset="0" stop-color="#bfe6ff"/><stop offset="1" stop-color="#eaf7ff"/></linearGradient><linearGradient id="grass" x1="0" y1="0" x2="0" y2="1"><stop offset="0" stop-color="#9ad36f"/><stop offset="1" stop-color="#84c457"/></linearGradient></defs><rect x="0" y="0" width="480" height="360" rx="0" fill="url(#sky)" /><circle cx="240" cy="52" r="48" fill="#ffe89a" opacity="0.45"/><g class="spin"><line x1="280.5" y1="52" x2="291" y2="52" stroke="#ffe89a" stroke-width="5" stroke-linecap="round"/><line x1="275.07" y1="72.25" x2="284.17" y2="77.5" stroke="#ffe89a" stroke-width="5" stroke-linecap="round"/><line x1="260.25" y1="87.07" x2="265.5" y2="96.17" stroke="#ffe89a" stroke-width="5" stroke-linecap="round"/><line x1="240" y1="92.5" x2="240" y2="103" stroke="#ffe89a" stroke-width="5" stroke-linecap="round"/><line x1="219.75" y1="87.07" x2="214.5" y2="96.17" stroke="#ffe89a" stroke-width="5" stroke-linecap="round"/><line x1="204.93" y1="72.25" x2="195.83" y2="77.5" stroke="#ffe89a" stroke-width="5" stroke-linecap="round"/><line x1="199.5" y1="52" x2="189" y2="52" stroke="#ffe89a" stroke-width="5" stroke-linecap="round"/><line x1="204.93" y1="31.75" x2="195.83" y2="26.5" stroke="#ffe89a" stroke-width="5" stroke-linecap="round"/><line x1="219.75" y1="16.93" x2="214.5" y2="7.83" stroke="#ffe89a" stroke-width="5" stroke-linecap="round"/><line x1="240" y1="11.5" x2="240" y2="1" stroke="#ffe89a" stroke-width="5" stroke-linecap="round"/><line x1="260.25" y1="16.93" x2="265.5" y2="7.83" stroke="#ffe89a" stroke-width="5" stroke-linecap="round"/><line x1="275.07" y1="31.75" x2="284.17" y2="26.5" stroke="#ffe89a" stroke-width="5" stroke-linecap="round"/></g><circle cx="240" cy="52" r="30" fill="#ffd24d" /><ellipse cx="330" cy="80.4" rx="39" ry="14.3" fill="#ffffff" /><circle cx="311.8" cy="72.6" r="15.6" fill="#ffffff" /><circle cx="330" cy="62.2" r="20.28" fill="#ffffff" /><circle cx="349.5" cy="71.3" r="16.12" fill="#ffffff" /><ellipse cx="190" cy="53.2" rx="27" ry="9.9" fill="#ffffff" /><circle cx="177.4" cy="47.8" r="10.799999999999999" fill="#ffffff" /><circle cx="190" cy="40.6" r="14.040000000000001" fill="#ffffff" /><circle cx="203.5" cy="46.9" r="11.16" fill="#ffffff" /><ellipse cx="110" cy="292" rx="230" ry="130" fill="#cdeeb0" /><ellipse cx="400" cy="302" rx="240" ry="140" fill="#b2e28d" /><path d="M0 232 Q240 206 480 232 L480 360 L0 360 Z" fill="url(#grass)" /><clipPath id="ball240_300"><circle cx="240" cy="300" r="26"/></clipPath><ellipse cx="240" cy="326" rx="24.7" ry="7.409999999999999" fill="rgba(90,60,30,0.13)" /><circle cx="240" cy="300" r="26" fill="#ef6aa6" /><ellipse cx="240" cy="300" rx="8.84" ry="26" fill="#ffd24d" clip-path="url(#ball240_300)"/><ellipse cx="227" cy="300" rx="4.68" ry="26" fill="#fff" opacity="0.5" clip-path="url(#ball240_300)"/><ellipse cx="253" cy="300" rx="4.68" ry="26" fill="#fff" opacity="0.5" clip-path="url(#ball240_300)"/><ellipse cx="231.68" cy="291.16" rx="6.76" ry="4.68" fill="#fff" opacity="0.6"/><g class="enter"><g class="bob2"><ellipse cx="95" cy="287.6" rx="35.1" ry="10.53" fill="rgba(90,60,30,0.13)" /><ellipse cx="83.3" cy="285" rx="8.84" ry="7.280000000000001" fill="#7a5436" /><ellipse cx="106.7" cy="285" rx="8.84" ry="7.280000000000001" fill="#7a5436" /><ellipse cx="95" cy="260.3" rx="23.92" ry="26.52" fill="#b9824f" /><ellipse cx="95" cy="264.46000000000004" rx="15.079999999999998" ry="18.2" fill="#ecd2ac" /><line x1="74.72" y1="256.40000000000003" x2="69.52" y2="273.3" stroke="#b9824f" stroke-width="11.96" stroke-linecap="round"/><line x1="115.28" y1="256.40000000000003" x2="120.48" y2="273.3" stroke="#b9824f" stroke-width="11.96" stroke-linecap="round"/><circle cx="76.28" cy="199.2" r="10.4" fill="#b9824f" /><circle cx="76.28" cy="199.2" r="5.2" fill="#ecd2ac" /><circle cx="113.72" cy="199.2" r="10.4" fill="#b9824f" /><circle cx="113.72" cy="199.2" r="5.2" fill="#ecd2ac" /><circle cx="95" cy="220" r="26" fill="#b9824f" /><ellipse cx="86.16" cy="209.6" rx="8.32" ry="5.72" fill="rgba(255,255,255,0.4)" /><ellipse cx="95" cy="227.8" rx="15.6" ry="11.96" fill="#ecd2ac" /><circle cx="86.16" cy="218.96" r="3.12" fill="#4a3526" /><circle cx="103.84" cy="218.96" r="3.12" fill="#4a3526" /><circle cx="87.096" cy="217.9616" r="1.0608000000000002" fill="#ffffff" /><circle cx="104.77600000000001" cy="217.9616" r="1.0608000000000002" fill="#ffffff" /><ellipse cx="95" cy="223.12" rx="3.38" ry="2.6" fill="#7a5436" /><path d="M 89.8 228.84 Q 95 234.04 100.2 228.84" stroke="#4a3526" stroke-width="2" fill="none" stroke-linecap="round"/><circle cx="79.92" cy="225.2" r="3.9" fill="#f29bb0" opacity="0.7"/><circle cx="110.08" cy="225.2" r="3.9" fill="#f29bb0" opacity="0.7"/></g></g><g class="enter"><g class="bob"><ellipse cx="195" cy="269" rx="26.4" ry="7.919999999999999" fill="rgba(90,60,30,0.13)" /><line x1="176.3" y1="252.5" x2="163.1" y2="238.2" stroke="#e0b06a" stroke-width="6.6" stroke-linecap="round"/><ellipse cx="195" cy="247" rx="18.48" ry="21.56" fill="#e0b06a" /><ellipse cx="195" cy="250.08" rx="11" ry="13.64" fill="#f6e3bf" /><ellipse cx="186.2" cy="266.8" rx="6.16" ry="4.84" fill="#bd8742" /><ellipse cx="203.8" cy="266.8" rx="6.16" ry="4.84" fill="#bd8742" /><line x1="179.16" y1="244.8" x2="174.76" y2="256.9" stroke="#e0b06a" stroke-width="9.24" stroke-linecap="round"/><line x1="210.84" y1="244.8" x2="215.24" y2="256.9" stroke="#e0b06a" stroke-width="9.24" stroke-linecap="round"/><ellipse cx="176.08" cy="216.64" rx="7.04" ry="13.2" fill="#bd8742" transform="rotate(-14 176.08 214)"/><ellipse cx="213.92" cy="216.64" rx="7.04" ry="13.2" fill="#bd8742" transform="rotate(14 213.92 214)"/><circle cx="195" cy="214" r="22" fill="#e0b06a" /><ellipse cx="187.52" cy="205.2" rx="7.04" ry="4.84" fill="rgba(255,255,255,0.4)" /><ellipse cx="195" cy="221.48" rx="11.440000000000001" ry="9.24" fill="#f6e3bf" /><circle cx="187.96" cy="213.56" r="2.6399999999999997" fill="#4a3526" /><circle cx="202.04" cy="213.56" r="2.6399999999999997" fill="#4a3526" /><circle cx="188.752" cy="212.7152" r="0.8976" fill="#ffffff" /><circle cx="202.832" cy="212.7152" r="0.8976" fill="#ffffff" /><ellipse cx="195" cy="217.96" rx="3.08" ry="2.42" fill="#4a3526" /><path d="M 191.04 223.24 Q 195 227.2 198.96 223.24" stroke="#4a3526" stroke-width="2" fill="none" stroke-linecap="round"/><circle cx="182.68" cy="219.28" r="3.08" fill="#f29bb0" opacity="0.7"/><circle cx="207.32" cy="219.28" r="3.08" fill="#f29bb0" opacity="0.7"/></g></g><g class="enter"><g class="bob2"><ellipse cx="290" cy="269" rx="26.4" ry="7.919999999999999" fill="rgba(90,60,30,0.13)" /><path d="M 307.6 252.5 q 20.9 -2.2 17.6 -20.9 q -2.64 -9.9 -11 -6.16" fill="none" stroke="#a9b2bd" stroke-width="7.48" stroke-linecap="round"/><ellipse cx="290" cy="247" rx="18.04" ry="21.119999999999997" fill="#a9b2bd" /><ellipse cx="290" cy="250.08" rx="10.559999999999999" ry="13.2" fill="#e8ecf1" /><ellipse cx="281.2" cy="266.8" rx="5.94" ry="4.84" fill="#7f8a98" /><ellipse cx="298.8" cy="266.8" rx="5.94" ry="4.84" fill="#7f8a98" /><line x1="274.16" y1="244.8" x2="269.76" y2="256.9" stroke="#a9b2bd" stroke-width="8.8" stroke-linecap="round"/><line x1="305.84" y1="244.8" x2="310.24" y2="256.9" stroke="#a9b2bd" stroke-width="8.8" stroke-linecap="round"/><path d="M 270.2 199.48 L 277.24 184.96 L 284.28 199.48 Z" fill="#a9b2bd" /><path d="M 273.72 197.72 L 277.24 189.36 L 280.76 197.72 Z" fill="#f3a6c0" /><path d="M 295.72 199.48 L 302.76 184.96 L 309.8 199.48 Z" fill="#a9b2bd" /><path d="M 299.24 197.72 L 302.76 189.36 L 306.28 197.72 Z" fill="#f3a6c0" /><circle cx="290" cy="214" r="22" fill="#a9b2bd" /><ellipse cx="282.52" cy="205.2" rx="7.04" ry="4.84" fill="rgba(255,255,255,0.4)" /><circle cx="282.52" cy="213.56" r="2.6399999999999997" fill="#4a3526" /><circle cx="297.48" cy="213.56" r="2.6399999999999997" fill="#4a3526" /><circle cx="283.31199999999995" cy="212.7152" r="0.8976" fill="#ffffff" /><circle cx="298.272" cy="212.7152" r="0.8976" fill="#ffffff" /><path d="M 288.02 217.52 L 291.98 217.52 L 290 220.16 Z" fill="#f3a6c0" /><path d="M 286.48 221.92 Q 290 225.44 293.52 221.92" stroke="#4a3526" stroke-width="2" fill="none" stroke-linecap="round"/><line x1="285.6" y1="218.4" x2="271.3" y2="216.64" stroke="#6f7780" stroke-width="0.99" stroke-linecap="round"/><line x1="285.6" y1="219.94" x2="271.3" y2="221.04" stroke="#6f7780" stroke-width="0.99" stroke-linecap="round"/><line x1="294.4" y1="218.4" x2="308.7" y2="216.64" stroke="#6f7780" stroke-width="0.99" stroke-linecap="round"/><line x1="294.4" y1="219.94" x2="308.7" y2="221.04" stroke="#6f7780" stroke-width="0.99" stroke-linecap="round"/><circle cx="277.68" cy="218.4" r="3.08" fill="#f29bb0" opacity="0.7"/><circle cx="302.32" cy="218.4" r="3.08" fill="#f29bb0" opacity="0.7"/></g></g><g class="enter"><g class="bob"><ellipse cx="385" cy="272.5" rx="24.15" ry="7.244999999999999" fill="rgba(90,60,30,0.13)" /><ellipse cx="377.86" cy="195.85" rx="5.46" ry="14.7" fill="#fff6ec" transform="rotate(-12 377.86 201.1)"/><ellipse cx="377.86" cy="195.85" rx="2.73" ry="10.5" fill="#f6b9c6" transform="rotate(-12 377.86 201.1)"/><ellipse cx="392.14" cy="195.85" rx="5.46" ry="14.7" fill="#fff6ec" transform="rotate(12 392.14 201.1)"/><ellipse cx="392.14" cy="195.85" rx="2.73" ry="10.5" fill="#f6b9c6" transform="rotate(12 392.14 201.1)"/><ellipse cx="385" cy="251.5" rx="17.22" ry="20.16" fill="#fff6ec" /><ellipse cx="385" cy="254.02" rx="10.5" ry="12.6" fill="#efe1d0" /><ellipse cx="376.6" cy="270.4" rx="6.3" ry="4.62" fill="#efe1d0" /><ellipse cx="393.4" cy="270.4" rx="6.3" ry="4.62" fill="#efe1d0" /><line x1="369.88" y1="249.4" x2="365.68" y2="260.95" stroke="#fff6ec" stroke-width="8.82" stroke-linecap="round"/><line x1="400.12" y1="249.4" x2="404.32" y2="260.95" stroke="#fff6ec" stroke-width="8.82" stroke-linecap="round"/><circle cx="385" cy="220" r="21" fill="#fff6ec" /><ellipse cx="377.86" cy="211.6" rx="6.72" ry="4.62" fill="rgba(255,255,255,0.4)" /><circle cx="378.28" cy="219.58" r="2.31" fill="#4a3526" /><circle cx="391.72" cy="219.58" r="2.31" fill="#4a3526" /><circle cx="378.97299999999996" cy="218.8408" r="0.7854000000000001" fill="#ffffff" /><circle cx="392.413" cy="218.8408" r="0.7854000000000001" fill="#ffffff" /><path d="M 382.9 223.36 L 387.1 223.36 L 385 226.3 Z" fill="#f6b9c6" /><path d="M 381.64 227.56 Q 385 230.92 388.36 227.56" stroke="#4a3526" stroke-width="2" fill="none" stroke-linecap="round"/><circle cx="373.66" cy="224.2" r="2.73" fill="#f29bb0" opacity="0.7"/><circle cx="396.34" cy="224.2" r="2.73" fill="#f29bb0" opacity="0.7"/></g></g><g class="sway" style="animation-delay:0.3s"><circle cx="48" cy="330" r="4.96" fill="#ff8fb3" /><circle cx="42.47213595499958" cy="337.60845213036123" r="4.96" fill="#ff8fb3" /><circle cx="33.52786404500042" cy="334.70228201833976" r="4.96" fill="#ff8fb3" /><circle cx="33.52786404500042" cy="325.29771798166024" r="4.96" fill="#ff8fb3" /><circle cx="42.47213595499958" cy="322.39154786963877" r="4.96" fill="#ff8fb3" /><circle cx="40" cy="330" r="4.4" fill="#ffe14d" /></g><g class="sway" style="animation-delay:0.6s"><circle cx="458" cy="330" r="4.96" fill="#ffd24d" /><circle cx="452.4721359549996" cy="337.60845213036123" r="4.96" fill="#ffd24d" /><circle cx="443.5278640450004" cy="334.70228201833976" r="4.96" fill="#ffd24d" /><circle cx="443.5278640450004" cy="325.29771798166024" r="4.96" fill="#ffd24d" /><circle cx="452.4721359549996" cy="322.39154786963877" r="4.96" fill="#ffd24d" /><circle cx="450" cy="330" r="4.4" fill="#ffe14d" /></g><g class="flutter"><ellipse cx="392.8" cy="116.4" rx="6.6000000000000005" ry="8.399999999999999" fill="#ffb0d4" /><ellipse cx="407.2" cy="116.4" rx="6.6000000000000005" ry="8.399999999999999" fill="#ffb0d4" /><ellipse cx="393.4" cy="126.6" rx="5.04" ry="6" fill="#ffb0d4" opacity="0.85"/><ellipse cx="406.6" cy="126.6" rx="5.04" ry="6" fill="#ffb0d4" opacity="0.85"/><rect x="399.04" y="112.8" width="1.92" height="15.600000000000001" rx="0.96" fill="#5b4632" /></g></svg>