<svg viewBox="0 0 480 360" xmlns="http://www.w3.org/2000/svg"><defs><linearGradient id="sky" x1="0" y1="0" x2="0" y2="1"><stop offset="0" stop-color="#bfe6ff"/><stop offset="1" stop-color="#eaf7ff"/></linearGradient><linearGradient id="grass" x1="0" y1="0" x2="0" y2="1"><stop offset="0" stop-color="#9ad36f"/><stop offset="1" stop-color="#84c457"/></linearGradient></defs><rect x="0" y="0" width="480" height="360" rx="0" fill="url(#sky)" /><circle cx="66" cy="60" r="48" fill="#ffe89a" opacity="0.45"/><line x1="106.5" y1="60" x2="117" y2="60" stroke="#ffe89a" stroke-width="5" stroke-linecap="round"/><line x1="101.07" y1="80.25" x2="110.17" y2="85.5" stroke="#ffe89a" stroke-width="5" stroke-linecap="round"/><line x1="86.25" y1="95.07" x2="91.5" y2="104.17" stroke="#ffe89a" stroke-width="5" stroke-linecap="round"/><line x1="66" y1="100.5" x2="66" y2="111" stroke="#ffe89a" stroke-width="5" stroke-linecap="round"/><line x1="45.75" y1="95.07" x2="40.5" y2="104.17" stroke="#ffe89a" stroke-width="5" stroke-linecap="round"/><line x1="30.93" y1="80.25" x2="21.83" y2="85.5" stroke="#ffe89a" stroke-width="5" stroke-linecap="round"/><line x1="25.5" y1="60" x2="15" y2="60" stroke="#ffe89a" stroke-width="5" stroke-linecap="round"/><line x1="30.93" y1="39.75" x2="21.83" y2="34.5" stroke="#ffe89a" stroke-width="5" stroke-linecap="round"/><line x1="45.75" y1="24.93" x2="40.5" y2="15.83" stroke="#ffe89a" stroke-width="5" stroke-linecap="round"/><line x1="66" y1="19.5" x2="66" y2="9" stroke="#ffe89a" stroke-width="5" stroke-linecap="round"/><line x1="86.25" y1="24.93" x2="91.5" y2="15.83" stroke="#ffe89a" stroke-width="5" stroke-linecap="round"/><line x1="101.07" y1="39.75" x2="110.17" y2="34.5" stroke="#ffe89a" stroke-width="5" stroke-linecap="round"/><circle cx="66" cy="60" r="30" fill="#ffd24d" /><ellipse cx="330" cy="80.4" rx="39" ry="14.3" fill="#ffffff" /><circle cx="311.8" cy="72.6" r="15.6" fill="#ffffff" /><circle cx="330" cy="62.2" r="20.28" fill="#ffffff" /><circle cx="349.5" cy="71.3" r="16.12" fill="#ffffff" /><ellipse cx="190" cy="53.2" rx="27" ry="9.9" fill="#ffffff" /><circle cx="177.4" cy="47.8" r="10.799999999999999" fill="#ffffff" /><circle cx="190" cy="40.6" r="14.040000000000001" fill="#ffffff" /><circle cx="203.5" cy="46.9" r="11.16" fill="#ffffff" /><ellipse cx="110" cy="292" rx="230" ry="130" fill="#cdeeb0" /><ellipse cx="400" cy="302" rx="240" ry="140" fill="#b2e28d" /><path d="M0 232 Q240 206 480 232 L480 360 L0 360 Z" fill="url(#grass)" /><ellipse cx="400" cy="239.6" rx="28.8" ry="8.64" fill="rgba(90,60,30,0.13)" /><rect x="394.88" y="190" width="10.24" height="51.2" rx="3.2" fill="#b07a4e" /><circle cx="400" cy="177.2" r="30.4" fill="#5fae46" /><circle cx="377.6" cy="190" r="22.4" fill="#7cc35e" /><circle cx="422.4" cy="190" r="23.04" fill="#7cc35e" /><circle cx="400" cy="174" r="25.6" fill="#7cc35e" /><ellipse cx="390.4" cy="167.6" rx="12.8" ry="8.96" fill="#a3d885" opacity="0.7"/><ellipse cx="150" cy="314.20000000000005" rx="36.45" ry="10.935" fill="rgba(90,60,30,0.13)" /><ellipse cx="137.85" cy="311.5" rx="9.180000000000001" ry="7.5600000000000005" fill="#7a5436" /><ellipse cx="162.15" cy="311.5" rx="9.180000000000001" ry="7.5600000000000005" fill="#7a5436" /><ellipse cx="150" cy="285.85" rx="24.84" ry="27.54" fill="#b9824f" /><ellipse cx="150" cy="290.17" rx="15.659999999999998" ry="18.9" fill="#ecd2ac" /><line x1="128.94" y1="281.8" x2="123.53999999999999" y2="299.35" stroke="#b9824f" stroke-width="12.42" stroke-linecap="round"/><line x1="171.06" y1="281.8" x2="176.46" y2="299.35" stroke="#b9824f" stroke-width="12.42" stroke-linecap="round"/><circle cx="130.56" cy="222.4" r="10.8" fill="#b9824f" /><circle cx="130.56" cy="222.4" r="5.4" fill="#ecd2ac" /><circle cx="169.44" cy="222.4" r="10.8" fill="#b9824f" /><circle cx="169.44" cy="222.4" r="5.4" fill="#ecd2ac" /><circle cx="150" cy="244" r="27" fill="#b9824f" /><ellipse cx="140.82" cy="233.2" rx="8.64" ry="5.94" fill="rgba(255,255,255,0.4)" /><ellipse cx="150" cy="252.1" rx="16.2" ry="12.42" fill="#ecd2ac" /><circle cx="140.82" cy="242.92" r="3.2399999999999998" fill="#4a3526" /><circle cx="159.18" cy="242.92" r="3.2399999999999998" fill="#4a3526" /><circle cx="141.792" cy="241.8832" r="1.1016" fill="#ffffff" /><circle cx="160.15200000000002" cy="241.8832" r="1.1016" fill="#ffffff" /><ellipse cx="150" cy="247.24" rx="3.5100000000000002" ry="2.7" fill="#7a5436" /><path d="M 144.6 253.18 Q 150 258.58 155.4 253.18" stroke="#4a3526" stroke-width="2" fill="none" stroke-linecap="round"/><circle cx="134.34" cy="249.4" r="4.05" fill="#f29bb0" opacity="0.7"/><circle cx="165.66" cy="249.4" r="4.05" fill="#f29bb0" opacity="0.7"/><ellipse cx="330" cy="296" rx="27.599999999999998" ry="8.28" fill="rgba(90,60,30,0.13)" /><ellipse cx="321.84" cy="208.4" rx="6.24" ry="16.799999999999997" fill="#fff6ec" transform="rotate(-12 321.84 214.4)"/><ellipse cx="321.84" cy="208.4" rx="3.12" ry="12" fill="#f6b9c6" transform="rotate(-12 321.84 214.4)"/><ellipse cx="338.16" cy="208.4" rx="6.24" ry="16.799999999999997" fill="#fff6ec" transform="rotate(12 338.16 214.4)"/><ellipse cx="338.16" cy="208.4" rx="3.12" ry="12" fill="#f6b9c6" transform="rotate(12 338.16 214.4)"/><ellipse cx="330" cy="272" rx="19.68" ry="23.04" fill="#fff6ec" /><ellipse cx="330" cy="274.88" rx="12" ry="14.399999999999999" fill="#efe1d0" /><ellipse cx="320.4" cy="293.6" rx="7.199999999999999" ry="5.28" fill="#efe1d0" /><ellipse cx="339.6" cy="293.6" rx="7.199999999999999" ry="5.28" fill="#efe1d0" /><line x1="312.72" y1="269.6" x2="307.92" y2="282.8" stroke="#fff6ec" stroke-width="10.08" stroke-linecap="round"/><line x1="347.28" y1="269.6" x2="352.08" y2="282.8" stroke="#fff6ec" stroke-width="10.08" stroke-linecap="round"/><circle cx="330" cy="236" r="24" fill="#fff6ec" /><ellipse cx="321.84" cy="226.4" rx="7.68" ry="5.28" fill="rgba(255,255,255,0.4)" /><circle cx="322.32" cy="235.52" r="2.64" fill="#4a3526" /><circle cx="337.68" cy="235.52" r="2.64" fill="#4a3526" /><circle cx="323.11199999999997" cy="234.67520000000002" r="0.8976000000000001" fill="#ffffff" /><circle cx="338.472" cy="234.67520000000002" r="0.8976000000000001" fill="#ffffff" /><path d="M 327.6 239.84 L 332.4 239.84 L 330 243.2 Z" fill="#f6b9c6" /><path d="M 326.16 244.64 Q 330 248.48 333.84 244.64" stroke="#4a3526" stroke-width="2" fill="none" stroke-linecap="round"/><circle cx="317.04" cy="240.8" r="3.12" fill="#f29bb0" opacity="0.7"/><circle cx="342.96" cy="240.8" r="3.12" fill="#f29bb0" opacity="0.7"/><g><circle cx="72" cy="344" r="4.96" fill="#ffd24d" /><circle cx="66.47213595499957" cy="351.60845213036123" r="4.96" fill="#ffd24d" /><circle cx="57.52786404500042" cy="348.70228201833976" r="4.96" fill="#ffd24d" /><circle cx="57.52786404500042" cy="339.29771798166024" r="4.96" fill="#ffd24d" /><circle cx="66.47213595499957" cy="336.39154786963877" r="4.96" fill="#ffd24d" /><circle cx="64" cy="344" r="4.4" fill="#ffe14d" /></g><g><circle cx="297" cy="344" r="4.34" fill="#b58bff" /><circle cx="292.1631189606246" cy="350.65739561406605" r="4.34" fill="#b58bff" /><circle cx="284.3368810393754" cy="348.1144967660473" r="4.34" fill="#b58bff" /><circle cx="284.3368810393754" cy="339.8855032339527" r="4.34" fill="#b58bff" /><circle cx="292.1631189606246" cy="337.3426043859339" r="4.34" fill="#b58bff" /><circle cx="290" cy="344" r="3.8500000000000005" fill="#ffe14d" /></g><ellipse cx="203.4" cy="126.7" rx="6.050000000000001" ry="7.699999999999999" fill="#c4a0ff" /><ellipse cx="216.6" cy="126.7" rx="6.050000000000001" ry="7.699999999999999" fill="#c4a0ff" /><ellipse cx="203.95" cy="136.05" rx="4.62" ry="5.5" fill="#c4a0ff" opacity="0.85"/><ellipse cx="216.05" cy="136.05" rx="4.62" ry="5.5" fill="#c4a0ff" opacity="0.85"/><rect x="209.12" y="123.4" width="1.76" height="14.3" rx="0.88" fill="#5b4632" /><path d="M 40 326 q -3 -10 0 -16 q 3 6 0 16 M 45 326 q -2 -8 1 -13 q 2 5 -1 13" stroke="#7ab84e" stroke-width="2.4" fill="none" stroke-linecap="round"/><path d="M 360 330 q -3 -10 0 -16 q 3 6 0 16 M 365 330 q -2 -8 1 -13 q 2 5 -1 13" stroke="#7ab84e" stroke-width="2.4" fill="none" stroke-linecap="round"/><path d="M 250 350 q -3 -10 0 -16 q 3 6 0 16 M 255 350 q -2 -8 1 -13 q 2 5 -1 13" stroke="#7ab84e" stroke-width="2.4" fill="none" stroke-linecap="round"/></svg>