<svg viewBox="0 0 480 360" xmlns="http://www.w3.org/2000/svg"><defs><linearGradient id="sky" x1="0" y1="0" x2="0" y2="1"><stop offset="0" stop-color="#ffe0a6"/><stop offset="0.55" stop-color="#ffb38f"/><stop offset="1" stop-color="#f6c1d6"/></linearGradient><linearGradient id="grass" x1="0" y1="0" x2="0" y2="1"><stop offset="0" stop-color="#cf9f6a"/><stop offset="1" stop-color="#b9854f"/></linearGradient></defs><rect x="0" y="0" width="480" height="360" rx="0" fill="url(#sky)" /><circle cx="240" cy="150" r="73.60000000000001" fill="#ffd9a0" opacity="0.45"/><line x1="302.1" y1="150" x2="318.2" y2="150" stroke="#ffd9a0" stroke-width="5" stroke-linecap="round"/><line x1="293.78" y1="181.05" x2="307.72" y2="189.1" stroke="#ffd9a0" stroke-width="5" stroke-linecap="round"/><line x1="271.05" y1="203.78" x2="279.1" y2="217.72" stroke="#ffd9a0" stroke-width="5" stroke-linecap="round"/><line x1="240" y1="212.1" x2="240" y2="228.2" stroke="#ffd9a0" stroke-width="5" stroke-linecap="round"/><line x1="208.95" y1="203.78" x2="200.9" y2="217.72" stroke="#ffd9a0" stroke-width="5" stroke-linecap="round"/><line x1="186.22" y1="181.05" x2="172.28" y2="189.1" stroke="#ffd9a0" stroke-width="5" stroke-linecap="round"/><line x1="177.9" y1="150" x2="161.8" y2="150" stroke="#ffd9a0" stroke-width="5" stroke-linecap="round"/><line x1="186.22" y1="118.95" x2="172.28" y2="110.9" stroke="#ffd9a0" stroke-width="5" stroke-linecap="round"/><line x1="208.95" y1="96.22" x2="200.9" y2="82.28" stroke="#ffd9a0" stroke-width="5" stroke-linecap="round"/><line x1="240" y1="87.9" x2="240" y2="71.8" stroke="#ffd9a0" stroke-width="5" stroke-linecap="round"/><line x1="271.05" y1="96.22" x2="279.1" y2="82.28" stroke="#ffd9a0" stroke-width="5" stroke-linecap="round"/><line x1="293.78" y1="118.95" x2="307.72" y2="110.9" stroke="#ffd9a0" stroke-width="5" stroke-linecap="round"/><circle cx="240" cy="150" r="46" fill="#ff9e5a" /><ellipse cx="360" cy="89.6" rx="36" ry="13.200000000000001" fill="#ffffff" /><circle cx="343.2" cy="82.4" r="14.399999999999999" fill="#ffffff" /><circle cx="360" cy="72.8" r="18.72" fill="#ffffff" /><circle cx="378" cy="81.2" r="14.879999999999999" fill="#ffffff" /><ellipse cx="110" cy="71.2" rx="27" ry="9.9" fill="#ffffff" /><circle cx="97.4" cy="65.8" r="10.799999999999999" fill="#ffffff" /><circle cx="110" cy="58.6" r="14.040000000000001" fill="#ffffff" /><circle cx="123.5" cy="64.9" r="11.16" fill="#ffffff" /><ellipse cx="110" cy="300" rx="230" ry="130" fill="#d7a96f" /><ellipse cx="400" cy="310" rx="240" ry="140" fill="#caa063" /><path d="M0 244 Q240 220 480 244 L480 360 L0 360 Z" fill="url(#grass)" /><path d="M 60 44 L 61.8 48.2 L 66 50 L 61.8 51.8 L 60 56 L 58.2 51.8 L 54 50 L 58.2 48.2 Z" fill="#fff3c4" /><path d="M 420 40 L 421.8 44.2 L 426 46 L 421.8 47.8 L 420 52 L 418.2 47.8 L 414 46 L 418.2 44.2 Z" fill="#fff3c4" /><path d="M 300 34 L 301.8 38.2 L 306 40 L 301.8 41.8 L 300 46 L 298.2 41.8 L 294 40 L 298.2 38.2 Z" fill="#fff3c4" /><ellipse cx="110" cy="302.20000000000005" rx="36.45" ry="10.935" fill="rgba(90,60,30,0.13)" /><ellipse cx="97.85" cy="299.5" rx="9.180000000000001" ry="7.5600000000000005" fill="#7a5436" /><ellipse cx="122.15" cy="299.5" rx="9.180000000000001" ry="7.5600000000000005" fill="#7a5436" /><ellipse cx="110" cy="273.85" rx="24.84" ry="27.54" fill="#b9824f" /><ellipse cx="110" cy="278.17" rx="15.659999999999998" ry="18.9" fill="#ecd2ac" /><line x1="88.94" y1="269.8" x2="83.53999999999999" y2="287.35" stroke="#b9824f" stroke-width="12.42" stroke-linecap="round"/><line x1="128.9" y1="268.45000000000005" x2="142.4" y2="233.35" stroke="#b9824f" stroke-width="12.42" stroke-linecap="round"/><circle cx="90.56" cy="210.4" r="10.8" fill="#b9824f" /><circle cx="90.56" cy="210.4" r="5.4" fill="#ecd2ac" /><circle cx="129.44" cy="210.4" r="10.8" fill="#b9824f" /><circle cx="129.44" cy="210.4" r="5.4" fill="#ecd2ac" /><circle cx="110" cy="232" r="27" fill="#b9824f" /><ellipse cx="100.82" cy="221.2" rx="8.64" ry="5.94" fill="rgba(255,255,255,0.4)" /><ellipse cx="110" cy="240.1" rx="16.2" ry="12.42" fill="#ecd2ac" /><circle cx="100.82" cy="230.92" r="3.2399999999999998" fill="#4a3526" /><circle cx="119.18" cy="230.92" r="3.2399999999999998" fill="#4a3526" /><circle cx="101.79199999999999" cy="229.8832" r="1.1016" fill="#ffffff" /><circle cx="120.152" cy="229.8832" r="1.1016" fill="#ffffff" /><ellipse cx="110" cy="235.24" rx="3.5100000000000002" ry="2.7" fill="#7a5436" /><path d="M 104.6 241.18 Q 110 246.58 115.4 241.18" stroke="#4a3526" stroke-width="2" fill="none" stroke-linecap="round"/><circle cx="94.34" cy="237.4" r="4.05" fill="#f29bb0" opacity="0.7"/><circle cx="125.66" cy="237.4" r="4.05" fill="#f29bb0" opacity="0.7"/><ellipse cx="232" cy="281.5" rx="27.599999999999998" ry="8.28" fill="rgba(90,60,30,0.13)" /><ellipse cx="232" cy="258.5" rx="18.86" ry="22.08" fill="#8d6443" /><ellipse cx="232" cy="261.26" rx="11.5" ry="14.26" fill="#f0d6ae" /><line x1="215.44" y1="256.2" x2="210.15" y2="268.85" stroke="#8d6443" stroke-width="9.200000000000001" stroke-linecap="round"/><line x1="248.56" y1="256.2" x2="253.85" y2="268.85" stroke="#8d6443" stroke-width="9.200000000000001" stroke-linecap="round"/><ellipse cx="222.8" cy="279.2" rx="6.44" ry="5.06" fill="#6e4d34" /><ellipse cx="241.2" cy="279.2" rx="6.44" ry="5.06" fill="#6e4d34" /><circle cx="210.84" cy="225.15" r="7.36" fill="#8d6443" /><circle cx="210.84" cy="225.15" r="3.91" fill="#f0d6ae" /><circle cx="253.16" cy="225.15" r="7.36" fill="#8d6443" /><circle cx="253.16" cy="225.15" r="3.91" fill="#f0d6ae" /><circle cx="232" cy="224" r="23" fill="#8d6443" /><ellipse cx="224.18" cy="214.8" rx="7.36" ry="5.06" fill="rgba(255,255,255,0.4)" /><path d="M 232 211.35 C 210.15 212.5 215.9 243.55 232 241.94 C 248.1 243.55 253.85 212.5 232 211.35 Z" fill="#f0d6ae" /><circle cx="225.1" cy="223.54" r="2.53" fill="#4a3526" /><circle cx="238.9" cy="223.54" r="2.53" fill="#4a3526" /><circle cx="225.85899999999998" cy="222.7304" r="0.8602" fill="#ffffff" /><circle cx="239.659" cy="222.7304" r="0.8602" fill="#ffffff" /><ellipse cx="232" cy="229.98" rx="3.68" ry="2.3000000000000003" fill="#6e4d34" opacity="0.5"/><circle cx="230.16" cy="229.06" r="1.1500000000000001" fill="#6e4d34" /><circle cx="233.84" cy="229.06" r="1.1500000000000001" fill="#6e4d34" /><path d="M 227.4 232.28 Q 232 236.88 236.6 232.28" stroke="#4a3526" stroke-width="2" fill="none" stroke-linecap="round"/><circle cx="220.04" cy="227.68" r="2.99" fill="#f29bb0" opacity="0.7"/><circle cx="243.96" cy="227.68" r="2.99" fill="#f29bb0" opacity="0.7"/><ellipse cx="353" cy="293.5" rx="28.749999999999996" ry="8.624999999999998" fill="rgba(90,60,30,0.13)" /><path d="M 360.5 279.75 C 398 284.75 398 213.5 370.5 221 C 385.5 231 383 272.25 360.5 279.75 Z" fill="#df9249" /><path d="M 365.5 274.75 C 385.5 274.75 386.75 223.5 373 226 C 378 241 375.5 269.75 365.5 274.75 Z" fill="#f2c690" /><ellipse cx="348" cy="269.75" rx="17" ry="21.25" fill="#df9249" /><ellipse cx="348" cy="272.25" rx="10.5" ry="14.000000000000002" fill="#f2c690" /><ellipse cx="340.5" cy="289.25" rx="6" ry="4.5" fill="#b8702f" /><ellipse cx="355.5" cy="289.25" rx="6" ry="4.5" fill="#b8702f" /><line x1="335.5" y1="267.25" x2="332.5" y2="278.5" stroke="#df9249" stroke-width="8.5" stroke-linecap="round"/><line x1="360.5" y1="267.25" x2="363.5" y2="278.5" stroke="#df9249" stroke-width="8.5" stroke-linecap="round"/><path d="M 328.75 218.5 Q 334.25 203.5 339.75 218.5 Z" fill="#df9249" /><path d="M 331.25 217.5 Q 334.25 208.5 337.25 217.5 Z" fill="#f2c690" /><path d="M 356.25 218.5 Q 361.75 203.5 367.25 218.5 Z" fill="#df9249" /><path d="M 358.75 217.5 Q 361.75 208.5 364.75 217.5 Z" fill="#f2c690" /><circle cx="348" cy="236" r="25" fill="#df9249" /><ellipse cx="339.5" cy="226" rx="8" ry="5.5" fill="rgba(255,255,255,0.4)" /><ellipse cx="348" cy="244" rx="11.5" ry="9" fill="#f2c690" /><circle cx="340.5" cy="235" r="2.75" fill="#4a3526" /><circle cx="355.5" cy="235" r="2.75" fill="#4a3526" /><circle cx="341.325" cy="234.12" r="0.935" fill="#ffffff" /><circle cx="356.325" cy="234.12" r="0.935" fill="#ffffff" /><ellipse cx="348" cy="240" rx="2.5" ry="2" fill="#b8702f" /><path d="M 344 244.5 Q 348 248.5 352 244.5" stroke="#4a3526" stroke-width="2" fill="none" stroke-linecap="round"/><circle cx="335" cy="240.5" r="3.25" fill="#f29bb0" opacity="0.7"/><circle cx="361" cy="240.5" r="3.25" fill="#f29bb0" opacity="0.7"/><ellipse cx="430" cy="286" rx="23" ry="6.8999999999999995" fill="rgba(90,60,30,0.13)" /><ellipse cx="423.2" cy="213" rx="5.2" ry="14" fill="#fff6ec" transform="rotate(-12 423.2 218)"/><ellipse cx="423.2" cy="213" rx="2.6" ry="10" fill="#f6b9c6" transform="rotate(-12 423.2 218)"/><ellipse cx="436.8" cy="213" rx="5.2" ry="14" fill="#fff6ec" transform="rotate(12 436.8 218)"/><ellipse cx="436.8" cy="213" rx="2.6" ry="10" fill="#f6b9c6" transform="rotate(12 436.8 218)"/><ellipse cx="430" cy="266" rx="16.4" ry="19.2" fill="#fff6ec" /><ellipse cx="430" cy="268.4" rx="10" ry="12" fill="#efe1d0" /><ellipse cx="422" cy="284" rx="6" ry="4.4" fill="#efe1d0" /><ellipse cx="438" cy="284" rx="6" ry="4.4" fill="#efe1d0" /><line x1="415.6" y1="264" x2="411.6" y2="275" stroke="#fff6ec" stroke-width="8.4" stroke-linecap="round"/><line x1="443.6" y1="262" x2="453" y2="237" stroke="#fff6ec" stroke-width="8.4" stroke-linecap="round"/><circle cx="430" cy="236" r="20" fill="#fff6ec" /><ellipse cx="423.2" cy="228" rx="6.4" ry="4.4" fill="rgba(255,255,255,0.4)" /><circle cx="423.6" cy="235.6" r="2.2" fill="#4a3526" /><circle cx="436.4" cy="235.6" r="2.2" fill="#4a3526" /><circle cx="424.26000000000005" cy="234.896" r="0.7480000000000001" fill="#ffffff" /><circle cx="437.06" cy="234.896" r="0.7480000000000001" fill="#ffffff" /><path d="M 428 239.2 L 432 239.2 L 430 242 Z" fill="#f6b9c6" /><path d="M 426.8 243.2 Q 430 246.4 433.2 243.2" stroke="#4a3526" stroke-width="2" fill="none" stroke-linecap="round"/><circle cx="419.2" cy="240" r="2.6" fill="#f29bb0" opacity="0.7"/><circle cx="440.8" cy="240" r="2.6" fill="#f29bb0" opacity="0.7"/><ellipse cx="174" cy="117" rx="5.5" ry="7" fill="#ffc4a0" /><ellipse cx="186" cy="117" rx="5.5" ry="7" fill="#ffc4a0" /><ellipse cx="174.5" cy="125.5" rx="4.2" ry="5" fill="#ffc4a0" opacity="0.85"/><ellipse cx="185.5" cy="125.5" rx="4.2" ry="5" fill="#ffc4a0" opacity="0.85"/><rect x="179.2" y="114" width="1.6" height="13" rx="0.8" fill="#5b4632" /></svg>