<svg viewBox="0 0 480 360" xmlns="http://www.w3.org/2000/svg"><style>
.enter{animation:bpEnter .7s cubic-bezier(.2,.9,.3,1.25) both}
.bob{animation:bpBob 3s ease-in-out infinite}
.bob2{animation:bpBob 3.7s ease-in-out infinite}
.sway{animation:bpSway 4s ease-in-out infinite;transform-box:fill-box;transform-origin:bottom center}
.flutter{animation:bpFlutter 3.2s ease-in-out infinite;transform-box:fill-box;transform-origin:center}
.twinkle{animation:bpTwinkle 2.4s ease-in-out infinite;transform-box:fill-box;transform-origin:center}
.spin{animation:bpSpin 24s linear infinite;transform-box:fill-box;transform-origin:center}
@keyframes bpEnter{0%{opacity:0;transform:translateY(28px)}100%{opacity:1;transform:translateY(0)}}
@keyframes bpBob{0%,100%{transform:translateY(0)}50%{transform:translateY(-6px)}}
@keyframes bpSway{0%,100%{transform:rotate(-3.5deg)}50%{transform:rotate(3.5deg)}}
@keyframes bpFlutter{0%{transform:translate(0,0) rotate(-7deg)}50%{transform:translate(12px,-14px) rotate(7deg)}100%{transform:translate(0,0) rotate(-7deg)}}
@keyframes bpTwinkle{0%,100%{opacity:.55;transform:scale(.8)}50%{opacity:1;transform:scale(1.18)}}
@keyframes bpSpin{to{transform:rotate(360deg)}}
@media(prefers-reduced-motion:reduce){.enter,.bob,.bob2,.sway,.flutter,.twinkle,.spin{animation:none}}
</style><defs><linearGradient id="sky" x1="0" y1="0" x2="0" y2="1"><stop offset="0" stop-color="#ffe0a6"/><stop offset="0.55" stop-color="#ffb38f"/><stop offset="1" stop-color="#f6c1d6"/></linearGradient><linearGradient id="grass" x1="0" y1="0" x2="0" y2="1"><stop offset="0" stop-color="#cf9f6a"/><stop offset="1" stop-color="#b9854f"/></linearGradient></defs><rect x="0" y="0" width="480" height="360" rx="0" fill="url(#sky)" /><circle cx="240" cy="150" r="73.60000000000001" fill="#ffd9a0" opacity="0.45"/><g class="spin"><line x1="302.1" y1="150" x2="318.2" y2="150" stroke="#ffd9a0" stroke-width="5" stroke-linecap="round"/><line x1="293.78" y1="181.05" x2="307.72" y2="189.1" stroke="#ffd9a0" stroke-width="5" stroke-linecap="round"/><line x1="271.05" y1="203.78" x2="279.1" y2="217.72" stroke="#ffd9a0" stroke-width="5" stroke-linecap="round"/><line x1="240" y1="212.1" x2="240" y2="228.2" stroke="#ffd9a0" stroke-width="5" stroke-linecap="round"/><line x1="208.95" y1="203.78" x2="200.9" y2="217.72" stroke="#ffd9a0" stroke-width="5" stroke-linecap="round"/><line x1="186.22" y1="181.05" x2="172.28" y2="189.1" stroke="#ffd9a0" stroke-width="5" stroke-linecap="round"/><line x1="177.9" y1="150" x2="161.8" y2="150" stroke="#ffd9a0" stroke-width="5" stroke-linecap="round"/><line x1="186.22" y1="118.95" x2="172.28" y2="110.9" stroke="#ffd9a0" stroke-width="5" stroke-linecap="round"/><line x1="208.95" y1="96.22" x2="200.9" y2="82.28" stroke="#ffd9a0" stroke-width="5" stroke-linecap="round"/><line x1="240" y1="87.9" x2="240" y2="71.8" stroke="#ffd9a0" stroke-width="5" stroke-linecap="round"/><line x1="271.05" y1="96.22" x2="279.1" y2="82.28" stroke="#ffd9a0" stroke-width="5" stroke-linecap="round"/><line x1="293.78" y1="118.95" x2="307.72" y2="110.9" stroke="#ffd9a0" stroke-width="5" stroke-linecap="round"/></g><circle cx="240" cy="150" r="46" fill="#ff9e5a" /><ellipse cx="360" cy="89.6" rx="36" ry="13.200000000000001" fill="#ffffff" /><circle cx="343.2" cy="82.4" r="14.399999999999999" fill="#ffffff" /><circle cx="360" cy="72.8" r="18.72" fill="#ffffff" /><circle cx="378" cy="81.2" r="14.879999999999999" fill="#ffffff" /><ellipse cx="110" cy="71.2" rx="27" ry="9.9" fill="#ffffff" /><circle cx="97.4" cy="65.8" r="10.799999999999999" fill="#ffffff" /><circle cx="110" cy="58.6" r="14.040000000000001" fill="#ffffff" /><circle cx="123.5" cy="64.9" r="11.16" fill="#ffffff" /><ellipse cx="110" cy="300" rx="230" ry="130" fill="#d7a96f" /><ellipse cx="400" cy="310" rx="240" ry="140" fill="#caa063" /><path d="M0 244 Q240 220 480 244 L480 360 L0 360 Z" fill="url(#grass)" /><g class="sway" style="animation-delay:1.2s"><ellipse cx="360" cy="120" rx="18.7" ry="22" fill="#e8483f" /><path d="M 356.48 141.12 L 363.52 141.12 L 360 145.52 Z" fill="#e8483f" /><ellipse cx="353.84" cy="112.52" rx="4.4" ry="6.6" fill="#fff" opacity="0.45"/><path d="M 360 145.52 q 11 19.8 -4.4 39.6 q -11 15.4 6.6 35.2" stroke="#b58b6a" stroke-width="1.6" fill="none"/></g><g class="sway" style="animation-delay:0s"><ellipse cx="120" cy="110" rx="18.7" ry="22" fill="#5b8def" /><path d="M 116.48 131.12 L 123.52 131.12 L 120 135.52 Z" fill="#5b8def" /><ellipse cx="113.84" cy="102.52" rx="4.4" ry="6.6" fill="#fff" opacity="0.45"/><path d="M 120 135.52 q 11 19.8 -4.4 39.6 q -11 15.4 6.6 35.2" stroke="#b58b6a" stroke-width="1.6" fill="none"/></g><g class="enter"><g class="bob"><ellipse cx="240" cy="301.6" rx="35.1" ry="10.53" fill="rgba(90,60,30,0.13)" /><ellipse cx="228.3" cy="299" rx="8.84" ry="7.280000000000001" fill="#7a5436" /><ellipse cx="251.7" cy="299" rx="8.84" ry="7.280000000000001" fill="#7a5436" /><ellipse cx="240" cy="274.3" rx="23.92" ry="26.52" fill="#b9824f" /><ellipse cx="240" cy="278.46000000000004" rx="15.079999999999998" ry="18.2" fill="#ecd2ac" /><line x1="219.72" y1="270.40000000000003" x2="214.52" y2="287.3" stroke="#b9824f" stroke-width="11.96" stroke-linecap="round"/><line x1="258.2" y1="269.1" x2="271.2" y2="235.3" stroke="#b9824f" stroke-width="11.96" stroke-linecap="round"/><circle cx="221.28" cy="213.2" r="10.4" fill="#b9824f" /><circle cx="221.28" cy="213.2" r="5.2" fill="#ecd2ac" /><circle cx="258.72" cy="213.2" r="10.4" fill="#b9824f" /><circle cx="258.72" cy="213.2" r="5.2" fill="#ecd2ac" /><circle cx="240" cy="234" r="26" fill="#b9824f" /><ellipse cx="231.16" cy="223.6" rx="8.32" ry="5.72" fill="rgba(255,255,255,0.4)" /><ellipse cx="240" cy="241.8" rx="15.6" ry="11.96" fill="#ecd2ac" /><circle cx="231.16" cy="232.96" r="3.12" fill="#4a3526" /><circle cx="248.84" cy="232.96" r="3.12" fill="#4a3526" /><circle cx="232.096" cy="231.9616" r="1.0608000000000002" fill="#ffffff" /><circle cx="249.776" cy="231.9616" r="1.0608000000000002" fill="#ffffff" /><ellipse cx="240" cy="237.12" rx="3.38" ry="2.6" fill="#7a5436" /><path d="M 234.8 242.84 Q 240 248.04 245.2 242.84" stroke="#4a3526" stroke-width="2" fill="none" stroke-linecap="round"/><circle cx="224.92000000000002" cy="239.2" r="3.9" fill="#f29bb0" opacity="0.7"/><circle cx="255.07999999999998" cy="239.2" r="3.9" fill="#f29bb0" opacity="0.7"/></g></g><g class="flutter"><ellipse cx="174" cy="127" rx="5.5" ry="7" fill="#ffc4a0" /><ellipse cx="186" cy="127" rx="5.5" ry="7" fill="#ffc4a0" /><ellipse cx="174.5" cy="135.5" rx="4.2" ry="5" fill="#ffc4a0" opacity="0.85"/><ellipse cx="185.5" cy="135.5" rx="4.2" ry="5" fill="#ffc4a0" opacity="0.85"/><rect x="179.2" y="124" width="1.6" height="13" rx="0.8" fill="#5b4632" /></g></svg>