<svg viewBox="0 0 480 360" xmlns="http://www.w3.org/2000/svg"><style>
.enter{animation:bpEnter .7s cubic-bezier(.2,.9,.3,1.25) both}
.bob{animation:bpBob 3s ease-in-out infinite}
.bob2{animation:bpBob 3.7s ease-in-out infinite}
.sway{animation:bpSway 4s ease-in-out infinite;transform-box:fill-box;transform-origin:bottom center}
.flutter{animation:bpFlutter 3.2s ease-in-out infinite;transform-box:fill-box;transform-origin:center}
.twinkle{animation:bpTwinkle 2.4s ease-in-out infinite;transform-box:fill-box;transform-origin:center}
.spin{animation:bpSpin 24s linear infinite;transform-box:fill-box;transform-origin:center}
@keyframes bpEnter{0%{opacity:0;transform:translateY(28px)}100%{opacity:1;transform:translateY(0)}}
@keyframes bpBob{0%,100%{transform:translateY(0)}50%{transform:translateY(-6px)}}
@keyframes bpSway{0%,100%{transform:rotate(-3.5deg)}50%{transform:rotate(3.5deg)}}
@keyframes bpFlutter{0%{transform:translate(0,0) rotate(-7deg)}50%{transform:translate(12px,-14px) rotate(7deg)}100%{transform:translate(0,0) rotate(-7deg)}}
@keyframes bpTwinkle{0%,100%{opacity:.55;transform:scale(.8)}50%{opacity:1;transform:scale(1.18)}}
@keyframes bpSpin{to{transform:rotate(360deg)}}
@media(prefers-reduced-motion:reduce){.enter,.bob,.bob2,.sway,.flutter,.twinkle,.spin{animation:none}}
</style><defs><linearGradient id="sky" x1="0" y1="0" x2="0" y2="1"><stop offset="0" stop-color="#bfe6ff"/><stop offset="1" stop-color="#eaf7ff"/></linearGradient><linearGradient id="grass" x1="0" y1="0" x2="0" y2="1"><stop offset="0" stop-color="#9ad36f"/><stop offset="1" stop-color="#84c457"/></linearGradient></defs><rect x="0" y="0" width="480" height="360" rx="0" fill="url(#sky)" /><circle cx="410" cy="56" r="48" fill="#ffe89a" opacity="0.45"/><g class="spin"><line x1="450.5" y1="56" x2="461" y2="56" stroke="#ffe89a" stroke-width="5" stroke-linecap="round"/><line x1="445.07" y1="76.25" x2="454.17" y2="81.5" stroke="#ffe89a" stroke-width="5" stroke-linecap="round"/><line x1="430.25" y1="91.07" x2="435.5" y2="100.17" stroke="#ffe89a" stroke-width="5" stroke-linecap="round"/><line x1="410" y1="96.5" x2="410" y2="107" stroke="#ffe89a" stroke-width="5" stroke-linecap="round"/><line x1="389.75" y1="91.07" x2="384.5" y2="100.17" stroke="#ffe89a" stroke-width="5" stroke-linecap="round"/><line x1="374.93" y1="76.25" x2="365.83" y2="81.5" stroke="#ffe89a" stroke-width="5" stroke-linecap="round"/><line x1="369.5" y1="56" x2="359" y2="56" stroke="#ffe89a" stroke-width="5" stroke-linecap="round"/><line x1="374.93" y1="35.75" x2="365.83" y2="30.5" stroke="#ffe89a" stroke-width="5" stroke-linecap="round"/><line x1="389.75" y1="20.93" x2="384.5" y2="11.83" stroke="#ffe89a" stroke-width="5" stroke-linecap="round"/><line x1="410" y1="15.5" x2="410" y2="5" stroke="#ffe89a" stroke-width="5" stroke-linecap="round"/><line x1="430.25" y1="20.93" x2="435.5" y2="11.83" stroke="#ffe89a" stroke-width="5" stroke-linecap="round"/><line x1="445.07" y1="35.75" x2="454.17" y2="30.5" stroke="#ffe89a" stroke-width="5" stroke-linecap="round"/></g><circle cx="410" cy="56" r="30" fill="#ffd24d" /><ellipse cx="330" cy="80.4" rx="39" ry="14.3" fill="#ffffff" /><circle cx="311.8" cy="72.6" r="15.6" fill="#ffffff" /><circle cx="330" cy="62.2" r="20.28" fill="#ffffff" /><circle cx="349.5" cy="71.3" r="16.12" fill="#ffffff" /><ellipse cx="190" cy="53.2" rx="27" ry="9.9" fill="#ffffff" /><circle cx="177.4" cy="47.8" r="10.799999999999999" fill="#ffffff" /><circle cx="190" cy="40.6" r="14.040000000000001" fill="#ffffff" /><circle cx="203.5" cy="46.9" r="11.16" fill="#ffffff" /><ellipse cx="110" cy="292" rx="230" ry="130" fill="#cdeeb0" /><ellipse cx="400" cy="302" rx="240" ry="140" fill="#b2e28d" /><path d="M0 232 Q240 206 480 232 L480 360 L0 360 Z" fill="url(#grass)" /><g class="sway" style="animation-delay:0.6s"><ellipse cx="300" cy="128" rx="34" ry="40" fill="#5b8def" /><path d="M 293.6 166.4 L 306.4 166.4 L 300 174.4 Z" fill="#5b8def" /><ellipse cx="288.8" cy="114.4" rx="8" ry="12" fill="#fff" opacity="0.45"/><path d="M 300 174.4 q 20 36 -8 72 q -20 28 12 64" stroke="#b58b6a" stroke-width="1.6" fill="none"/></g><g class="enter"><g class="bob2"><ellipse cx="168" cy="320.79999999999995" rx="37.800000000000004" ry="11.340000000000002" fill="rgba(90,60,30,0.13)" /><ellipse cx="155.4" cy="318" rx="9.520000000000001" ry="7.840000000000001" fill="#7a5436" /><ellipse cx="180.6" cy="318" rx="9.520000000000001" ry="7.840000000000001" fill="#7a5436" /><ellipse cx="168" cy="291.4" rx="25.76" ry="28.560000000000002" fill="#b9824f" /><ellipse cx="168" cy="295.88" rx="16.24" ry="19.599999999999998" fill="#ecd2ac" /><line x1="146.16" y1="287.2" x2="140.56" y2="305.4" stroke="#b9824f" stroke-width="12.88" stroke-linecap="round"/><line x1="189.84" y1="287.2" x2="195.44" y2="305.4" stroke="#b9824f" stroke-width="12.88" stroke-linecap="round"/><circle cx="147.84" cy="225.6" r="11.200000000000001" fill="#b9824f" /><circle cx="147.84" cy="225.6" r="5.6000000000000005" fill="#ecd2ac" /><circle cx="188.16" cy="225.6" r="11.200000000000001" fill="#b9824f" /><circle cx="188.16" cy="225.6" r="5.6000000000000005" fill="#ecd2ac" /><circle cx="168" cy="248" r="28" fill="#b9824f" /><ellipse cx="158.48" cy="236.8" rx="8.96" ry="6.16" fill="rgba(255,255,255,0.4)" /><ellipse cx="168" cy="256.4" rx="16.8" ry="12.88" fill="#ecd2ac" /><circle cx="158.48" cy="246.88" r="3.36" fill="#4a3526" /><circle cx="177.52" cy="246.88" r="3.36" fill="#4a3526" /><circle cx="159.488" cy="245.8048" r="1.1424" fill="#ffffff" /><circle cx="178.52800000000002" cy="245.8048" r="1.1424" fill="#ffffff" /><ellipse cx="168" cy="251.36" rx="3.64" ry="2.8000000000000003" fill="#7a5436" /><path d="M 162.4 257.52 Q 168 263.12 173.6 257.52" stroke="#4a3526" stroke-width="2" fill="none" stroke-linecap="round"/><circle cx="151.76" cy="253.6" r="4.2" fill="#f29bb0" opacity="0.7"/><circle cx="184.24" cy="253.6" r="4.2" fill="#f29bb0" opacity="0.7"/></g></g><g class="sway" style="animation-delay:0.9s"><circle cx="133" cy="318" r="9.3" fill="#7ec9f0" /><circle cx="122.63525491562422" cy="332.2658477444273" r="9.3" fill="#7ec9f0" /><circle cx="105.86474508437578" cy="326.8167787843871" r="9.3" fill="#7ec9f0" /><circle cx="105.86474508437578" cy="309.1832212156129" r="9.3" fill="#7ec9f0" /><circle cx="122.6352549156242" cy="303.73415225557267" r="9.3" fill="#7ec9f0" /><circle cx="118" cy="318" r="8.25" fill="#ffe14d" /></g><g class="sway" style="animation-delay:1.2s"><circle cx="68" cy="346" r="4.96" fill="#b58bff" /><circle cx="62.47213595499958" cy="353.60845213036123" r="4.96" fill="#b58bff" /><circle cx="53.52786404500042" cy="350.70228201833976" r="4.96" fill="#b58bff" /><circle cx="53.52786404500042" cy="341.29771798166024" r="4.96" fill="#b58bff" /><circle cx="62.47213595499958" cy="338.39154786963877" r="4.96" fill="#b58bff" /><circle cx="60" cy="346" r="4.4" fill="#ffe14d" /></g><g class="flutter"><ellipse cx="373.4" cy="126.7" rx="6.050000000000001" ry="7.699999999999999" fill="#7ec9f0" /><ellipse cx="386.6" cy="126.7" rx="6.050000000000001" ry="7.699999999999999" fill="#7ec9f0" /><ellipse cx="373.95" cy="136.05" rx="4.62" ry="5.5" fill="#7ec9f0" opacity="0.85"/><ellipse cx="386.05" cy="136.05" rx="4.62" ry="5.5" fill="#7ec9f0" opacity="0.85"/><rect x="379.12" y="123.4" width="1.76" height="14.3" rx="0.88" fill="#5b4632" /></g></svg>