<svg viewBox="0 0 480 360" xmlns="http://www.w3.org/2000/svg"><style>
.enter{animation:bpEnter .7s cubic-bezier(.2,.9,.3,1.25) both}
.bob{animation:bpBob 3s ease-in-out infinite}
.bob2{animation:bpBob 3.7s ease-in-out infinite}
.sway{animation:bpSway 4s ease-in-out infinite;transform-box:fill-box;transform-origin:bottom center}
.flutter{animation:bpFlutter 3.2s ease-in-out infinite;transform-box:fill-box;transform-origin:center}
.twinkle{animation:bpTwinkle 2.4s ease-in-out infinite;transform-box:fill-box;transform-origin:center}
.spin{animation:bpSpin 24s linear infinite;transform-box:fill-box;transform-origin:center}
@keyframes bpEnter{0%{opacity:0;transform:translateY(28px)}100%{opacity:1;transform:translateY(0)}}
@keyframes bpBob{0%,100%{transform:translateY(0)}50%{transform:translateY(-6px)}}
@keyframes bpSway{0%,100%{transform:rotate(-3.5deg)}50%{transform:rotate(3.5deg)}}
@keyframes bpFlutter{0%{transform:translate(0,0) rotate(-7deg)}50%{transform:translate(12px,-14px) rotate(7deg)}100%{transform:translate(0,0) rotate(-7deg)}}
@keyframes bpTwinkle{0%,100%{opacity:.55;transform:scale(.8)}50%{opacity:1;transform:scale(1.18)}}
@keyframes bpSpin{to{transform:rotate(360deg)}}
@media(prefers-reduced-motion:reduce){.enter,.bob,.bob2,.sway,.flutter,.twinkle,.spin{animation:none}}
</style><defs><linearGradient id="sky" x1="0" y1="0" x2="0" y2="1"><stop offset="0" stop-color="#bfe6ff"/><stop offset="1" stop-color="#eaf7ff"/></linearGradient><linearGradient id="grass" x1="0" y1="0" x2="0" y2="1"><stop offset="0" stop-color="#9ad36f"/><stop offset="1" stop-color="#84c457"/></linearGradient></defs><rect x="0" y="0" width="480" height="360" rx="0" fill="url(#sky)" /><circle cx="410" cy="56" r="48" fill="#ffe89a" opacity="0.45"/><g class="spin"><line x1="450.5" y1="56" x2="461" y2="56" stroke="#ffe89a" stroke-width="5" stroke-linecap="round"/><line x1="445.07" y1="76.25" x2="454.17" y2="81.5" stroke="#ffe89a" stroke-width="5" stroke-linecap="round"/><line x1="430.25" y1="91.07" x2="435.5" y2="100.17" stroke="#ffe89a" stroke-width="5" stroke-linecap="round"/><line x1="410" y1="96.5" x2="410" y2="107" stroke="#ffe89a" stroke-width="5" stroke-linecap="round"/><line x1="389.75" y1="91.07" x2="384.5" y2="100.17" stroke="#ffe89a" stroke-width="5" stroke-linecap="round"/><line x1="374.93" y1="76.25" x2="365.83" y2="81.5" stroke="#ffe89a" stroke-width="5" stroke-linecap="round"/><line x1="369.5" y1="56" x2="359" y2="56" stroke="#ffe89a" stroke-width="5" stroke-linecap="round"/><line x1="374.93" y1="35.75" x2="365.83" y2="30.5" stroke="#ffe89a" stroke-width="5" stroke-linecap="round"/><line x1="389.75" y1="20.93" x2="384.5" y2="11.83" stroke="#ffe89a" stroke-width="5" stroke-linecap="round"/><line x1="410" y1="15.5" x2="410" y2="5" stroke="#ffe89a" stroke-width="5" stroke-linecap="round"/><line x1="430.25" y1="20.93" x2="435.5" y2="11.83" stroke="#ffe89a" stroke-width="5" stroke-linecap="round"/><line x1="445.07" y1="35.75" x2="454.17" y2="30.5" stroke="#ffe89a" stroke-width="5" stroke-linecap="round"/></g><circle cx="410" cy="56" r="30" fill="#ffd24d" /><ellipse cx="330" cy="80.4" rx="39" ry="14.3" fill="#ffffff" /><circle cx="311.8" cy="72.6" r="15.6" fill="#ffffff" /><circle cx="330" cy="62.2" r="20.28" fill="#ffffff" /><circle cx="349.5" cy="71.3" r="16.12" fill="#ffffff" /><ellipse cx="190" cy="53.2" rx="27" ry="9.9" fill="#ffffff" /><circle cx="177.4" cy="47.8" r="10.799999999999999" fill="#ffffff" /><circle cx="190" cy="40.6" r="14.040000000000001" fill="#ffffff" /><circle cx="203.5" cy="46.9" r="11.16" fill="#ffffff" /><ellipse cx="110" cy="292" rx="230" ry="130" fill="#cdeeb0" /><ellipse cx="400" cy="302" rx="240" ry="140" fill="#b2e28d" /><path d="M0 232 Q240 206 480 232 L480 360 L0 360 Z" fill="url(#grass)" /><g class="sway" style="animation-delay:0s"><ellipse cx="140" cy="118" rx="22.099999999999998" ry="26" fill="#e8483f" /><path d="M 135.84 142.96 L 144.16 142.96 L 140 148.16 Z" fill="#e8483f" /><ellipse cx="132.72" cy="109.16" rx="5.2" ry="7.8" fill="#fff" opacity="0.45"/><path d="M 140 148.16 q 13 23.4 -5.2 46.8 q -13 18.2 7.8 41.6" stroke="#b58b6a" stroke-width="1.6" fill="none"/></g><g class="sway" style="animation-delay:0.3s"><ellipse cx="238" cy="98" rx="22.099999999999998" ry="26" fill="#5b8def" /><path d="M 233.84 122.96 L 242.16 122.96 L 238 128.16 Z" fill="#5b8def" /><ellipse cx="230.72" cy="89.16" rx="5.2" ry="7.8" fill="#fff" opacity="0.45"/><path d="M 238 128.16 q 13 23.4 -5.2 46.8 q -13 18.2 7.8 41.6" stroke="#b58b6a" stroke-width="1.6" fill="none"/></g><g class="sway" style="animation-delay:0.6s"><ellipse cx="336" cy="122" rx="22.099999999999998" ry="26" fill="#ffcf4d" /><path d="M 331.84 146.96 L 340.16 146.96 L 336 152.16 Z" fill="#ffcf4d" /><ellipse cx="328.72" cy="113.16" rx="5.2" ry="7.8" fill="#fff" opacity="0.45"/><path d="M 336 152.16 q 13 23.4 -5.2 46.8 q -13 18.2 7.8 41.6" stroke="#b58b6a" stroke-width="1.6" fill="none"/></g><g class="enter"><g class="bob2"><ellipse cx="240" cy="328" rx="40.5" ry="12.15" fill="rgba(90,60,30,0.13)" /><ellipse cx="226.5" cy="325" rx="10.200000000000001" ry="8.4" fill="#7a5436" /><ellipse cx="253.5" cy="325" rx="10.200000000000001" ry="8.4" fill="#7a5436" /><ellipse cx="240" cy="296.5" rx="27.6" ry="30.6" fill="#b9824f" /><ellipse cx="240" cy="301.3" rx="17.4" ry="21" fill="#ecd2ac" /><line x1="216.6" y1="292" x2="210.6" y2="311.5" stroke="#b9824f" stroke-width="13.8" stroke-linecap="round"/><line x1="261" y1="290.5" x2="276" y2="251.5" stroke="#b9824f" stroke-width="13.8" stroke-linecap="round"/><circle cx="218.4" cy="226" r="12" fill="#b9824f" /><circle cx="218.4" cy="226" r="6" fill="#ecd2ac" /><circle cx="261.6" cy="226" r="12" fill="#b9824f" /><circle cx="261.6" cy="226" r="6" fill="#ecd2ac" /><circle cx="240" cy="250" r="30" fill="#b9824f" /><ellipse cx="229.8" cy="238" rx="9.6" ry="6.6" fill="rgba(255,255,255,0.4)" /><ellipse cx="240" cy="259" rx="18" ry="13.8" fill="#ecd2ac" /><circle cx="229.8" cy="248.8" r="3.5999999999999996" fill="#4a3526" /><circle cx="250.2" cy="248.8" r="3.5999999999999996" fill="#4a3526" /><circle cx="230.88000000000002" cy="247.64800000000002" r="1.224" fill="#ffffff" /><circle cx="251.28" cy="247.64800000000002" r="1.224" fill="#ffffff" /><ellipse cx="240" cy="253.6" rx="3.9000000000000004" ry="3" fill="#7a5436" /><path d="M 234 260.2 Q 240 266.2 246 260.2" stroke="#4a3526" stroke-width="2" fill="none" stroke-linecap="round"/><circle cx="222.6" cy="256" r="4.5" fill="#f29bb0" opacity="0.7"/><circle cx="257.4" cy="256" r="4.5" fill="#f29bb0" opacity="0.7"/></g></g><g class="sway" style="animation-delay:0.9s"><circle cx="72" cy="342" r="4.96" fill="#ff8fb3" /><circle cx="66.47213595499957" cy="349.60845213036123" r="4.96" fill="#ff8fb3" /><circle cx="57.52786404500042" cy="346.70228201833976" r="4.96" fill="#ff8fb3" /><circle cx="57.52786404500042" cy="337.29771798166024" r="4.96" fill="#ff8fb3" /><circle cx="66.47213595499957" cy="334.39154786963877" r="4.96" fill="#ff8fb3" /><circle cx="64" cy="342" r="4.4" fill="#ffe14d" /></g><g class="sway" style="animation-delay:1.2s"><circle cx="432" cy="344" r="4.96" fill="#b58bff" /><circle cx="426.4721359549996" cy="351.60845213036123" r="4.96" fill="#b58bff" /><circle cx="417.5278640450004" cy="348.70228201833976" r="4.96" fill="#b58bff" /><circle cx="417.5278640450004" cy="339.29771798166024" r="4.96" fill="#b58bff" /><circle cx="426.4721359549996" cy="336.39154786963877" r="4.96" fill="#b58bff" /><circle cx="424" cy="344" r="4.4" fill="#ffe14d" /></g></svg>