<svg viewBox="0 0 480 360" xmlns="http://www.w3.org/2000/svg"><style>
.enter{animation:bpEnter .7s cubic-bezier(.2,.9,.3,1.25) both}
.bob{animation:bpBob 3s ease-in-out infinite}
.bob2{animation:bpBob 3.7s ease-in-out infinite}
.sway{animation:bpSway 4s ease-in-out infinite;transform-box:fill-box;transform-origin:bottom center}
.flutter{animation:bpFlutter 3.2s ease-in-out infinite;transform-box:fill-box;transform-origin:center}
.twinkle{animation:bpTwinkle 2.4s ease-in-out infinite;transform-box:fill-box;transform-origin:center}
.spin{animation:bpSpin 24s linear infinite;transform-box:fill-box;transform-origin:center}
@keyframes bpEnter{0%{opacity:0;transform:translateY(28px)}100%{opacity:1;transform:translateY(0)}}
@keyframes bpBob{0%,100%{transform:translateY(0)}50%{transform:translateY(-6px)}}
@keyframes bpSway{0%,100%{transform:rotate(-3.5deg)}50%{transform:rotate(3.5deg)}}
@keyframes bpFlutter{0%{transform:translate(0,0) rotate(-7deg)}50%{transform:translate(12px,-14px) rotate(7deg)}100%{transform:translate(0,0) rotate(-7deg)}}
@keyframes bpTwinkle{0%,100%{opacity:.55;transform:scale(.8)}50%{opacity:1;transform:scale(1.18)}}
@keyframes bpSpin{to{transform:rotate(360deg)}}
@media(prefers-reduced-motion:reduce){.enter,.bob,.bob2,.sway,.flutter,.twinkle,.spin{animation:none}}
</style><defs><linearGradient id="sky" x1="0" y1="0" x2="0" y2="1"><stop offset="0" stop-color="#bfe6ff"/><stop offset="1" stop-color="#eaf7ff"/></linearGradient><linearGradient id="grass" x1="0" y1="0" x2="0" y2="1"><stop offset="0" stop-color="#9ad36f"/><stop offset="1" stop-color="#84c457"/></linearGradient></defs><rect x="0" y="0" width="480" height="360" rx="0" fill="url(#sky)" /><circle cx="240" cy="48" r="48" fill="#ffe89a" opacity="0.45"/><g class="spin"><line x1="280.5" y1="48" x2="291" y2="48" stroke="#ffe89a" stroke-width="5" stroke-linecap="round"/><line x1="275.07" y1="68.25" x2="284.17" y2="73.5" stroke="#ffe89a" stroke-width="5" stroke-linecap="round"/><line x1="260.25" y1="83.07" x2="265.5" y2="92.17" stroke="#ffe89a" stroke-width="5" stroke-linecap="round"/><line x1="240" y1="88.5" x2="240" y2="99" stroke="#ffe89a" stroke-width="5" stroke-linecap="round"/><line x1="219.75" y1="83.07" x2="214.5" y2="92.17" stroke="#ffe89a" stroke-width="5" stroke-linecap="round"/><line x1="204.93" y1="68.25" x2="195.83" y2="73.5" stroke="#ffe89a" stroke-width="5" stroke-linecap="round"/><line x1="199.5" y1="48" x2="189" y2="48" stroke="#ffe89a" stroke-width="5" stroke-linecap="round"/><line x1="204.93" y1="27.75" x2="195.83" y2="22.5" stroke="#ffe89a" stroke-width="5" stroke-linecap="round"/><line x1="219.75" y1="12.93" x2="214.5" y2="3.83" stroke="#ffe89a" stroke-width="5" stroke-linecap="round"/><line x1="240" y1="7.5" x2="240" y2="-3" stroke="#ffe89a" stroke-width="5" stroke-linecap="round"/><line x1="260.25" y1="12.93" x2="265.5" y2="3.83" stroke="#ffe89a" stroke-width="5" stroke-linecap="round"/><line x1="275.07" y1="27.75" x2="284.17" y2="22.5" stroke="#ffe89a" stroke-width="5" stroke-linecap="round"/></g><circle cx="240" cy="48" r="30" fill="#ffd24d" /><ellipse cx="330" cy="80.4" rx="39" ry="14.3" fill="#ffffff" /><circle cx="311.8" cy="72.6" r="15.6" fill="#ffffff" /><circle cx="330" cy="62.2" r="20.28" fill="#ffffff" /><circle cx="349.5" cy="71.3" r="16.12" fill="#ffffff" /><ellipse cx="190" cy="53.2" rx="27" ry="9.9" fill="#ffffff" /><circle cx="177.4" cy="47.8" r="10.799999999999999" fill="#ffffff" /><circle cx="190" cy="40.6" r="14.040000000000001" fill="#ffffff" /><circle cx="203.5" cy="46.9" r="11.16" fill="#ffffff" /><ellipse cx="110" cy="292" rx="230" ry="130" fill="#cdeeb0" /><ellipse cx="400" cy="302" rx="240" ry="140" fill="#b2e28d" /><path d="M0 232 Q240 206 480 232 L480 360 L0 360 Z" fill="url(#grass)" /><ellipse cx="424" cy="285.7" rx="51" ry="15.299999999999999" fill="rgba(90,60,30,0.13)" /><rect x="390" y="243.2" width="68" height="44.2" rx="3.4000000000000004" fill="#ffe0b0" /><path d="M 383.2 243.2 L 424 210.9 L 464.8 243.2 Z" fill="#e07a5a" /><rect x="413.12" y="261.56" width="21.76" height="25.84" rx="2.72" fill="#b07a4e" /><circle cx="430.8" cy="275.16" r="2.3800000000000003" fill="#ffd24d" /><rect x="397.48" y="253.4" width="13.600000000000001" height="13.600000000000001" rx="2.04" fill="#bfe6ff" /><rect x="436.92" y="253.4" width="13.600000000000001" height="13.600000000000001" rx="2.04" fill="#bfe6ff" /><line x1="404.28" y1="253.4" x2="404.28" y2="267" stroke="#9a6840" stroke-width="2" stroke-linecap="round"/><line x1="397.48" y1="260.2" x2="411.08" y2="260.2" stroke="#9a6840" stroke-width="2" stroke-linecap="round"/><circle cx="424" cy="228.92000000000002" r="5.44" fill="#fff" opacity="0.7"/><g class="enter"><g class="bob2"><ellipse cx="96" cy="304.20000000000005" rx="36.45" ry="10.935" fill="rgba(90,60,30,0.13)" /><ellipse cx="83.85" cy="301.5" rx="9.180000000000001" ry="7.5600000000000005" fill="#7a5436" /><ellipse cx="108.15" cy="301.5" rx="9.180000000000001" ry="7.5600000000000005" fill="#7a5436" /><ellipse cx="96" cy="275.85" rx="24.84" ry="27.54" fill="#b9824f" /><ellipse cx="96" cy="280.17" rx="15.659999999999998" ry="18.9" fill="#ecd2ac" /><line x1="74.94" y1="271.8" x2="69.53999999999999" y2="289.35" stroke="#b9824f" stroke-width="12.42" stroke-linecap="round"/><line x1="114.9" y1="270.45000000000005" x2="128.4" y2="235.35" stroke="#b9824f" stroke-width="12.42" stroke-linecap="round"/><circle cx="76.56" cy="212.4" r="10.8" fill="#b9824f" /><circle cx="76.56" cy="212.4" r="5.4" fill="#ecd2ac" /><circle cx="115.44" cy="212.4" r="10.8" fill="#b9824f" /><circle cx="115.44" cy="212.4" r="5.4" fill="#ecd2ac" /><circle cx="96" cy="234" r="27" fill="#b9824f" /><ellipse cx="86.82" cy="223.2" rx="8.64" ry="5.94" fill="rgba(255,255,255,0.4)" /><ellipse cx="96" cy="242.1" rx="16.2" ry="12.42" fill="#ecd2ac" /><circle cx="86.82" cy="232.92" r="3.2399999999999998" fill="#4a3526" /><circle cx="105.18" cy="232.92" r="3.2399999999999998" fill="#4a3526" /><circle cx="87.79199999999999" cy="231.8832" r="1.1016" fill="#ffffff" /><circle cx="106.152" cy="231.8832" r="1.1016" fill="#ffffff" /><ellipse cx="96" cy="237.24" rx="3.5100000000000002" ry="2.7" fill="#7a5436" /><path d="M 90.6 243.18 Q 96 248.58 101.4 243.18" stroke="#4a3526" stroke-width="2" fill="none" stroke-linecap="round"/><circle cx="80.34" cy="239.4" r="4.05" fill="#f29bb0" opacity="0.7"/><circle cx="111.66" cy="239.4" r="4.05" fill="#f29bb0" opacity="0.7"/><circle cx="86.172" cy="232.92" r="7.937999999999999" fill="none" stroke="#5b4632" stroke-width="2.268"/><circle cx="105.828" cy="232.92" r="7.937999999999999" fill="none" stroke="#5b4632" stroke-width="2.268"/><line x1="94.11" y1="232.92" x2="97.89" y2="232.92" stroke="#5b4632" stroke-width="1.89" stroke-linecap="round"/><path d="M 96 269.1 l -12.15 -8.1 l 0 16.2 Z" fill="#5b8def" /><path d="M 96 269.1 l 12.15 -8.1 l 0 16.2 Z" fill="#5b8def" /><rect x="93.57" y="265.32000000000005" width="4.859999999999999" height="7.5600000000000005" rx="1.08" fill="#3f63b0" /></g></g><g class="enter"><g class="bob"><ellipse cx="206" cy="305" rx="33.75" ry="10.125" fill="rgba(90,60,30,0.13)" /><ellipse cx="194.75" cy="302.5" rx="8.5" ry="7.000000000000001" fill="#7a5436" /><ellipse cx="217.25" cy="302.5" rx="8.5" ry="7.000000000000001" fill="#7a5436" /><ellipse cx="206" cy="278.75" rx="23" ry="25.5" fill="#b9824f" /><ellipse cx="206" cy="282.75" rx="14.499999999999998" ry="17.5" fill="#ecd2ac" /><line x1="186.5" y1="275" x2="181.5" y2="291.25" stroke="#b9824f" stroke-width="11.5" stroke-linecap="round"/><line x1="225.5" y1="275" x2="230.5" y2="291.25" stroke="#b9824f" stroke-width="11.5" stroke-linecap="round"/><circle cx="188" cy="220" r="10" fill="#b9824f" /><circle cx="188" cy="220" r="5" fill="#ecd2ac" /><circle cx="224" cy="220" r="10" fill="#b9824f" /><circle cx="224" cy="220" r="5" fill="#ecd2ac" /><circle cx="206" cy="240" r="25" fill="#b9824f" /><ellipse cx="197.5" cy="230" rx="8" ry="5.5" fill="rgba(255,255,255,0.4)" /><ellipse cx="206" cy="247.5" rx="15" ry="11.5" fill="#ecd2ac" /><circle cx="197.5" cy="239" r="3" fill="#4a3526" /><circle cx="214.5" cy="239" r="3" fill="#4a3526" /><circle cx="198.4" cy="238.04" r="1.02" fill="#ffffff" /><circle cx="215.4" cy="238.04" r="1.02" fill="#ffffff" /><ellipse cx="206" cy="243" rx="3.25" ry="2.5" fill="#7a5436" /><path d="M 201 248.5 Q 206 253.5 211 248.5" stroke="#4a3526" stroke-width="2" fill="none" stroke-linecap="round"/><circle cx="191.5" cy="245" r="3.75" fill="#f29bb0" opacity="0.7"/><circle cx="220.5" cy="245" r="3.75" fill="#f29bb0" opacity="0.7"/><path d="M 223.5 219.5 l -10 -7 l 0 14 Z" fill="#ff7fb0" /><path d="M 223.5 219.5 l 10 -7 l 0 14 Z" fill="#ff7fb0" /><circle cx="223.5" cy="219.5" r="3.4000000000000004" fill="#fff" opacity="0.85"/></g></g><g class="enter"><g class="bob2"><ellipse cx="312" cy="305.4" rx="25.650000000000002" ry="7.695" fill="rgba(90,60,30,0.13)" /><ellipse cx="303.45" cy="303.5" rx="6.460000000000001" ry="5.32" fill="#7a5436" /><ellipse cx="320.55" cy="303.5" rx="6.460000000000001" ry="5.32" fill="#7a5436" /><ellipse cx="312" cy="285.45" rx="17.48" ry="19.38" fill="#b9824f" /><ellipse cx="312" cy="288.49" rx="11.02" ry="13.299999999999999" fill="#ecd2ac" /><line x1="297.18" y1="282.59999999999997" x2="293.38" y2="294.95" stroke="#b9824f" stroke-width="8.74" stroke-linecap="round"/><line x1="326.82" y1="282.59999999999997" x2="330.62" y2="294.95" stroke="#b9824f" stroke-width="8.74" stroke-linecap="round"/><circle cx="298.32" cy="240.8" r="7.6000000000000005" fill="#b9824f" /><circle cx="298.32" cy="240.8" r="3.8000000000000003" fill="#ecd2ac" /><circle cx="325.68" cy="240.8" r="7.6000000000000005" fill="#b9824f" /><circle cx="325.68" cy="240.8" r="3.8000000000000003" fill="#ecd2ac" /><circle cx="312" cy="256" r="19" fill="#b9824f" /><ellipse cx="305.54" cy="248.4" rx="6.08" ry="4.18" fill="rgba(255,255,255,0.4)" /><ellipse cx="312" cy="261.7" rx="11.4" ry="8.74" fill="#ecd2ac" /><circle cx="305.54" cy="255.24" r="2.28" fill="#4a3526" /><circle cx="318.46" cy="255.24" r="2.28" fill="#4a3526" /><circle cx="306.22400000000005" cy="254.5104" r="0.7752" fill="#ffffff" /><circle cx="319.144" cy="254.5104" r="0.7752" fill="#ffffff" /><ellipse cx="312" cy="258.28" rx="2.47" ry="1.9000000000000001" fill="#7a5436" /><path d="M 308.2 262.46 Q 312 266.26 315.8 262.46" stroke="#4a3526" stroke-width="2" fill="none" stroke-linecap="round"/><circle cx="300.98" cy="259.8" r="2.85" fill="#f29bb0" opacity="0.7"/><circle cx="323.02" cy="259.8" r="2.85" fill="#f29bb0" opacity="0.7"/><path d="M 302.5 275.95 Q 312 284.5 321.5 275.95 Z" fill="#bfe6ff" /><circle cx="312" cy="237.95" r="3.04" fill="#ffe14d" /></g></g><g class="sway" style="animation-delay:0s"><circle cx="56" cy="344" r="4.96" fill="#ff8fb3" /><circle cx="50.47213595499958" cy="351.60845213036123" r="4.96" fill="#ff8fb3" /><circle cx="41.52786404500042" cy="348.70228201833976" r="4.96" fill="#ff8fb3" /><circle cx="41.52786404500042" cy="339.29771798166024" r="4.96" fill="#ff8fb3" /><circle cx="50.47213595499958" cy="336.39154786963877" r="4.96" fill="#ff8fb3" /><circle cx="48" cy="344" r="4.4" fill="#ffe14d" /></g><g class="flutter"><ellipse cx="163.4" cy="114.7" rx="6.050000000000001" ry="7.699999999999999" fill="#ffb0d4" /><ellipse cx="176.6" cy="114.7" rx="6.050000000000001" ry="7.699999999999999" fill="#ffb0d4" /><ellipse cx="163.95" cy="124.05" rx="4.62" ry="5.5" fill="#ffb0d4" opacity="0.85"/><ellipse cx="176.05" cy="124.05" rx="4.62" ry="5.5" fill="#ffb0d4" opacity="0.85"/><rect x="169.12" y="111.4" width="1.76" height="14.3" rx="0.88" fill="#5b4632" /></g></svg>