<svg viewBox="0 0 480 360" xmlns="http://www.w3.org/2000/svg"><style>
.enter{animation:bpEnter .7s cubic-bezier(.2,.9,.3,1.25) both}
.bob{animation:bpBob 3s ease-in-out infinite}
.bob2{animation:bpBob 3.7s ease-in-out infinite}
.sway{animation:bpSway 4s ease-in-out infinite;transform-box:fill-box;transform-origin:bottom center}
.flutter{animation:bpFlutter 3.2s ease-in-out infinite;transform-box:fill-box;transform-origin:center}
.twinkle{animation:bpTwinkle 2.4s ease-in-out infinite;transform-box:fill-box;transform-origin:center}
.spin{animation:bpSpin 24s linear infinite;transform-box:fill-box;transform-origin:center}
@keyframes bpEnter{0%{opacity:0;transform:translateY(28px)}100%{opacity:1;transform:translateY(0)}}
@keyframes bpBob{0%,100%{transform:translateY(0)}50%{transform:translateY(-6px)}}
@keyframes bpSway{0%,100%{transform:rotate(-3.5deg)}50%{transform:rotate(3.5deg)}}
@keyframes bpFlutter{0%{transform:translate(0,0) rotate(-7deg)}50%{transform:translate(12px,-14px) rotate(7deg)}100%{transform:translate(0,0) rotate(-7deg)}}
@keyframes bpTwinkle{0%,100%{opacity:.55;transform:scale(.8)}50%{opacity:1;transform:scale(1.18)}}
@keyframes bpSpin{to{transform:rotate(360deg)}}
@media(prefers-reduced-motion:reduce){.enter,.bob,.bob2,.sway,.flutter,.twinkle,.spin{animation:none}}
</style><defs><linearGradient id="sky" x1="0" y1="0" x2="0" y2="1"><stop offset="0" stop-color="#bfe6ff"/><stop offset="1" stop-color="#eaf7ff"/></linearGradient><linearGradient id="grass" x1="0" y1="0" x2="0" y2="1"><stop offset="0" stop-color="#9ad36f"/><stop offset="1" stop-color="#84c457"/></linearGradient></defs><rect x="0" y="0" width="480" height="360" rx="0" fill="url(#sky)" /><circle cx="240" cy="56" r="48" fill="#ffe89a" opacity="0.45"/><g class="spin"><line x1="280.5" y1="56" x2="291" y2="56" stroke="#ffe89a" stroke-width="5" stroke-linecap="round"/><line x1="275.07" y1="76.25" x2="284.17" y2="81.5" stroke="#ffe89a" stroke-width="5" stroke-linecap="round"/><line x1="260.25" y1="91.07" x2="265.5" y2="100.17" stroke="#ffe89a" stroke-width="5" stroke-linecap="round"/><line x1="240" y1="96.5" x2="240" y2="107" stroke="#ffe89a" stroke-width="5" stroke-linecap="round"/><line x1="219.75" y1="91.07" x2="214.5" y2="100.17" stroke="#ffe89a" stroke-width="5" stroke-linecap="round"/><line x1="204.93" y1="76.25" x2="195.83" y2="81.5" stroke="#ffe89a" stroke-width="5" stroke-linecap="round"/><line x1="199.5" y1="56" x2="189" y2="56" stroke="#ffe89a" stroke-width="5" stroke-linecap="round"/><line x1="204.93" y1="35.75" x2="195.83" y2="30.5" stroke="#ffe89a" stroke-width="5" stroke-linecap="round"/><line x1="219.75" y1="20.93" x2="214.5" y2="11.83" stroke="#ffe89a" stroke-width="5" stroke-linecap="round"/><line x1="240" y1="15.5" x2="240" y2="5" stroke="#ffe89a" stroke-width="5" stroke-linecap="round"/><line x1="260.25" y1="20.93" x2="265.5" y2="11.83" stroke="#ffe89a" stroke-width="5" stroke-linecap="round"/><line x1="275.07" y1="35.75" x2="284.17" y2="30.5" stroke="#ffe89a" stroke-width="5" stroke-linecap="round"/></g><circle cx="240" cy="56" r="30" fill="#ffd24d" /><ellipse cx="330" cy="80.4" rx="39" ry="14.3" fill="#ffffff" /><circle cx="311.8" cy="72.6" r="15.6" fill="#ffffff" /><circle cx="330" cy="62.2" r="20.28" fill="#ffffff" /><circle cx="349.5" cy="71.3" r="16.12" fill="#ffffff" /><ellipse cx="190" cy="53.2" rx="27" ry="9.9" fill="#ffffff" /><circle cx="177.4" cy="47.8" r="10.799999999999999" fill="#ffffff" /><circle cx="190" cy="40.6" r="14.040000000000001" fill="#ffffff" /><circle cx="203.5" cy="46.9" r="11.16" fill="#ffffff" /><ellipse cx="110" cy="292" rx="230" ry="130" fill="#cdeeb0" /><ellipse cx="400" cy="302" rx="240" ry="140" fill="#b2e28d" /><path d="M0 232 Q240 206 480 232 L480 360 L0 360 Z" fill="url(#grass)" /><g class="enter"><g class="bob2"><ellipse cx="110" cy="311.6" rx="35.1" ry="10.53" fill="rgba(90,60,30,0.13)" /><ellipse cx="98.3" cy="309" rx="8.84" ry="7.280000000000001" fill="#7a5436" /><ellipse cx="121.7" cy="309" rx="8.84" ry="7.280000000000001" fill="#7a5436" /><ellipse cx="110" cy="284.3" rx="23.92" ry="26.52" fill="#b9824f" /><ellipse cx="110" cy="288.46000000000004" rx="15.079999999999998" ry="18.2" fill="#ecd2ac" /><line x1="89.72" y1="280.40000000000003" x2="84.52" y2="297.3" stroke="#b9824f" stroke-width="11.96" stroke-linecap="round"/><line x1="130.28" y1="280.40000000000003" x2="135.48" y2="297.3" stroke="#b9824f" stroke-width="11.96" stroke-linecap="round"/><circle cx="91.28" cy="223.2" r="10.4" fill="#b9824f" /><circle cx="91.28" cy="223.2" r="5.2" fill="#ecd2ac" /><circle cx="128.72" cy="223.2" r="10.4" fill="#b9824f" /><circle cx="128.72" cy="223.2" r="5.2" fill="#ecd2ac" /><circle cx="110" cy="244" r="26" fill="#b9824f" /><ellipse cx="101.16" cy="233.6" rx="8.32" ry="5.72" fill="rgba(255,255,255,0.4)" /><ellipse cx="110" cy="251.8" rx="15.6" ry="11.96" fill="#ecd2ac" /><circle cx="101.16" cy="242.96" r="3.12" fill="#4a3526" /><circle cx="118.84" cy="242.96" r="3.12" fill="#4a3526" /><circle cx="102.096" cy="241.9616" r="1.0608000000000002" fill="#ffffff" /><circle cx="119.77600000000001" cy="241.9616" r="1.0608000000000002" fill="#ffffff" /><ellipse cx="110" cy="247.12" rx="3.38" ry="2.6" fill="#7a5436" /><path d="M 104.8 252.84 Q 110 258.04 115.2 252.84" stroke="#4a3526" stroke-width="2" fill="none" stroke-linecap="round"/><circle cx="94.92" cy="249.2" r="3.9" fill="#f29bb0" opacity="0.7"/><circle cx="125.08" cy="249.2" r="3.9" fill="#f29bb0" opacity="0.7"/><path d="M 128.2 222.68 l -10.4 -7.279999999999999 l 0 14.559999999999999 Z" fill="#ff7fb0" /><path d="M 128.2 222.68 l 10.4 -7.279999999999999 l 0 14.559999999999999 Z" fill="#ff7fb0" /><circle cx="128.2" cy="222.68" r="3.5360000000000005" fill="#fff" opacity="0.85"/></g></g><g class="enter"><g class="bob"><ellipse cx="256" cy="315.20000000000005" rx="29.700000000000003" ry="8.91" fill="rgba(90,60,30,0.13)" /><ellipse cx="246.1" cy="313" rx="7.48" ry="6.16" fill="#7a5436" /><ellipse cx="265.9" cy="313" rx="7.48" ry="6.16" fill="#7a5436" /><ellipse cx="256" cy="292.1" rx="20.240000000000002" ry="22.44" fill="#b9824f" /><ellipse cx="256" cy="295.62" rx="12.76" ry="15.399999999999999" fill="#ecd2ac" /><line x1="238.84" y1="288.8" x2="234.44" y2="303.1" stroke="#b9824f" stroke-width="10.120000000000001" stroke-linecap="round"/><line x1="273.16" y1="288.8" x2="277.56" y2="303.1" stroke="#b9824f" stroke-width="10.120000000000001" stroke-linecap="round"/><circle cx="240.16" cy="240.4" r="8.8" fill="#b9824f" /><circle cx="240.16" cy="240.4" r="4.4" fill="#ecd2ac" /><circle cx="271.84" cy="240.4" r="8.8" fill="#b9824f" /><circle cx="271.84" cy="240.4" r="4.4" fill="#ecd2ac" /><circle cx="256" cy="258" r="22" fill="#b9824f" /><ellipse cx="248.52" cy="249.2" rx="7.04" ry="4.84" fill="rgba(255,255,255,0.4)" /><ellipse cx="256" cy="264.6" rx="13.2" ry="10.120000000000001" fill="#ecd2ac" /><circle cx="248.52" cy="257.12" r="2.6399999999999997" fill="#4a3526" /><circle cx="263.48" cy="257.12" r="2.6399999999999997" fill="#4a3526" /><circle cx="249.312" cy="256.2752" r="0.8976" fill="#ffffff" /><circle cx="264.272" cy="256.2752" r="0.8976" fill="#ffffff" /><ellipse cx="256" cy="260.64" rx="2.8600000000000003" ry="2.2" fill="#7a5436" /><path d="M 251.6 265.48 Q 256 269.88 260.4 265.48" stroke="#4a3526" stroke-width="2" fill="none" stroke-linecap="round"/><circle cx="243.24" cy="262.4" r="3.3" fill="#f29bb0" opacity="0.7"/><circle cx="268.76" cy="262.4" r="3.3" fill="#f29bb0" opacity="0.7"/><path d="M 245 281.1 Q 256 291 267 281.1 Z" fill="#bfe6ff" /><circle cx="256" cy="237.1" r="3.52" fill="#ffe14d" /></g></g><clipPath id="ball372_300"><circle cx="372" cy="300" r="20"/></clipPath><ellipse cx="372" cy="320" rx="19" ry="5.7" fill="rgba(90,60,30,0.13)" /><circle cx="372" cy="300" r="20" fill="#ef6aa6" /><ellipse cx="372" cy="300" rx="6.800000000000001" ry="20" fill="#ffd24d" clip-path="url(#ball372_300)"/><ellipse cx="362" cy="300" rx="3.5999999999999996" ry="20" fill="#fff" opacity="0.5" clip-path="url(#ball372_300)"/><ellipse cx="382" cy="300" rx="3.5999999999999996" ry="20" fill="#fff" opacity="0.5" clip-path="url(#ball372_300)"/><ellipse cx="365.6" cy="293.2" rx="5.2" ry="3.5999999999999996" fill="#fff" opacity="0.6"/><g class="sway" style="animation-delay:1.2s"><circle cx="68" cy="342" r="4.96" fill="#b58bff" /><circle cx="62.47213595499958" cy="349.60845213036123" r="4.96" fill="#b58bff" /><circle cx="53.52786404500042" cy="346.70228201833976" r="4.96" fill="#b58bff" /><circle cx="53.52786404500042" cy="337.29771798166024" r="4.96" fill="#b58bff" /><circle cx="62.47213595499958" cy="334.39154786963877" r="4.96" fill="#b58bff" /><circle cx="60" cy="342" r="4.4" fill="#ffe14d" /></g><g class="flutter"><ellipse cx="183.4" cy="116.7" rx="6.050000000000001" ry="7.699999999999999" fill="#ffb0d4" /><ellipse cx="196.6" cy="116.7" rx="6.050000000000001" ry="7.699999999999999" fill="#ffb0d4" /><ellipse cx="183.95" cy="126.05" rx="4.62" ry="5.5" fill="#ffb0d4" opacity="0.85"/><ellipse cx="196.05" cy="126.05" rx="4.62" ry="5.5" fill="#ffb0d4" opacity="0.85"/><rect x="189.12" y="113.4" width="1.76" height="14.3" rx="0.88" fill="#5b4632" /></g></svg>