<svg viewBox="0 0 480 360" xmlns="http://www.w3.org/2000/svg"><style>
.enter{animation:bpEnter .7s cubic-bezier(.2,.9,.3,1.25) both}
.bob{animation:bpBob 3s ease-in-out infinite}
.bob2{animation:bpBob 3.7s ease-in-out infinite}
.sway{animation:bpSway 4s ease-in-out infinite;transform-box:fill-box;transform-origin:bottom center}
.flutter{animation:bpFlutter 3.2s ease-in-out infinite;transform-box:fill-box;transform-origin:center}
.twinkle{animation:bpTwinkle 2.4s ease-in-out infinite;transform-box:fill-box;transform-origin:center}
.spin{animation:bpSpin 24s linear infinite;transform-box:fill-box;transform-origin:center}
@keyframes bpEnter{0%{opacity:0;transform:translateY(28px)}100%{opacity:1;transform:translateY(0)}}
@keyframes bpBob{0%,100%{transform:translateY(0)}50%{transform:translateY(-6px)}}
@keyframes bpSway{0%,100%{transform:rotate(-3.5deg)}50%{transform:rotate(3.5deg)}}
@keyframes bpFlutter{0%{transform:translate(0,0) rotate(-7deg)}50%{transform:translate(12px,-14px) rotate(7deg)}100%{transform:translate(0,0) rotate(-7deg)}}
@keyframes bpTwinkle{0%,100%{opacity:.55;transform:scale(.8)}50%{opacity:1;transform:scale(1.18)}}
@keyframes bpSpin{to{transform:rotate(360deg)}}
@media(prefers-reduced-motion:reduce){.enter,.bob,.bob2,.sway,.flutter,.twinkle,.spin{animation:none}}
</style><defs><linearGradient id="sky" x1="0" y1="0" x2="0" y2="1"><stop offset="0" stop-color="#bfe6ff"/><stop offset="1" stop-color="#eaf7ff"/></linearGradient><linearGradient id="grass" x1="0" y1="0" x2="0" y2="1"><stop offset="0" stop-color="#9ad36f"/><stop offset="1" stop-color="#84c457"/></linearGradient></defs><rect x="0" y="0" width="480" height="360" rx="0" fill="url(#sky)" /><circle cx="410" cy="56" r="48" fill="#ffe89a" opacity="0.45"/><g class="spin"><line x1="450.5" y1="56" x2="461" y2="56" stroke="#ffe89a" stroke-width="5" stroke-linecap="round"/><line x1="445.07" y1="76.25" x2="454.17" y2="81.5" stroke="#ffe89a" stroke-width="5" stroke-linecap="round"/><line x1="430.25" y1="91.07" x2="435.5" y2="100.17" stroke="#ffe89a" stroke-width="5" stroke-linecap="round"/><line x1="410" y1="96.5" x2="410" y2="107" stroke="#ffe89a" stroke-width="5" stroke-linecap="round"/><line x1="389.75" y1="91.07" x2="384.5" y2="100.17" stroke="#ffe89a" stroke-width="5" stroke-linecap="round"/><line x1="374.93" y1="76.25" x2="365.83" y2="81.5" stroke="#ffe89a" stroke-width="5" stroke-linecap="round"/><line x1="369.5" y1="56" x2="359" y2="56" stroke="#ffe89a" stroke-width="5" stroke-linecap="round"/><line x1="374.93" y1="35.75" x2="365.83" y2="30.5" stroke="#ffe89a" stroke-width="5" stroke-linecap="round"/><line x1="389.75" y1="20.93" x2="384.5" y2="11.83" stroke="#ffe89a" stroke-width="5" stroke-linecap="round"/><line x1="410" y1="15.5" x2="410" y2="5" stroke="#ffe89a" stroke-width="5" stroke-linecap="round"/><line x1="430.25" y1="20.93" x2="435.5" y2="11.83" stroke="#ffe89a" stroke-width="5" stroke-linecap="round"/><line x1="445.07" y1="35.75" x2="454.17" y2="30.5" stroke="#ffe89a" stroke-width="5" stroke-linecap="round"/></g><circle cx="410" cy="56" r="30" fill="#ffd24d" /><ellipse cx="330" cy="80.4" rx="39" ry="14.3" fill="#ffffff" /><circle cx="311.8" cy="72.6" r="15.6" fill="#ffffff" /><circle cx="330" cy="62.2" r="20.28" fill="#ffffff" /><circle cx="349.5" cy="71.3" r="16.12" fill="#ffffff" /><ellipse cx="190" cy="53.2" rx="27" ry="9.9" fill="#ffffff" /><circle cx="177.4" cy="47.8" r="10.799999999999999" fill="#ffffff" /><circle cx="190" cy="40.6" r="14.040000000000001" fill="#ffffff" /><circle cx="203.5" cy="46.9" r="11.16" fill="#ffffff" /><ellipse cx="110" cy="292" rx="230" ry="130" fill="#cdeeb0" /><ellipse cx="400" cy="302" rx="240" ry="140" fill="#b2e28d" /><path d="M0 232 Q240 206 480 232 L480 360 L0 360 Z" fill="url(#grass)" /><ellipse cx="66" cy="239.5" rx="27" ry="8.1" fill="rgba(90,60,30,0.13)" /><rect x="61.2" y="193" width="9.6" height="48" rx="3" fill="#b07a4e" /><circle cx="66" cy="181" r="28.5" fill="#5fae46" /><circle cx="45" cy="193" r="21" fill="#7cc35e" /><circle cx="87" cy="193" r="21.599999999999998" fill="#7cc35e" /><circle cx="66" cy="178" r="24" fill="#7cc35e" /><ellipse cx="57" cy="172" rx="12" ry="8.4" fill="#a3d885" opacity="0.7"/><g class="enter"><g class="bob"><ellipse cx="240" cy="327.20000000000005" rx="43.2" ry="12.96" fill="rgba(90,60,30,0.13)" /><ellipse cx="225.6" cy="324" rx="10.88" ry="8.96" fill="#7a5436" /><ellipse cx="254.4" cy="324" rx="10.88" ry="8.96" fill="#7a5436" /><ellipse cx="240" cy="293.6" rx="29.44" ry="32.64" fill="#b9824f" /><ellipse cx="240" cy="298.72" rx="18.56" ry="22.4" fill="#ecd2ac" /><line x1="215.04" y1="288.8" x2="208.64" y2="309.6" stroke="#b9824f" stroke-width="14.72" stroke-linecap="round"/><line x1="262.4" y1="287.20000000000005" x2="278.4" y2="245.6" stroke="#b9824f" stroke-width="14.72" stroke-linecap="round"/><circle cx="216.96" cy="218.4" r="12.8" fill="#b9824f" /><circle cx="216.96" cy="218.4" r="6.4" fill="#ecd2ac" /><circle cx="263.04" cy="218.4" r="12.8" fill="#b9824f" /><circle cx="263.04" cy="218.4" r="6.4" fill="#ecd2ac" /><circle cx="240" cy="244" r="32" fill="#b9824f" /><ellipse cx="229.12" cy="231.2" rx="10.24" ry="7.04" fill="rgba(255,255,255,0.4)" /><ellipse cx="240" cy="253.6" rx="19.2" ry="14.72" fill="#ecd2ac" /><circle cx="229.12" cy="242.72" r="3.84" fill="#4a3526" /><circle cx="250.88" cy="242.72" r="3.84" fill="#4a3526" /><circle cx="230.272" cy="241.4912" r="1.3056" fill="#ffffff" /><circle cx="252.03199999999998" cy="241.4912" r="1.3056" fill="#ffffff" /><ellipse cx="240" cy="247.84" rx="4.16" ry="3.2" fill="#7a5436" /><path d="M 233.6 254.88 Q 240 261.28 246.4 254.88" stroke="#4a3526" stroke-width="2" fill="none" stroke-linecap="round"/><circle cx="221.44" cy="250.4" r="4.8" fill="#f29bb0" opacity="0.7"/><circle cx="258.56" cy="250.4" r="4.8" fill="#f29bb0" opacity="0.7"/><circle cx="228.352" cy="242.72" r="9.408" fill="none" stroke="#5b4632" stroke-width="2.6879999999999997"/><circle cx="251.648" cy="242.72" r="9.408" fill="none" stroke="#5b4632" stroke-width="2.6879999999999997"/><line x1="237.76" y1="242.72" x2="242.24" y2="242.72" stroke="#5b4632" stroke-width="2.2399999999999998" stroke-linecap="round"/><path d="M 240 285.6 l -14.4 -9.6 l 0 19.2 Z" fill="#5b8def" /><path d="M 240 285.6 l 14.4 -9.6 l 0 19.2 Z" fill="#5b8def" /><rect x="237.12" y="281.12" width="5.76" height="8.96" rx="1.28" fill="#3f63b0" /></g></g><g class="sway" style="animation-delay:0.9s"><circle cx="428" cy="346" r="4.96" fill="#ffd24d" /><circle cx="422.4721359549996" cy="353.60845213036123" r="4.96" fill="#ffd24d" /><circle cx="413.5278640450004" cy="350.70228201833976" r="4.96" fill="#ffd24d" /><circle cx="413.5278640450004" cy="341.29771798166024" r="4.96" fill="#ffd24d" /><circle cx="422.4721359549996" cy="338.39154786963877" r="4.96" fill="#ffd24d" /><circle cx="420" cy="346" r="4.4" fill="#ffe14d" /></g><g class="flutter"><ellipse cx="133.4" cy="124.7" rx="6.050000000000001" ry="7.699999999999999" fill="#ffb0d4" /><ellipse cx="146.6" cy="124.7" rx="6.050000000000001" ry="7.699999999999999" fill="#ffb0d4" /><ellipse cx="133.95" cy="134.05" rx="4.62" ry="5.5" fill="#ffb0d4" opacity="0.85"/><ellipse cx="146.05" cy="134.05" rx="4.62" ry="5.5" fill="#ffb0d4" opacity="0.85"/><rect x="139.12" y="121.4" width="1.76" height="14.3" rx="0.88" fill="#5b4632" /></g></svg>