<svg viewBox="0 0 480 360" xmlns="http://www.w3.org/2000/svg"><style>
.enter{animation:bpEnter .7s cubic-bezier(.2,.9,.3,1.25) both}
.bob{animation:bpBob 3s ease-in-out infinite}
.bob2{animation:bpBob 3.7s ease-in-out infinite}
.sway{animation:bpSway 4s ease-in-out infinite;transform-box:fill-box;transform-origin:bottom center}
.flutter{animation:bpFlutter 3.2s ease-in-out infinite;transform-box:fill-box;transform-origin:center}
.twinkle{animation:bpTwinkle 2.4s ease-in-out infinite;transform-box:fill-box;transform-origin:center}
.spin{animation:bpSpin 24s linear infinite;transform-box:fill-box;transform-origin:center}
@keyframes bpEnter{0%{opacity:0;transform:translateY(28px)}100%{opacity:1;transform:translateY(0)}}
@keyframes bpBob{0%,100%{transform:translateY(0)}50%{transform:translateY(-6px)}}
@keyframes bpSway{0%,100%{transform:rotate(-3.5deg)}50%{transform:rotate(3.5deg)}}
@keyframes bpFlutter{0%{transform:translate(0,0) rotate(-7deg)}50%{transform:translate(12px,-14px) rotate(7deg)}100%{transform:translate(0,0) rotate(-7deg)}}
@keyframes bpTwinkle{0%,100%{opacity:.55;transform:scale(.8)}50%{opacity:1;transform:scale(1.18)}}
@keyframes bpSpin{to{transform:rotate(360deg)}}
@media(prefers-reduced-motion:reduce){.enter,.bob,.bob2,.sway,.flutter,.twinkle,.spin{animation:none}}
</style><defs><linearGradient id="sky" x1="0" y1="0" x2="0" y2="1"><stop offset="0" stop-color="#2b2c63"/><stop offset="0.6" stop-color="#4a4a8c"/><stop offset="1" stop-color="#7b6aa6"/></linearGradient><linearGradient id="grass" x1="0" y1="0" x2="0" y2="1"><stop offset="0" stop-color="#46617a"/><stop offset="1" stop-color="#374f63"/></linearGradient></defs><rect x="0" y="0" width="480" height="360" rx="0" fill="url(#sky)" /><g class="twinkle" style="animation-delay:0.7s"><path d="M 40 36 L 41.04 38.96 L 44 40 L 41.04 41.04 L 40 44 L 38.96 41.04 L 36 40 L 38.96 38.96 Z" fill="#fff3c4" /></g><g class="twinkle" style="animation-delay:1.05s"><path d="M 90 77 L 90.78 79.22 L 93 80 L 90.78 80.78 L 90 83 L 89.22 80.78 L 87 80 L 89.22 79.22 Z" fill="#fff3c4" /></g><g class="twinkle" style="animation-delay:1.4s"><path d="M 150 47 L 151.3 50.7 L 155 52 L 151.3 53.3 L 150 57 L 148.7 53.3 L 145 52 L 148.7 50.7 Z" fill="#fff3c4" /></g><g class="twinkle" style="animation-delay:1.75s"><path d="M 210 89 L 210.78 91.22 L 213 92 L 210.78 92.78 L 210 95 L 209.22 92.78 L 207 92 L 209.22 91.22 Z" fill="#fff3c4" /></g><g class="twinkle" style="animation-delay:0s"><path d="M 300 42 L 301.04 44.96 L 304 46 L 301.04 47.04 L 300 50 L 298.96 47.04 L 296 46 L 298.96 44.96 Z" fill="#fff3c4" /></g><g class="twinkle" style="animation-delay:0.35s"><path d="M 360 83 L 360.78 85.22 L 363 86 L 360.78 86.78 L 360 89 L 359.22 86.78 L 357 86 L 359.22 85.22 Z" fill="#fff3c4" /></g><g class="twinkle" style="animation-delay:0.7s"><path d="M 430 51 L 431.3 54.7 L 435 56 L 431.3 57.3 L 430 61 L 428.7 57.3 L 425 56 L 428.7 54.7 Z" fill="#fff3c4" /></g><g class="twinkle" style="animation-delay:1.05s"><path d="M 462 109 L 462.78 111.22 L 465 112 L 462.78 112.78 L 462 115 L 461.22 112.78 L 459 112 L 461.22 111.22 Z" fill="#fff3c4" /></g><g class="twinkle" style="animation-delay:1.4s"><path d="M 120 121 L 120.78 123.22 L 123 124 L 120.78 124.78 L 120 127 L 119.22 124.78 L 117 124 L 119.22 123.22 Z" fill="#fff3c4" /></g><g class="twinkle" style="animation-delay:1.75s"><path d="M 255 37 L 255.78 39.22 L 258 40 L 255.78 40.78 L 255 43 L 254.22 40.78 L 252 40 L 254.22 39.22 Z" fill="#fff3c4" /></g><g class="twinkle" style="animation-delay:0s"><path d="M 402 120 L 403.04 122.96 L 406 124 L 403.04 125.04 L 402 128 L 400.96 125.04 L 398 124 L 400.96 122.96 Z" fill="#fff3c4" /></g><g class="twinkle" style="animation-delay:0.35s"><path d="M 72 147 L 72.78 149.22 L 75 150 L 72.78 150.78 L 72 153 L 71.22 150.78 L 69 150 L 71.22 149.22 Z" fill="#fff3c4" /></g><circle cx="392" cy="80" r="58.9" fill="#fff6d8" opacity="0.3"/><circle cx="392" cy="80" r="38" fill="#fdf3c4" /><circle cx="379.84" cy="73.16" r="6.84" fill="#e7d9a8" opacity="0.6"/><circle cx="402.64" cy="91.4" r="4.94" fill="#e7d9a8" opacity="0.55"/><circle cx="396.56" cy="64.04" r="3.8000000000000003" fill="#e7d9a8" opacity="0.5"/><ellipse cx="110" cy="296" rx="230" ry="130" fill="#3f4f7a" /><ellipse cx="400" cy="306" rx="240" ry="140" fill="#586591" /><path d="M0 236 Q240 212 480 236 L480 360 L0 360 Z" fill="url(#grass)" /><g class="enter"><g class="bob"><ellipse cx="116" cy="301" rx="33.75" ry="10.125" fill="rgba(90,60,30,0.13)" /><ellipse cx="104.75" cy="298.5" rx="8.5" ry="7.000000000000001" fill="#7a5436" /><ellipse cx="127.25" cy="298.5" rx="8.5" ry="7.000000000000001" fill="#7a5436" /><ellipse cx="116" cy="274.75" rx="23" ry="25.5" fill="#b9824f" /><ellipse cx="116" cy="278.75" rx="14.499999999999998" ry="17.5" fill="#ecd2ac" /><line x1="96.5" y1="271" x2="91.5" y2="287.25" stroke="#b9824f" stroke-width="11.5" stroke-linecap="round"/><line x1="133.5" y1="269.75" x2="146" y2="237.25" stroke="#b9824f" stroke-width="11.5" stroke-linecap="round"/><circle cx="98" cy="216" r="10" fill="#b9824f" /><circle cx="98" cy="216" r="5" fill="#ecd2ac" /><circle cx="134" cy="216" r="10" fill="#b9824f" /><circle cx="134" cy="216" r="5" fill="#ecd2ac" /><circle cx="116" cy="236" r="25" fill="#b9824f" /><ellipse cx="107.5" cy="226" rx="8" ry="5.5" fill="rgba(255,255,255,0.4)" /><ellipse cx="116" cy="243.5" rx="15" ry="11.5" fill="#ecd2ac" /><circle cx="107.5" cy="235" r="3" fill="#4a3526" /><circle cx="124.5" cy="235" r="3" fill="#4a3526" /><circle cx="108.4" cy="234.04" r="1.02" fill="#ffffff" /><circle cx="125.4" cy="234.04" r="1.02" fill="#ffffff" /><ellipse cx="116" cy="239" rx="3.25" ry="2.5" fill="#7a5436" /><path d="M 111 244.5 Q 116 249.5 121 244.5" stroke="#4a3526" stroke-width="2" fill="none" stroke-linecap="round"/><circle cx="101.5" cy="241" r="3.75" fill="#f29bb0" opacity="0.7"/><circle cx="130.5" cy="241" r="3.75" fill="#f29bb0" opacity="0.7"/><circle cx="106.9" cy="235" r="7.35" fill="none" stroke="#5b4632" stroke-width="2.1"/><circle cx="125.1" cy="235" r="7.35" fill="none" stroke="#5b4632" stroke-width="2.1"/><line x1="114.25" y1="235" x2="117.75" y2="235" stroke="#5b4632" stroke-width="1.75" stroke-linecap="round"/><path d="M 116 268.5 l -11.25 -7.5 l 0 15 Z" fill="#5b8def" /><path d="M 116 268.5 l 11.25 -7.5 l 0 15 Z" fill="#5b8def" /><rect x="113.75" y="265" width="4.5" height="7.000000000000001" rx="1" fill="#3f63b0" /></g></g><g class="enter"><g class="bob2"><ellipse cx="216" cy="302.4" rx="32.400000000000006" ry="9.72" fill="rgba(90,60,30,0.13)" /><ellipse cx="205.2" cy="300" rx="8.16" ry="6.720000000000001" fill="#7a5436" /><ellipse cx="226.8" cy="300" rx="8.16" ry="6.720000000000001" fill="#7a5436" /><ellipse cx="216" cy="277.2" rx="22.080000000000002" ry="24.48" fill="#b9824f" /><ellipse cx="216" cy="281.03999999999996" rx="13.919999999999998" ry="16.799999999999997" fill="#ecd2ac" /><line x1="197.28" y1="273.59999999999997" x2="192.48" y2="289.2" stroke="#b9824f" stroke-width="11.040000000000001" stroke-linecap="round"/><line x1="234.72" y1="273.59999999999997" x2="239.52" y2="289.2" stroke="#b9824f" stroke-width="11.040000000000001" stroke-linecap="round"/><circle cx="198.72" cy="220.8" r="9.600000000000001" fill="#b9824f" /><circle cx="198.72" cy="220.8" r="4.800000000000001" fill="#ecd2ac" /><circle cx="233.28" cy="220.8" r="9.600000000000001" fill="#b9824f" /><circle cx="233.28" cy="220.8" r="4.800000000000001" fill="#ecd2ac" /><circle cx="216" cy="240" r="24" fill="#b9824f" /><ellipse cx="207.84" cy="230.4" rx="7.68" ry="5.28" fill="rgba(255,255,255,0.4)" /><ellipse cx="216" cy="247.2" rx="14.399999999999999" ry="11.040000000000001" fill="#ecd2ac" /><circle cx="207.84" cy="239.04" r="2.88" fill="#4a3526" /><circle cx="224.16" cy="239.04" r="2.88" fill="#4a3526" /><circle cx="208.704" cy="238.11839999999998" r="0.9792000000000001" fill="#ffffff" /><circle cx="225.024" cy="238.11839999999998" r="0.9792000000000001" fill="#ffffff" /><ellipse cx="216" cy="242.88" rx="3.12" ry="2.4000000000000004" fill="#7a5436" /><path d="M 211.2 248.16 Q 216 252.96 220.8 248.16" stroke="#4a3526" stroke-width="2" fill="none" stroke-linecap="round"/><circle cx="202.08" cy="244.8" r="3.5999999999999996" fill="#f29bb0" opacity="0.7"/><circle cx="229.92" cy="244.8" r="3.5999999999999996" fill="#f29bb0" opacity="0.7"/><path d="M 232.8 220.32 l -9.600000000000001 -6.720000000000001 l 0 13.440000000000001 Z" fill="#ff7fb0" /><path d="M 232.8 220.32 l 9.600000000000001 -6.720000000000001 l 0 13.440000000000001 Z" fill="#ff7fb0" /><circle cx="232.8" cy="220.32" r="3.2640000000000007" fill="#fff" opacity="0.85"/></g></g><g class="enter"><g class="bob"><ellipse cx="316" cy="302.79999999999995" rx="24.3" ry="7.29" fill="rgba(90,60,30,0.13)" /><ellipse cx="307.9" cy="301" rx="6.12" ry="5.040000000000001" fill="#7a5436" /><ellipse cx="324.1" cy="301" rx="6.12" ry="5.040000000000001" fill="#7a5436" /><ellipse cx="316" cy="283.9" rx="16.560000000000002" ry="18.36" fill="#b9824f" /><ellipse cx="316" cy="286.78" rx="10.44" ry="12.6" fill="#ecd2ac" /><line x1="301.96" y1="281.2" x2="298.36" y2="292.9" stroke="#b9824f" stroke-width="8.280000000000001" stroke-linecap="round"/><line x1="330.04" y1="281.2" x2="333.64" y2="292.9" stroke="#b9824f" stroke-width="8.280000000000001" stroke-linecap="round"/><circle cx="303.04" cy="241.6" r="7.2" fill="#b9824f" /><circle cx="303.04" cy="241.6" r="3.6" fill="#ecd2ac" /><circle cx="328.96" cy="241.6" r="7.2" fill="#b9824f" /><circle cx="328.96" cy="241.6" r="3.6" fill="#ecd2ac" /><circle cx="316" cy="256" r="18" fill="#b9824f" /><ellipse cx="309.88" cy="248.8" rx="5.76" ry="3.96" fill="rgba(255,255,255,0.4)" /><ellipse cx="316" cy="261.4" rx="10.799999999999999" ry="8.280000000000001" fill="#ecd2ac" /><circle cx="309.88" cy="255.28" r="2.16" fill="#4a3526" /><circle cx="322.12" cy="255.28" r="2.16" fill="#4a3526" /><circle cx="310.528" cy="254.5888" r="0.7344" fill="#ffffff" /><circle cx="322.76800000000003" cy="254.5888" r="0.7344" fill="#ffffff" /><ellipse cx="316" cy="258.16" rx="2.34" ry="1.8" fill="#7a5436" /><path d="M 312.4 262.12 Q 316 265.72 319.6 262.12" stroke="#4a3526" stroke-width="2" fill="none" stroke-linecap="round"/><circle cx="305.56" cy="259.6" r="2.6999999999999997" fill="#f29bb0" opacity="0.7"/><circle cx="326.44" cy="259.6" r="2.6999999999999997" fill="#f29bb0" opacity="0.7"/><path d="M 307 274.9 Q 316 283 325 274.9 Z" fill="#bfe6ff" /><circle cx="316" cy="238.9" r="2.88" fill="#ffe14d" /></g></g></svg>