<svg viewBox="0 0 480 360" xmlns="http://www.w3.org/2000/svg"><style>
.enter{animation:bpEnter .7s cubic-bezier(.2,.9,.3,1.25) both}
.bob{animation:bpBob 3s ease-in-out infinite}
.bob2{animation:bpBob 3.7s ease-in-out infinite}
.sway{animation:bpSway 4s ease-in-out infinite;transform-box:fill-box;transform-origin:bottom center}
.flutter{animation:bpFlutter 3.2s ease-in-out infinite;transform-box:fill-box;transform-origin:center}
.twinkle{animation:bpTwinkle 2.4s ease-in-out infinite;transform-box:fill-box;transform-origin:center}
.spin{animation:bpSpin 24s linear infinite;transform-box:fill-box;transform-origin:center}
@keyframes bpEnter{0%{opacity:0;transform:translateY(28px)}100%{opacity:1;transform:translateY(0)}}
@keyframes bpBob{0%,100%{transform:translateY(0)}50%{transform:translateY(-6px)}}
@keyframes bpSway{0%,100%{transform:rotate(-3.5deg)}50%{transform:rotate(3.5deg)}}
@keyframes bpFlutter{0%{transform:translate(0,0) rotate(-7deg)}50%{transform:translate(12px,-14px) rotate(7deg)}100%{transform:translate(0,0) rotate(-7deg)}}
@keyframes bpTwinkle{0%,100%{opacity:.55;transform:scale(.8)}50%{opacity:1;transform:scale(1.18)}}
@keyframes bpSpin{to{transform:rotate(360deg)}}
@media(prefers-reduced-motion:reduce){.enter,.bob,.bob2,.sway,.flutter,.twinkle,.spin{animation:none}}
</style><defs><linearGradient id="sky" x1="0" y1="0" x2="0" y2="1"><stop offset="0" stop-color="#bfe6ff"/><stop offset="1" stop-color="#eaf7ff"/></linearGradient><linearGradient id="grass" x1="0" y1="0" x2="0" y2="1"><stop offset="0" stop-color="#9ad36f"/><stop offset="1" stop-color="#84c457"/></linearGradient></defs><rect x="0" y="0" width="480" height="360" rx="0" fill="url(#sky)" /><circle cx="70" cy="56" r="48" fill="#ffe89a" opacity="0.45"/><g class="spin"><line x1="110.5" y1="56" x2="121" y2="56" stroke="#ffe89a" stroke-width="5" stroke-linecap="round"/><line x1="105.07" y1="76.25" x2="114.17" y2="81.5" stroke="#ffe89a" stroke-width="5" stroke-linecap="round"/><line x1="90.25" y1="91.07" x2="95.5" y2="100.17" stroke="#ffe89a" stroke-width="5" stroke-linecap="round"/><line x1="70" y1="96.5" x2="70" y2="107" stroke="#ffe89a" stroke-width="5" stroke-linecap="round"/><line x1="49.75" y1="91.07" x2="44.5" y2="100.17" stroke="#ffe89a" stroke-width="5" stroke-linecap="round"/><line x1="34.93" y1="76.25" x2="25.83" y2="81.5" stroke="#ffe89a" stroke-width="5" stroke-linecap="round"/><line x1="29.5" y1="56" x2="19" y2="56" stroke="#ffe89a" stroke-width="5" stroke-linecap="round"/><line x1="34.93" y1="35.75" x2="25.83" y2="30.5" stroke="#ffe89a" stroke-width="5" stroke-linecap="round"/><line x1="49.75" y1="20.93" x2="44.5" y2="11.83" stroke="#ffe89a" stroke-width="5" stroke-linecap="round"/><line x1="70" y1="15.5" x2="70" y2="5" stroke="#ffe89a" stroke-width="5" stroke-linecap="round"/><line x1="90.25" y1="20.93" x2="95.5" y2="11.83" stroke="#ffe89a" stroke-width="5" stroke-linecap="round"/><line x1="105.07" y1="35.75" x2="114.17" y2="30.5" stroke="#ffe89a" stroke-width="5" stroke-linecap="round"/></g><circle cx="70" cy="56" r="30" fill="#ffd24d" /><ellipse cx="330" cy="80.4" rx="39" ry="14.3" fill="#ffffff" /><circle cx="311.8" cy="72.6" r="15.6" fill="#ffffff" /><circle cx="330" cy="62.2" r="20.28" fill="#ffffff" /><circle cx="349.5" cy="71.3" r="16.12" fill="#ffffff" /><ellipse cx="190" cy="53.2" rx="27" ry="9.9" fill="#ffffff" /><circle cx="177.4" cy="47.8" r="10.799999999999999" fill="#ffffff" /><circle cx="190" cy="40.6" r="14.040000000000001" fill="#ffffff" /><circle cx="203.5" cy="46.9" r="11.16" fill="#ffffff" /><ellipse cx="110" cy="292" rx="230" ry="130" fill="#cdeeb0" /><ellipse cx="400" cy="302" rx="240" ry="140" fill="#b2e28d" /><path d="M0 232 Q240 206 480 232 L480 360 L0 360 Z" fill="url(#grass)" /><ellipse cx="372" cy="278.6" rx="78" ry="23.4" fill="rgba(90,60,30,0.13)" /><rect x="320" y="213.6" width="104" height="67.60000000000001" rx="5.2" fill="#ffe0b0" /><path d="M 309.6 213.6 L 372 164.2 L 434.4 213.6 Z" fill="#e07a5a" /><rect x="355.36" y="241.68" width="33.28" height="39.52" rx="4.16" fill="#b07a4e" /><circle cx="382.4" cy="262.48" r="3.6400000000000006" fill="#ffd24d" /><rect x="331.44" y="229.2" width="20.8" height="20.8" rx="3.12" fill="#bfe6ff" /><rect x="391.76" y="229.2" width="20.8" height="20.8" rx="3.12" fill="#bfe6ff" /><line x1="341.84000000000003" y1="229.2" x2="341.84000000000003" y2="250" stroke="#9a6840" stroke-width="2" stroke-linecap="round"/><line x1="331.44" y1="239.6" x2="352.24" y2="239.6" stroke="#9a6840" stroke-width="2" stroke-linecap="round"/><circle cx="372" cy="191.76" r="8.32" fill="#fff" opacity="0.7"/><g class="enter"><g class="bob2"><ellipse cx="110" cy="309" rx="33.75" ry="10.125" fill="rgba(90,60,30,0.13)" /><ellipse cx="98.75" cy="306.5" rx="8.5" ry="7.000000000000001" fill="#7a5436" /><ellipse cx="121.25" cy="306.5" rx="8.5" ry="7.000000000000001" fill="#7a5436" /><ellipse cx="110" cy="282.75" rx="23" ry="25.5" fill="#b9824f" /><ellipse cx="110" cy="286.75" rx="14.499999999999998" ry="17.5" fill="#ecd2ac" /><line x1="90.5" y1="279" x2="85.5" y2="295.25" stroke="#b9824f" stroke-width="11.5" stroke-linecap="round"/><line x1="129.5" y1="279" x2="134.5" y2="295.25" stroke="#b9824f" stroke-width="11.5" stroke-linecap="round"/><circle cx="92" cy="224" r="10" fill="#b9824f" /><circle cx="92" cy="224" r="5" fill="#ecd2ac" /><circle cx="128" cy="224" r="10" fill="#b9824f" /><circle cx="128" cy="224" r="5" fill="#ecd2ac" /><circle cx="110" cy="244" r="25" fill="#b9824f" /><ellipse cx="101.5" cy="234" rx="8" ry="5.5" fill="rgba(255,255,255,0.4)" /><ellipse cx="110" cy="251.5" rx="15" ry="11.5" fill="#ecd2ac" /><circle cx="101.5" cy="243" r="3" fill="#4a3526" /><circle cx="118.5" cy="243" r="3" fill="#4a3526" /><circle cx="102.4" cy="242.04" r="1.02" fill="#ffffff" /><circle cx="119.4" cy="242.04" r="1.02" fill="#ffffff" /><ellipse cx="110" cy="247" rx="3.25" ry="2.5" fill="#7a5436" /><path d="M 105 252.5 Q 110 257.5 115 252.5" stroke="#4a3526" stroke-width="2" fill="none" stroke-linecap="round"/><circle cx="95.5" cy="249" r="3.75" fill="#f29bb0" opacity="0.7"/><circle cx="124.5" cy="249" r="3.75" fill="#f29bb0" opacity="0.7"/><path d="M 127.5 223.5 l -10 -7 l 0 14 Z" fill="#ff7fb0" /><path d="M 127.5 223.5 l 10 -7 l 0 14 Z" fill="#ff7fb0" /><circle cx="127.5" cy="223.5" r="3.4000000000000004" fill="#fff" opacity="0.85"/></g></g><g class="enter"><g class="bob"><ellipse cx="206" cy="310.20000000000005" rx="36.45" ry="10.935" fill="rgba(90,60,30,0.13)" /><ellipse cx="193.85" cy="307.5" rx="9.180000000000001" ry="7.5600000000000005" fill="#7a5436" /><ellipse cx="218.15" cy="307.5" rx="9.180000000000001" ry="7.5600000000000005" fill="#7a5436" /><ellipse cx="206" cy="281.85" rx="24.84" ry="27.54" fill="#b9824f" /><ellipse cx="206" cy="286.17" rx="15.659999999999998" ry="18.9" fill="#ecd2ac" /><line x1="184.94" y1="277.8" x2="179.54" y2="295.35" stroke="#b9824f" stroke-width="12.42" stroke-linecap="round"/><line x1="227.06" y1="277.8" x2="232.46" y2="295.35" stroke="#b9824f" stroke-width="12.42" stroke-linecap="round"/><circle cx="186.56" cy="218.4" r="10.8" fill="#b9824f" /><circle cx="186.56" cy="218.4" r="5.4" fill="#ecd2ac" /><circle cx="225.44" cy="218.4" r="10.8" fill="#b9824f" /><circle cx="225.44" cy="218.4" r="5.4" fill="#ecd2ac" /><circle cx="206" cy="240" r="27" fill="#b9824f" /><ellipse cx="196.82" cy="229.2" rx="8.64" ry="5.94" fill="rgba(255,255,255,0.4)" /><ellipse cx="206" cy="248.1" rx="16.2" ry="12.42" fill="#ecd2ac" /><circle cx="196.82" cy="238.92" r="3.2399999999999998" fill="#4a3526" /><circle cx="215.18" cy="238.92" r="3.2399999999999998" fill="#4a3526" /><circle cx="197.792" cy="237.8832" r="1.1016" fill="#ffffff" /><circle cx="216.15200000000002" cy="237.8832" r="1.1016" fill="#ffffff" /><ellipse cx="206" cy="243.24" rx="3.5100000000000002" ry="2.7" fill="#7a5436" /><path d="M 200.6 249.18 Q 206 254.58 211.4 249.18" stroke="#4a3526" stroke-width="2" fill="none" stroke-linecap="round"/><circle cx="190.34" cy="245.4" r="4.05" fill="#f29bb0" opacity="0.7"/><circle cx="221.66" cy="245.4" r="4.05" fill="#f29bb0" opacity="0.7"/><circle cx="196.172" cy="238.92" r="7.937999999999999" fill="none" stroke="#5b4632" stroke-width="2.268"/><circle cx="215.828" cy="238.92" r="7.937999999999999" fill="none" stroke="#5b4632" stroke-width="2.268"/><line x1="204.11" y1="238.92" x2="207.89" y2="238.92" stroke="#5b4632" stroke-width="1.89" stroke-linecap="round"/><path d="M 206 275.1 l -12.15 -8.1 l 0 16.2 Z" fill="#5b8def" /><path d="M 206 275.1 l 12.15 -8.1 l 0 16.2 Z" fill="#5b8def" /><rect x="203.57" y="271.32000000000005" width="4.859999999999999" height="7.5600000000000005" rx="1.08" fill="#3f63b0" /></g></g><g class="sway" style="animation-delay:0.3s"><circle cx="68" cy="346" r="4.96" fill="#ff8fb3" /><circle cx="62.47213595499958" cy="353.60845213036123" r="4.96" fill="#ff8fb3" /><circle cx="53.52786404500042" cy="350.70228201833976" r="4.96" fill="#ff8fb3" /><circle cx="53.52786404500042" cy="341.29771798166024" r="4.96" fill="#ff8fb3" /><circle cx="62.47213595499958" cy="338.39154786963877" r="4.96" fill="#ff8fb3" /><circle cx="60" cy="346" r="4.4" fill="#ffe14d" /></g><g class="flutter"><ellipse cx="143.4" cy="124.7" rx="6.050000000000001" ry="7.699999999999999" fill="#ffb0d4" /><ellipse cx="156.6" cy="124.7" rx="6.050000000000001" ry="7.699999999999999" fill="#ffb0d4" /><ellipse cx="143.95" cy="134.05" rx="4.62" ry="5.5" fill="#ffb0d4" opacity="0.85"/><ellipse cx="156.05" cy="134.05" rx="4.62" ry="5.5" fill="#ffb0d4" opacity="0.85"/><rect x="149.12" y="121.4" width="1.76" height="14.3" rx="0.88" fill="#5b4632" /></g><path d="M 40 330 q -3 -10 0 -16 q 3 6 0 16 M 45 330 q -2 -8 1 -13 q 2 5 -1 13" stroke="#7ab84e" stroke-width="2.4" fill="none" stroke-linecap="round"/><path d="M 300 344 q -3 -10 0 -16 q 3 6 0 16 M 305 344 q -2 -8 1 -13 q 2 5 -1 13" stroke="#7ab84e" stroke-width="2.4" fill="none" stroke-linecap="round"/></svg>