<svg viewBox="0 0 480 360" xmlns="http://www.w3.org/2000/svg"><defs><linearGradient id="sky" x1="0" y1="0" x2="0" y2="1"><stop offset="0" stop-color="#bfe6ff"/><stop offset="1" stop-color="#eaf7ff"/></linearGradient><linearGradient id="grass" x1="0" y1="0" x2="0" y2="1"><stop offset="0" stop-color="#9ad36f"/><stop offset="1" stop-color="#84c457"/></linearGradient></defs><rect x="0" y="0" width="480" height="360" rx="0" fill="url(#sky)" /><circle cx="410" cy="56" r="48" fill="#ffe89a" opacity="0.45"/><line x1="450.5" y1="56" x2="461" y2="56" stroke="#ffe89a" stroke-width="5" stroke-linecap="round"/><line x1="445.07" y1="76.25" x2="454.17" y2="81.5" stroke="#ffe89a" stroke-width="5" stroke-linecap="round"/><line x1="430.25" y1="91.07" x2="435.5" y2="100.17" stroke="#ffe89a" stroke-width="5" stroke-linecap="round"/><line x1="410" y1="96.5" x2="410" y2="107" stroke="#ffe89a" stroke-width="5" stroke-linecap="round"/><line x1="389.75" y1="91.07" x2="384.5" y2="100.17" stroke="#ffe89a" stroke-width="5" stroke-linecap="round"/><line x1="374.93" y1="76.25" x2="365.83" y2="81.5" stroke="#ffe89a" stroke-width="5" stroke-linecap="round"/><line x1="369.5" y1="56" x2="359" y2="56" stroke="#ffe89a" stroke-width="5" stroke-linecap="round"/><line x1="374.93" y1="35.75" x2="365.83" y2="30.5" stroke="#ffe89a" stroke-width="5" stroke-linecap="round"/><line x1="389.75" y1="20.93" x2="384.5" y2="11.83" stroke="#ffe89a" stroke-width="5" stroke-linecap="round"/><line x1="410" y1="15.5" x2="410" y2="5" stroke="#ffe89a" stroke-width="5" stroke-linecap="round"/><line x1="430.25" y1="20.93" x2="435.5" y2="11.83" stroke="#ffe89a" stroke-width="5" stroke-linecap="round"/><line x1="445.07" y1="35.75" x2="454.17" y2="30.5" stroke="#ffe89a" stroke-width="5" stroke-linecap="round"/><circle cx="410" cy="56" r="30" fill="#ffd24d" /><ellipse cx="330" cy="80.4" rx="39" ry="14.3" fill="#ffffff" /><circle cx="311.8" cy="72.6" r="15.6" fill="#ffffff" /><circle cx="330" cy="62.2" r="20.28" fill="#ffffff" /><circle cx="349.5" cy="71.3" r="16.12" fill="#ffffff" /><ellipse cx="190" cy="53.2" rx="27" ry="9.9" fill="#ffffff" /><circle cx="177.4" cy="47.8" r="10.799999999999999" fill="#ffffff" /><circle cx="190" cy="40.6" r="14.040000000000001" fill="#ffffff" /><circle cx="203.5" cy="46.9" r="11.16" fill="#ffffff" /><ellipse cx="110" cy="292" rx="230" ry="130" fill="#cdeeb0" /><ellipse cx="400" cy="302" rx="240" ry="140" fill="#b2e28d" /><path d="M0 232 Q240 206 480 232 L480 360 L0 360 Z" fill="url(#grass)" /><ellipse cx="150" cy="302.9" rx="52.2" ry="15.66" fill="rgba(90,60,30,0.13)" /><rect x="140.72" y="213" width="18.56" height="92.80000000000001" rx="5.800000000000001" fill="#b07a4e" /><circle cx="150" cy="189.8" r="55.099999999999994" fill="#5fae46" /><circle cx="109.4" cy="213" r="40.599999999999994" fill="#7cc35e" /><circle cx="190.6" cy="213" r="41.76" fill="#7cc35e" /><circle cx="150" cy="184" r="46.400000000000006" fill="#7cc35e" /><ellipse cx="132.6" cy="172.39999999999998" rx="23.200000000000003" ry="16.240000000000002" fill="#a3d885" opacity="0.7"/><path d="M 107.08 203.14 Q 122.86 235.68 147.51 214.97 Q 137.65 222.86 124.83 221.87 Q 113.98 218.92 107.08 203.14 Z" fill="#ffd23e" /><path d="M 107.08 203.14 Q 122.86 235.68 147.51 214.97" fill="none" stroke="#e6a92f" stroke-width="3.1552000000000007" stroke-linecap="round"/><circle cx="107.08" cy="203.14" r="2.3664" fill="#8a6a2e" /><path d="M 156.38 197.34 Q 172.16 229.88 196.81 209.17 Q 186.95 217.06 174.13 216.07 Q 163.28 213.12 156.38 197.34 Z" fill="#ffd23e" /><path d="M 156.38 197.34 Q 172.16 229.88 196.81 209.17" fill="none" stroke="#e6a92f" stroke-width="3.1552000000000007" stroke-linecap="round"/><circle cx="156.38" cy="197.33999999999997" r="2.3664" fill="#8a6a2e" /><path d="M 92.58 174.14 Q 108.36 206.68 133.01 185.97 Q 123.15 193.86 110.33 192.87 Q 99.48 189.92 92.58 174.14 Z" fill="#ffd23e" /><path d="M 92.58 174.14 Q 108.36 206.68 133.01 185.97" fill="none" stroke="#e6a92f" stroke-width="3.1552000000000007" stroke-linecap="round"/><circle cx="92.58" cy="174.14" r="2.3664" fill="#8a6a2e" /><path d="M 141.88 165.44 Q 157.66 197.98 182.31 177.27 Q 172.45 185.16 159.63 184.17 Q 148.78 181.22 141.88 165.44 Z" fill="#ffd23e" /><path d="M 141.88 165.44 Q 157.66 197.98 182.31 177.27" fill="none" stroke="#e6a92f" stroke-width="3.1552000000000007" stroke-linecap="round"/><circle cx="141.88" cy="165.44" r="2.3664" fill="#8a6a2e" /><ellipse cx="150" cy="215" rx="31.2" ry="9.36" fill="rgba(90,60,30,0.13)" /><ellipse cx="150" cy="189" rx="21.32" ry="24.96" fill="#8d6443" /><ellipse cx="150" cy="192.12" rx="13" ry="16.12" fill="#f0d6ae" /><line x1="131.28" y1="186.4" x2="125.3" y2="200.7" stroke="#8d6443" stroke-width="10.4" stroke-linecap="round"/><line x1="165.6" y1="183.8" x2="174.7" y2="182.5" stroke="#8d6443" stroke-width="10.4" stroke-linecap="round"/><ellipse cx="139.6" cy="212.4" rx="7.280000000000001" ry="5.72" fill="#6e4d34" /><ellipse cx="160.4" cy="212.4" rx="7.280000000000001" ry="5.72" fill="#6e4d34" /><path d="M 176 222 Q 192 255 217 234 Q 207 242 194 241 Q 183 238 176 222 Z" fill="#ffd23e" /><path d="M 176 222 Q 192 255 217 234" fill="none" stroke="#e6a92f" stroke-width="3.2" stroke-linecap="round"/><circle cx="176" cy="222" r="2.4" fill="#8a6a2e" /><circle cx="126.08" cy="151.3" r="8.32" fill="#8d6443" /><circle cx="126.08" cy="151.3" r="4.42" fill="#f0d6ae" /><circle cx="173.92000000000002" cy="151.3" r="8.32" fill="#8d6443" /><circle cx="173.92000000000002" cy="151.3" r="4.42" fill="#f0d6ae" /><circle cx="150" cy="150" r="26" fill="#8d6443" /><ellipse cx="141.16" cy="139.6" rx="8.32" ry="5.72" fill="rgba(255,255,255,0.4)" /><path d="M 150 135.7 C 125.3 137 131.8 172.1 150 170.28 C 168.2 172.1 174.7 137 150 135.7 Z" fill="#f0d6ae" /><circle cx="142.2" cy="149.48" r="2.86" fill="#4a3526" /><circle cx="157.8" cy="149.48" r="2.86" fill="#4a3526" /><circle cx="143.058" cy="148.5648" r="0.9724" fill="#ffffff" /><circle cx="158.65800000000002" cy="148.5648" r="0.9724" fill="#ffffff" /><ellipse cx="150" cy="156.76" rx="4.16" ry="2.6" fill="#6e4d34" opacity="0.5"/><circle cx="147.92" cy="155.72" r="1.3" fill="#6e4d34" /><circle cx="152.08" cy="155.72" r="1.3" fill="#6e4d34" /><path d="M 144.8 159.36 Q 150 164.56 155.2 159.36" stroke="#4a3526" stroke-width="2" fill="none" stroke-linecap="round"/><circle cx="136.48" cy="154.16" r="3.38" fill="#f29bb0" opacity="0.7"/><circle cx="163.52" cy="154.16" r="3.38" fill="#f29bb0" opacity="0.7"/><ellipse cx="330" cy="322" rx="40.5" ry="12.15" fill="rgba(90,60,30,0.13)" /><ellipse cx="316.5" cy="319" rx="10.200000000000001" ry="8.4" fill="#7a5436" /><ellipse cx="343.5" cy="319" rx="10.200000000000001" ry="8.4" fill="#7a5436" /><ellipse cx="330" cy="290.5" rx="27.6" ry="30.6" fill="#b9824f" /><ellipse cx="330" cy="295.3" rx="17.4" ry="21" fill="#ecd2ac" /><line x1="306.6" y1="286" x2="300.6" y2="305.5" stroke="#b9824f" stroke-width="13.8" stroke-linecap="round"/><line x1="351" y1="284.5" x2="366" y2="245.5" stroke="#b9824f" stroke-width="13.8" stroke-linecap="round"/><circle cx="308.4" cy="220" r="12" fill="#b9824f" /><circle cx="308.4" cy="220" r="6" fill="#ecd2ac" /><circle cx="351.6" cy="220" r="12" fill="#b9824f" /><circle cx="351.6" cy="220" r="6" fill="#ecd2ac" /><circle cx="330" cy="244" r="30" fill="#b9824f" /><ellipse cx="319.8" cy="232" rx="9.6" ry="6.6" fill="rgba(255,255,255,0.4)" /><ellipse cx="330" cy="253" rx="18" ry="13.8" fill="#ecd2ac" /><circle cx="319.8" cy="242.8" r="3.5999999999999996" fill="#4a3526" /><circle cx="340.2" cy="242.8" r="3.5999999999999996" fill="#4a3526" /><circle cx="320.88" cy="241.64800000000002" r="1.224" fill="#ffffff" /><circle cx="341.28" cy="241.64800000000002" r="1.224" fill="#ffffff" /><ellipse cx="330" cy="247.6" rx="3.9000000000000004" ry="3" fill="#7a5436" /><path d="M 324 254.2 Q 330 260.2 336 254.2" stroke="#4a3526" stroke-width="2" fill="none" stroke-linecap="round"/><circle cx="312.6" cy="250" r="4.5" fill="#f29bb0" opacity="0.7"/><circle cx="347.4" cy="250" r="4.5" fill="#f29bb0" opacity="0.7"/><g><circle cx="388" cy="338" r="4.96" fill="#ff8fb3" /><circle cx="382.4721359549996" cy="345.60845213036123" r="4.96" fill="#ff8fb3" /><circle cx="373.5278640450004" cy="342.70228201833976" r="4.96" fill="#ff8fb3" /><circle cx="373.5278640450004" cy="333.29771798166024" r="4.96" fill="#ff8fb3" /><circle cx="382.4721359549996" cy="330.39154786963877" r="4.96" fill="#ff8fb3" /><circle cx="380" cy="338" r="4.4" fill="#ffe14d" /></g><g><circle cx="67" cy="340" r="4.34" fill="#b58bff" /><circle cx="62.16311896062463" cy="346.65739561406605" r="4.34" fill="#b58bff" /><circle cx="54.33688103937537" cy="344.1144967660473" r="4.34" fill="#b58bff" /><circle cx="54.33688103937537" cy="335.8855032339527" r="4.34" fill="#b58bff" /><circle cx="62.16311896062463" cy="333.3426043859339" r="4.34" fill="#b58bff" /><circle cx="60" cy="340" r="3.8500000000000005" fill="#ffe14d" /></g><ellipse cx="293.4" cy="116.7" rx="6.050000000000001" ry="7.699999999999999" fill="#ffb0d4" /><ellipse cx="306.6" cy="116.7" rx="6.050000000000001" ry="7.699999999999999" fill="#ffb0d4" /><ellipse cx="293.95" cy="126.05" rx="4.62" ry="5.5" fill="#ffb0d4" opacity="0.85"/><ellipse cx="306.05" cy="126.05" rx="4.62" ry="5.5" fill="#ffb0d4" opacity="0.85"/><rect x="299.12" y="113.4" width="1.76" height="14.3" rx="0.88" fill="#5b4632" /><path d="M 210 330 q -3 -10 0 -16 q 3 6 0 16 M 215 330 q -2 -8 1 -13 q 2 5 -1 13" stroke="#7ab84e" stroke-width="2.4" fill="none" stroke-linecap="round"/><path d="M 430 320 q -3 -10 0 -16 q 3 6 0 16 M 435 320 q -2 -8 1 -13 q 2 5 -1 13" stroke="#7ab84e" stroke-width="2.4" fill="none" stroke-linecap="round"/><path d="M 90 320 q -3 -10 0 -16 q 3 6 0 16 M 95 320 q -2 -8 1 -13 q 2 5 -1 13" stroke="#7ab84e" stroke-width="2.4" fill="none" stroke-linecap="round"/></svg>