<svg viewBox="0 0 480 360" xmlns="http://www.w3.org/2000/svg"><style>
.enter{animation:bpEnter .7s cubic-bezier(.2,.9,.3,1.25) both}
.bob{animation:bpBob 3s ease-in-out infinite}
.bob2{animation:bpBob 3.7s ease-in-out infinite}
.sway{animation:bpSway 4s ease-in-out infinite;transform-box:fill-box;transform-origin:bottom center}
.flutter{animation:bpFlutter 3.2s ease-in-out infinite;transform-box:fill-box;transform-origin:center}
.twinkle{animation:bpTwinkle 2.4s ease-in-out infinite;transform-box:fill-box;transform-origin:center}
.spin{animation:bpSpin 24s linear infinite;transform-box:fill-box;transform-origin:center}
@keyframes bpEnter{0%{opacity:0;transform:translateY(28px)}100%{opacity:1;transform:translateY(0)}}
@keyframes bpBob{0%,100%{transform:translateY(0)}50%{transform:translateY(-6px)}}
@keyframes bpSway{0%,100%{transform:rotate(-3.5deg)}50%{transform:rotate(3.5deg)}}
@keyframes bpFlutter{0%{transform:translate(0,0) rotate(-7deg)}50%{transform:translate(12px,-14px) rotate(7deg)}100%{transform:translate(0,0) rotate(-7deg)}}
@keyframes bpTwinkle{0%,100%{opacity:.55;transform:scale(.8)}50%{opacity:1;transform:scale(1.18)}}
@keyframes bpSpin{to{transform:rotate(360deg)}}
@media(prefers-reduced-motion:reduce){.enter,.bob,.bob2,.sway,.flutter,.twinkle,.spin{animation:none}}
</style><defs><linearGradient id="sky" x1="0" y1="0" x2="0" y2="1"><stop offset="0" stop-color="#2b2c63"/><stop offset="0.6" stop-color="#4a4a8c"/><stop offset="1" stop-color="#7b6aa6"/></linearGradient><linearGradient id="grass" x1="0" y1="0" x2="0" y2="1"><stop offset="0" stop-color="#46617a"/><stop offset="1" stop-color="#374f63"/></linearGradient></defs><rect x="0" y="0" width="480" height="360" rx="0" fill="url(#sky)" /><g class="twinkle" style="animation-delay:1.75s"><path d="M 40 36 L 41.04 38.96 L 44 40 L 41.04 41.04 L 40 44 L 38.96 41.04 L 36 40 L 38.96 38.96 Z" fill="#fff3c4" /></g><g class="twinkle" style="animation-delay:0s"><path d="M 90 77 L 90.78 79.22 L 93 80 L 90.78 80.78 L 90 83 L 89.22 80.78 L 87 80 L 89.22 79.22 Z" fill="#fff3c4" /></g><g class="twinkle" style="animation-delay:0.35s"><path d="M 150 47 L 151.3 50.7 L 155 52 L 151.3 53.3 L 150 57 L 148.7 53.3 L 145 52 L 148.7 50.7 Z" fill="#fff3c4" /></g><g class="twinkle" style="animation-delay:0.7s"><path d="M 210 89 L 210.78 91.22 L 213 92 L 210.78 92.78 L 210 95 L 209.22 92.78 L 207 92 L 209.22 91.22 Z" fill="#fff3c4" /></g><g class="twinkle" style="animation-delay:1.05s"><path d="M 300 42 L 301.04 44.96 L 304 46 L 301.04 47.04 L 300 50 L 298.96 47.04 L 296 46 L 298.96 44.96 Z" fill="#fff3c4" /></g><g class="twinkle" style="animation-delay:1.4s"><path d="M 360 83 L 360.78 85.22 L 363 86 L 360.78 86.78 L 360 89 L 359.22 86.78 L 357 86 L 359.22 85.22 Z" fill="#fff3c4" /></g><g class="twinkle" style="animation-delay:1.75s"><path d="M 430 51 L 431.3 54.7 L 435 56 L 431.3 57.3 L 430 61 L 428.7 57.3 L 425 56 L 428.7 54.7 Z" fill="#fff3c4" /></g><g class="twinkle" style="animation-delay:0s"><path d="M 462 109 L 462.78 111.22 L 465 112 L 462.78 112.78 L 462 115 L 461.22 112.78 L 459 112 L 461.22 111.22 Z" fill="#fff3c4" /></g><g class="twinkle" style="animation-delay:0.35s"><path d="M 120 121 L 120.78 123.22 L 123 124 L 120.78 124.78 L 120 127 L 119.22 124.78 L 117 124 L 119.22 123.22 Z" fill="#fff3c4" /></g><g class="twinkle" style="animation-delay:0.7s"><path d="M 255 37 L 255.78 39.22 L 258 40 L 255.78 40.78 L 255 43 L 254.22 40.78 L 252 40 L 254.22 39.22 Z" fill="#fff3c4" /></g><g class="twinkle" style="animation-delay:1.05s"><path d="M 402 120 L 403.04 122.96 L 406 124 L 403.04 125.04 L 402 128 L 400.96 125.04 L 398 124 L 400.96 122.96 Z" fill="#fff3c4" /></g><g class="twinkle" style="animation-delay:1.4s"><path d="M 72 147 L 72.78 149.22 L 75 150 L 72.78 150.78 L 72 153 L 71.22 150.78 L 69 150 L 71.22 149.22 Z" fill="#fff3c4" /></g><circle cx="378" cy="84" r="68.2" fill="#fff6d8" opacity="0.3"/><circle cx="378" cy="84" r="44" fill="#fdf3c4" /><circle cx="363.92" cy="76.08" r="7.92" fill="#e7d9a8" opacity="0.6"/><circle cx="390.32" cy="97.2" r="5.720000000000001" fill="#e7d9a8" opacity="0.55"/><circle cx="383.28" cy="65.52" r="4.4" fill="#e7d9a8" opacity="0.5"/><ellipse cx="110" cy="296" rx="230" ry="130" fill="#3f4f7a" /><ellipse cx="400" cy="306" rx="240" ry="140" fill="#586591" /><path d="M0 236 Q240 212 480 236 L480 360 L0 360 Z" fill="url(#grass)" /><g class="twinkle" style="animation-delay:1.75s"><path d="M 120 98 L 123.12 106.88 L 132 110 L 123.12 113.12 L 120 122 L 116.88 113.12 L 108 110 L 116.88 106.88 Z" fill="#fff3c4" /></g><g class="twinkle" style="animation-delay:0s"><path d="M 220 68 L 222.6 75.4 L 230 78 L 222.6 80.6 L 220 88 L 217.4 80.6 L 210 78 L 217.4 75.4 Z" fill="#fff3c4" /></g><g class="twinkle" style="animation-delay:0.35s"><path d="M 300 133 L 302.34 139.66 L 309 142 L 302.34 144.34 L 300 151 L 297.66 144.34 L 291 142 L 297.66 139.66 Z" fill="#fff3c4" /></g><g class="enter"><g class="bob2"><ellipse cx="150" cy="318.20000000000005" rx="36.45" ry="10.935" fill="rgba(90,60,30,0.13)" /><ellipse cx="137.85" cy="315.5" rx="9.180000000000001" ry="7.5600000000000005" fill="#7a5436" /><ellipse cx="162.15" cy="315.5" rx="9.180000000000001" ry="7.5600000000000005" fill="#7a5436" /><ellipse cx="150" cy="289.85" rx="24.84" ry="27.54" fill="#b9824f" /><ellipse cx="150" cy="294.17" rx="15.659999999999998" ry="18.9" fill="#ecd2ac" /><line x1="128.94" y1="285.8" x2="123.53999999999999" y2="303.35" stroke="#b9824f" stroke-width="12.42" stroke-linecap="round"/><line x1="168.9" y1="284.45000000000005" x2="182.4" y2="249.35" stroke="#b9824f" stroke-width="12.42" stroke-linecap="round"/><circle cx="130.56" cy="226.4" r="10.8" fill="#b9824f" /><circle cx="130.56" cy="226.4" r="5.4" fill="#ecd2ac" /><circle cx="169.44" cy="226.4" r="10.8" fill="#b9824f" /><circle cx="169.44" cy="226.4" r="5.4" fill="#ecd2ac" /><circle cx="150" cy="248" r="27" fill="#b9824f" /><ellipse cx="140.82" cy="237.2" rx="8.64" ry="5.94" fill="rgba(255,255,255,0.4)" /><ellipse cx="150" cy="256.1" rx="16.2" ry="12.42" fill="#ecd2ac" /><circle cx="140.82" cy="246.92" r="3.2399999999999998" fill="#4a3526" /><circle cx="159.18" cy="246.92" r="3.2399999999999998" fill="#4a3526" /><circle cx="141.792" cy="245.8832" r="1.1016" fill="#ffffff" /><circle cx="160.15200000000002" cy="245.8832" r="1.1016" fill="#ffffff" /><ellipse cx="150" cy="251.24" rx="3.5100000000000002" ry="2.7" fill="#7a5436" /><path d="M 144.6 257.18 Q 150 262.58 155.4 257.18" stroke="#4a3526" stroke-width="2" fill="none" stroke-linecap="round"/><circle cx="134.34" cy="253.4" r="4.05" fill="#f29bb0" opacity="0.7"/><circle cx="165.66" cy="253.4" r="4.05" fill="#f29bb0" opacity="0.7"/></g></g><g class="sway" style="animation-delay:1.2s"><circle cx="276" cy="312" r="8.68" fill="#ff8fb3" /><circle cx="266.3262379212493" cy="325.31479122813215" r="8.68" fill="#ff8fb3" /><circle cx="250.67376207875074" cy="320.22899353209465" r="8.68" fill="#ff8fb3" /><circle cx="250.67376207875074" cy="303.77100646790535" r="8.68" fill="#ff8fb3" /><circle cx="266.3262379212493" cy="298.68520877186785" r="8.68" fill="#ff8fb3" /><circle cx="262" cy="312" r="7.700000000000001" fill="#ffe14d" /></g><g class="sway" style="animation-delay:0s"><circle cx="325" cy="330" r="8.06" fill="#ffd24d" /><circle cx="316.0172209268743" cy="342.36373471183697" r="8.06" fill="#ffd24d" /><circle cx="301.4827790731257" cy="337.64120827980213" r="8.06" fill="#ffd24d" /><circle cx="301.4827790731257" cy="322.35879172019787" r="8.06" fill="#ffd24d" /><circle cx="316.0172209268743" cy="317.63626528816303" r="8.06" fill="#ffd24d" /><circle cx="312" cy="330" r="7.15" fill="#ffe14d" /></g><g class="sway" style="animation-delay:0.3s"><circle cx="376" cy="314" r="8.68" fill="#b58bff" /><circle cx="366.3262379212493" cy="327.31479122813215" r="8.68" fill="#b58bff" /><circle cx="350.6737620787507" cy="322.22899353209465" r="8.68" fill="#b58bff" /><circle cx="350.6737620787507" cy="305.77100646790535" r="8.68" fill="#b58bff" /><circle cx="366.3262379212493" cy="300.68520877186785" r="8.68" fill="#b58bff" /><circle cx="362" cy="314" r="7.700000000000001" fill="#ffe14d" /></g><g class="sway" style="animation-delay:0.6s"><circle cx="68" cy="338" r="4.96" fill="#ffd24d" /><circle cx="62.47213595499958" cy="345.60845213036123" r="4.96" fill="#ffd24d" /><circle cx="53.52786404500042" cy="342.70228201833976" r="4.96" fill="#ffd24d" /><circle cx="53.52786404500042" cy="333.29771798166024" r="4.96" fill="#ffd24d" /><circle cx="62.47213595499958" cy="330.39154786963877" r="4.96" fill="#ffd24d" /><circle cx="60" cy="338" r="4.4" fill="#ffe14d" /></g><g class="sway" style="animation-delay:0.9s"><circle cx="438" cy="340" r="4.96" fill="#ff8fb3" /><circle cx="432.4721359549996" cy="347.60845213036123" r="4.96" fill="#ff8fb3" /><circle cx="423.5278640450004" cy="344.70228201833976" r="4.96" fill="#ff8fb3" /><circle cx="423.5278640450004" cy="335.29771798166024" r="4.96" fill="#ff8fb3" /><circle cx="432.4721359549996" cy="332.39154786963877" r="4.96" fill="#ff8fb3" /><circle cx="430" cy="340" r="4.4" fill="#ffe14d" /></g></svg>