<svg viewBox="0 0 480 360" xmlns="http://www.w3.org/2000/svg"><style>
.enter{animation:bpEnter .7s cubic-bezier(.2,.9,.3,1.25) both}
.bob{animation:bpBob 3s ease-in-out infinite}
.bob2{animation:bpBob 3.7s ease-in-out infinite}
.sway{animation:bpSway 4s ease-in-out infinite;transform-box:fill-box;transform-origin:bottom center}
.flutter{animation:bpFlutter 3.2s ease-in-out infinite;transform-box:fill-box;transform-origin:center}
.twinkle{animation:bpTwinkle 2.4s ease-in-out infinite;transform-box:fill-box;transform-origin:center}
.spin{animation:bpSpin 24s linear infinite;transform-box:fill-box;transform-origin:center}
@keyframes bpEnter{0%{opacity:0;transform:translateY(28px)}100%{opacity:1;transform:translateY(0)}}
@keyframes bpBob{0%,100%{transform:translateY(0)}50%{transform:translateY(-6px)}}
@keyframes bpSway{0%,100%{transform:rotate(-3.5deg)}50%{transform:rotate(3.5deg)}}
@keyframes bpFlutter{0%{transform:translate(0,0) rotate(-7deg)}50%{transform:translate(12px,-14px) rotate(7deg)}100%{transform:translate(0,0) rotate(-7deg)}}
@keyframes bpTwinkle{0%,100%{opacity:.55;transform:scale(.8)}50%{opacity:1;transform:scale(1.18)}}
@keyframes bpSpin{to{transform:rotate(360deg)}}
@media(prefers-reduced-motion:reduce){.enter,.bob,.bob2,.sway,.flutter,.twinkle,.spin{animation:none}}
</style><defs><linearGradient id="sky" x1="0" y1="0" x2="0" y2="1"><stop offset="0" stop-color="#2b2c63"/><stop offset="0.6" stop-color="#4a4a8c"/><stop offset="1" stop-color="#7b6aa6"/></linearGradient><linearGradient id="grass" x1="0" y1="0" x2="0" y2="1"><stop offset="0" stop-color="#46617a"/><stop offset="1" stop-color="#374f63"/></linearGradient></defs><rect x="0" y="0" width="480" height="360" rx="0" fill="url(#sky)" /><g class="twinkle" style="animation-delay:1.75s"><path d="M 40 36 L 41.04 38.96 L 44 40 L 41.04 41.04 L 40 44 L 38.96 41.04 L 36 40 L 38.96 38.96 Z" fill="#fff3c4" /></g><g class="twinkle" style="animation-delay:0s"><path d="M 90 77 L 90.78 79.22 L 93 80 L 90.78 80.78 L 90 83 L 89.22 80.78 L 87 80 L 89.22 79.22 Z" fill="#fff3c4" /></g><g class="twinkle" style="animation-delay:0.35s"><path d="M 150 47 L 151.3 50.7 L 155 52 L 151.3 53.3 L 150 57 L 148.7 53.3 L 145 52 L 148.7 50.7 Z" fill="#fff3c4" /></g><g class="twinkle" style="animation-delay:0.7s"><path d="M 210 89 L 210.78 91.22 L 213 92 L 210.78 92.78 L 210 95 L 209.22 92.78 L 207 92 L 209.22 91.22 Z" fill="#fff3c4" /></g><g class="twinkle" style="animation-delay:1.05s"><path d="M 300 42 L 301.04 44.96 L 304 46 L 301.04 47.04 L 300 50 L 298.96 47.04 L 296 46 L 298.96 44.96 Z" fill="#fff3c4" /></g><g class="twinkle" style="animation-delay:1.4s"><path d="M 360 83 L 360.78 85.22 L 363 86 L 360.78 86.78 L 360 89 L 359.22 86.78 L 357 86 L 359.22 85.22 Z" fill="#fff3c4" /></g><g class="twinkle" style="animation-delay:1.75s"><path d="M 430 51 L 431.3 54.7 L 435 56 L 431.3 57.3 L 430 61 L 428.7 57.3 L 425 56 L 428.7 54.7 Z" fill="#fff3c4" /></g><g class="twinkle" style="animation-delay:0s"><path d="M 462 109 L 462.78 111.22 L 465 112 L 462.78 112.78 L 462 115 L 461.22 112.78 L 459 112 L 461.22 111.22 Z" fill="#fff3c4" /></g><g class="twinkle" style="animation-delay:0.35s"><path d="M 120 121 L 120.78 123.22 L 123 124 L 120.78 124.78 L 120 127 L 119.22 124.78 L 117 124 L 119.22 123.22 Z" fill="#fff3c4" /></g><g class="twinkle" style="animation-delay:0.7s"><path d="M 255 37 L 255.78 39.22 L 258 40 L 255.78 40.78 L 255 43 L 254.22 40.78 L 252 40 L 254.22 39.22 Z" fill="#fff3c4" /></g><g class="twinkle" style="animation-delay:1.05s"><path d="M 402 120 L 403.04 122.96 L 406 124 L 403.04 125.04 L 402 128 L 400.96 125.04 L 398 124 L 400.96 122.96 Z" fill="#fff3c4" /></g><g class="twinkle" style="animation-delay:1.4s"><path d="M 72 147 L 72.78 149.22 L 75 150 L 72.78 150.78 L 72 153 L 71.22 150.78 L 69 150 L 71.22 149.22 Z" fill="#fff3c4" /></g><circle cx="400" cy="82" r="52.7" fill="#fff6d8" opacity="0.3"/><circle cx="400" cy="82" r="34" fill="#fdf3c4" /><circle cx="389.12" cy="75.88" r="6.12" fill="#e7d9a8" opacity="0.6"/><circle cx="409.52" cy="92.2" r="4.42" fill="#e7d9a8" opacity="0.55"/><circle cx="404.08" cy="67.72" r="3.4000000000000004" fill="#e7d9a8" opacity="0.5"/><ellipse cx="110" cy="296" rx="230" ry="130" fill="#3f4f7a" /><ellipse cx="400" cy="306" rx="240" ry="140" fill="#586591" /><path d="M0 236 Q240 212 480 236 L480 360 L0 360 Z" fill="url(#grass)" /><g class="enter"><g class="bob"><ellipse cx="140" cy="315.6" rx="35.1" ry="10.53" fill="rgba(90,60,30,0.13)" /><ellipse cx="128.3" cy="313" rx="8.84" ry="7.280000000000001" fill="#7a5436" /><ellipse cx="151.7" cy="313" rx="8.84" ry="7.280000000000001" fill="#7a5436" /><ellipse cx="140" cy="288.3" rx="23.92" ry="26.52" fill="#b9824f" /><ellipse cx="140" cy="292.46000000000004" rx="15.079999999999998" ry="18.2" fill="#ecd2ac" /><line x1="119.72" y1="284.40000000000003" x2="114.52" y2="301.3" stroke="#b9824f" stroke-width="11.96" stroke-linecap="round"/><line x1="160.28" y1="284.40000000000003" x2="165.48" y2="301.3" stroke="#b9824f" stroke-width="11.96" stroke-linecap="round"/><circle cx="121.28" cy="227.2" r="10.4" fill="#b9824f" /><circle cx="121.28" cy="227.2" r="5.2" fill="#ecd2ac" /><circle cx="158.72" cy="227.2" r="10.4" fill="#b9824f" /><circle cx="158.72" cy="227.2" r="5.2" fill="#ecd2ac" /><circle cx="140" cy="248" r="26" fill="#b9824f" /><ellipse cx="131.16" cy="237.6" rx="8.32" ry="5.72" fill="rgba(255,255,255,0.4)" /><ellipse cx="140" cy="255.8" rx="15.6" ry="11.96" fill="#ecd2ac" /><circle cx="131.16" cy="246.96" r="3.12" fill="#4a3526" /><circle cx="148.84" cy="246.96" r="3.12" fill="#4a3526" /><circle cx="132.096" cy="245.9616" r="1.0608000000000002" fill="#ffffff" /><circle cx="149.776" cy="245.9616" r="1.0608000000000002" fill="#ffffff" /><ellipse cx="140" cy="251.12" rx="3.38" ry="2.6" fill="#7a5436" /><path d="M 134.8 256.84 Q 140 262.04 145.2 256.84" stroke="#4a3526" stroke-width="2" fill="none" stroke-linecap="round"/><circle cx="124.92" cy="253.2" r="3.9" fill="#f29bb0" opacity="0.7"/><circle cx="155.07999999999998" cy="253.2" r="3.9" fill="#f29bb0" opacity="0.7"/></g></g><g class="sway" style="animation-delay:1.2s"><circle cx="293" cy="300" r="9.3" fill="#ff8fb3" /><circle cx="282.6352549156242" cy="314.2658477444273" r="9.3" fill="#ff8fb3" /><circle cx="265.8647450843758" cy="308.8167787843871" r="9.3" fill="#ff8fb3" /><circle cx="265.8647450843758" cy="291.1832212156129" r="9.3" fill="#ff8fb3" /><circle cx="282.6352549156242" cy="285.73415225557267" r="9.3" fill="#ff8fb3" /><circle cx="278" cy="300" r="8.25" fill="#ffe14d" /></g><g class="sway" style="animation-delay:0s"><circle cx="346" cy="320" r="8.68" fill="#ffd24d" /><circle cx="336.3262379212493" cy="333.31479122813215" r="8.68" fill="#ffd24d" /><circle cx="320.6737620787507" cy="328.22899353209465" r="8.68" fill="#ffd24d" /><circle cx="320.6737620787507" cy="311.77100646790535" r="8.68" fill="#ffd24d" /><circle cx="336.3262379212493" cy="306.68520877186785" r="8.68" fill="#ffd24d" /><circle cx="332" cy="320" r="7.700000000000001" fill="#ffe14d" /></g><g class="sway" style="animation-delay:0.3s"><circle cx="399" cy="304" r="9.3" fill="#b58bff" /><circle cx="388.6352549156242" cy="318.2658477444273" r="9.3" fill="#b58bff" /><circle cx="371.8647450843758" cy="312.8167787843871" r="9.3" fill="#b58bff" /><circle cx="371.8647450843758" cy="295.1832212156129" r="9.3" fill="#b58bff" /><circle cx="388.6352549156242" cy="289.73415225557267" r="9.3" fill="#b58bff" /><circle cx="384" cy="304" r="8.25" fill="#ffe14d" /></g><g class="sway" style="animation-delay:0.6s"><circle cx="261" cy="326" r="8.06" fill="#ff8fb3" /><circle cx="252.01722092687433" cy="338.36373471183697" r="8.06" fill="#ff8fb3" /><circle cx="237.4827790731257" cy="333.64120827980213" r="8.06" fill="#ff8fb3" /><circle cx="237.4827790731257" cy="318.35879172019787" r="8.06" fill="#ff8fb3" /><circle cx="252.0172209268743" cy="313.63626528816303" r="8.06" fill="#ff8fb3" /><circle cx="248" cy="326" r="7.15" fill="#ffe14d" /></g><g class="sway" style="animation-delay:0.9s"><circle cx="68" cy="336" r="4.96" fill="#b58bff" /><circle cx="62.47213595499958" cy="343.60845213036123" r="4.96" fill="#b58bff" /><circle cx="53.52786404500042" cy="340.70228201833976" r="4.96" fill="#b58bff" /><circle cx="53.52786404500042" cy="331.29771798166024" r="4.96" fill="#b58bff" /><circle cx="62.47213595499958" cy="328.39154786963877" r="4.96" fill="#b58bff" /><circle cx="60" cy="336" r="4.4" fill="#ffe14d" /></g></svg>