<svg viewBox="0 0 480 360" xmlns="http://www.w3.org/2000/svg"><style>
.enter{animation:bpEnter .7s cubic-bezier(.2,.9,.3,1.25) both}
.bob{animation:bpBob 3s ease-in-out infinite}
.bob2{animation:bpBob 3.7s ease-in-out infinite}
.sway{animation:bpSway 4s ease-in-out infinite;transform-box:fill-box;transform-origin:bottom center}
.flutter{animation:bpFlutter 3.2s ease-in-out infinite;transform-box:fill-box;transform-origin:center}
.twinkle{animation:bpTwinkle 2.4s ease-in-out infinite;transform-box:fill-box;transform-origin:center}
.spin{animation:bpSpin 24s linear infinite;transform-box:fill-box;transform-origin:center}
@keyframes bpEnter{0%{opacity:0;transform:translateY(28px)}100%{opacity:1;transform:translateY(0)}}
@keyframes bpBob{0%,100%{transform:translateY(0)}50%{transform:translateY(-6px)}}
@keyframes bpSway{0%,100%{transform:rotate(-3.5deg)}50%{transform:rotate(3.5deg)}}
@keyframes bpFlutter{0%{transform:translate(0,0) rotate(-7deg)}50%{transform:translate(12px,-14px) rotate(7deg)}100%{transform:translate(0,0) rotate(-7deg)}}
@keyframes bpTwinkle{0%,100%{opacity:.55;transform:scale(.8)}50%{opacity:1;transform:scale(1.18)}}
@keyframes bpSpin{to{transform:rotate(360deg)}}
@media(prefers-reduced-motion:reduce){.enter,.bob,.bob2,.sway,.flutter,.twinkle,.spin{animation:none}}
</style><defs><linearGradient id="sky" x1="0" y1="0" x2="0" y2="1"><stop offset="0" stop-color="#2b2c63"/><stop offset="0.6" stop-color="#4a4a8c"/><stop offset="1" stop-color="#7b6aa6"/></linearGradient><linearGradient id="grass" x1="0" y1="0" x2="0" y2="1"><stop offset="0" stop-color="#46617a"/><stop offset="1" stop-color="#374f63"/></linearGradient></defs><rect x="0" y="0" width="480" height="360" rx="0" fill="url(#sky)" /><g class="twinkle" style="animation-delay:1.75s"><path d="M 40 36 L 41.04 38.96 L 44 40 L 41.04 41.04 L 40 44 L 38.96 41.04 L 36 40 L 38.96 38.96 Z" fill="#fff3c4" /></g><g class="twinkle" style="animation-delay:0s"><path d="M 90 77 L 90.78 79.22 L 93 80 L 90.78 80.78 L 90 83 L 89.22 80.78 L 87 80 L 89.22 79.22 Z" fill="#fff3c4" /></g><g class="twinkle" style="animation-delay:0.35s"><path d="M 150 47 L 151.3 50.7 L 155 52 L 151.3 53.3 L 150 57 L 148.7 53.3 L 145 52 L 148.7 50.7 Z" fill="#fff3c4" /></g><g class="twinkle" style="animation-delay:0.7s"><path d="M 210 89 L 210.78 91.22 L 213 92 L 210.78 92.78 L 210 95 L 209.22 92.78 L 207 92 L 209.22 91.22 Z" fill="#fff3c4" /></g><g class="twinkle" style="animation-delay:1.05s"><path d="M 300 42 L 301.04 44.96 L 304 46 L 301.04 47.04 L 300 50 L 298.96 47.04 L 296 46 L 298.96 44.96 Z" fill="#fff3c4" /></g><g class="twinkle" style="animation-delay:1.4s"><path d="M 360 83 L 360.78 85.22 L 363 86 L 360.78 86.78 L 360 89 L 359.22 86.78 L 357 86 L 359.22 85.22 Z" fill="#fff3c4" /></g><g class="twinkle" style="animation-delay:1.75s"><path d="M 430 51 L 431.3 54.7 L 435 56 L 431.3 57.3 L 430 61 L 428.7 57.3 L 425 56 L 428.7 54.7 Z" fill="#fff3c4" /></g><g class="twinkle" style="animation-delay:0s"><path d="M 462 109 L 462.78 111.22 L 465 112 L 462.78 112.78 L 462 115 L 461.22 112.78 L 459 112 L 461.22 111.22 Z" fill="#fff3c4" /></g><g class="twinkle" style="animation-delay:0.35s"><path d="M 120 121 L 120.78 123.22 L 123 124 L 120.78 124.78 L 120 127 L 119.22 124.78 L 117 124 L 119.22 123.22 Z" fill="#fff3c4" /></g><g class="twinkle" style="animation-delay:0.7s"><path d="M 255 37 L 255.78 39.22 L 258 40 L 255.78 40.78 L 255 43 L 254.22 40.78 L 252 40 L 254.22 39.22 Z" fill="#fff3c4" /></g><g class="twinkle" style="animation-delay:1.05s"><path d="M 402 120 L 403.04 122.96 L 406 124 L 403.04 125.04 L 402 128 L 400.96 125.04 L 398 124 L 400.96 122.96 Z" fill="#fff3c4" /></g><g class="twinkle" style="animation-delay:1.4s"><path d="M 72 147 L 72.78 149.22 L 75 150 L 72.78 150.78 L 72 153 L 71.22 150.78 L 69 150 L 71.22 149.22 Z" fill="#fff3c4" /></g><circle cx="240" cy="112" r="93" fill="#fff6d8" opacity="0.3"/><circle cx="240" cy="112" r="60" fill="#fdf3c4" /><circle cx="220.8" cy="101.2" r="10.799999999999999" fill="#e7d9a8" opacity="0.6"/><circle cx="256.8" cy="130" r="7.800000000000001" fill="#e7d9a8" opacity="0.55"/><circle cx="247.2" cy="86.8" r="6" fill="#e7d9a8" opacity="0.5"/><ellipse cx="110" cy="296" rx="230" ry="130" fill="#3f4f7a" /><ellipse cx="400" cy="306" rx="240" ry="140" fill="#586591" /><path d="M0 236 Q240 212 480 236 L480 360 L0 360 Z" fill="url(#grass)" /><g class="enter"><g class="bob2"><ellipse cx="240" cy="319.6" rx="35.1" ry="10.53" fill="rgba(90,60,30,0.13)" /><ellipse cx="228.3" cy="317" rx="8.84" ry="7.280000000000001" fill="#7a5436" /><ellipse cx="251.7" cy="317" rx="8.84" ry="7.280000000000001" fill="#7a5436" /><ellipse cx="240" cy="292.3" rx="23.92" ry="26.52" fill="#b9824f" /><ellipse cx="240" cy="296.46000000000004" rx="15.079999999999998" ry="18.2" fill="#ecd2ac" /><line x1="219.72" y1="288.40000000000003" x2="214.52" y2="305.3" stroke="#b9824f" stroke-width="11.96" stroke-linecap="round"/><line x1="260.28" y1="288.40000000000003" x2="265.48" y2="305.3" stroke="#b9824f" stroke-width="11.96" stroke-linecap="round"/><circle cx="221.28" cy="231.2" r="10.4" fill="#b9824f" /><circle cx="221.28" cy="231.2" r="5.2" fill="#ecd2ac" /><circle cx="258.72" cy="231.2" r="10.4" fill="#b9824f" /><circle cx="258.72" cy="231.2" r="5.2" fill="#ecd2ac" /><circle cx="240" cy="252" r="26" fill="#b9824f" /><ellipse cx="231.16" cy="241.6" rx="8.32" ry="5.72" fill="rgba(255,255,255,0.4)" /><ellipse cx="240" cy="259.8" rx="15.6" ry="11.96" fill="#ecd2ac" /><circle cx="231.16" cy="250.96" r="3.12" fill="#4a3526" /><circle cx="248.84" cy="250.96" r="3.12" fill="#4a3526" /><circle cx="232.096" cy="249.9616" r="1.0608000000000002" fill="#ffffff" /><circle cx="249.776" cy="249.9616" r="1.0608000000000002" fill="#ffffff" /><ellipse cx="240" cy="255.12" rx="3.38" ry="2.6" fill="#7a5436" /><path d="M 234.8 260.84 Q 240 266.04 245.2 260.84" stroke="#4a3526" stroke-width="2" fill="none" stroke-linecap="round"/><circle cx="224.92000000000002" cy="257.2" r="3.9" fill="#f29bb0" opacity="0.7"/><circle cx="255.07999999999998" cy="257.2" r="3.9" fill="#f29bb0" opacity="0.7"/></g></g><g class="sway" style="animation-delay:0.6s"><circle cx="78" cy="340" r="4.96" fill="#ff8fb3" /><circle cx="72.47213595499957" cy="347.60845213036123" r="4.96" fill="#ff8fb3" /><circle cx="63.52786404500042" cy="344.70228201833976" r="4.96" fill="#ff8fb3" /><circle cx="63.52786404500042" cy="335.29771798166024" r="4.96" fill="#ff8fb3" /><circle cx="72.47213595499957" cy="332.39154786963877" r="4.96" fill="#ff8fb3" /><circle cx="70" cy="340" r="4.4" fill="#ffe14d" /></g><g class="sway" style="animation-delay:0.9s"><circle cx="418" cy="342" r="4.96" fill="#ffd24d" /><circle cx="412.4721359549996" cy="349.60845213036123" r="4.96" fill="#ffd24d" /><circle cx="403.5278640450004" cy="346.70228201833976" r="4.96" fill="#ffd24d" /><circle cx="403.5278640450004" cy="337.29771798166024" r="4.96" fill="#ffd24d" /><circle cx="412.4721359549996" cy="334.39154786963877" r="4.96" fill="#ffd24d" /><circle cx="410" cy="342" r="4.4" fill="#ffe14d" /></g></svg>