<svg viewBox="0 0 480 360" xmlns="http://www.w3.org/2000/svg"><defs><linearGradient id="sky" x1="0" y1="0" x2="0" y2="1"><stop offset="0" stop-color="#2b2c63"/><stop offset="0.6" stop-color="#4a4a8c"/><stop offset="1" stop-color="#7b6aa6"/></linearGradient><linearGradient id="grass" x1="0" y1="0" x2="0" y2="1"><stop offset="0" stop-color="#46617a"/><stop offset="1" stop-color="#374f63"/></linearGradient></defs><rect x="0" y="0" width="480" height="360" rx="0" fill="url(#sky)" /><path d="M 40 36 L 41.04 38.96 L 44 40 L 41.04 41.04 L 40 44 L 38.96 41.04 L 36 40 L 38.96 38.96 Z" fill="#fff3c4" /><path d="M 90 77 L 90.78 79.22 L 93 80 L 90.78 80.78 L 90 83 L 89.22 80.78 L 87 80 L 89.22 79.22 Z" fill="#fff3c4" /><path d="M 150 47 L 151.3 50.7 L 155 52 L 151.3 53.3 L 150 57 L 148.7 53.3 L 145 52 L 148.7 50.7 Z" fill="#fff3c4" /><path d="M 210 89 L 210.78 91.22 L 213 92 L 210.78 92.78 L 210 95 L 209.22 92.78 L 207 92 L 209.22 91.22 Z" fill="#fff3c4" /><path d="M 300 42 L 301.04 44.96 L 304 46 L 301.04 47.04 L 300 50 L 298.96 47.04 L 296 46 L 298.96 44.96 Z" fill="#fff3c4" /><path d="M 360 83 L 360.78 85.22 L 363 86 L 360.78 86.78 L 360 89 L 359.22 86.78 L 357 86 L 359.22 85.22 Z" fill="#fff3c4" /><path d="M 430 51 L 431.3 54.7 L 435 56 L 431.3 57.3 L 430 61 L 428.7 57.3 L 425 56 L 428.7 54.7 Z" fill="#fff3c4" /><path d="M 462 109 L 462.78 111.22 L 465 112 L 462.78 112.78 L 462 115 L 461.22 112.78 L 459 112 L 461.22 111.22 Z" fill="#fff3c4" /><path d="M 120 121 L 120.78 123.22 L 123 124 L 120.78 124.78 L 120 127 L 119.22 124.78 L 117 124 L 119.22 123.22 Z" fill="#fff3c4" /><path d="M 255 37 L 255.78 39.22 L 258 40 L 255.78 40.78 L 255 43 L 254.22 40.78 L 252 40 L 254.22 39.22 Z" fill="#fff3c4" /><path d="M 402 120 L 403.04 122.96 L 406 124 L 403.04 125.04 L 402 128 L 400.96 125.04 L 398 124 L 400.96 122.96 Z" fill="#fff3c4" /><path d="M 72 147 L 72.78 149.22 L 75 150 L 72.78 150.78 L 72 153 L 71.22 150.78 L 69 150 L 71.22 149.22 Z" fill="#fff3c4" /><circle cx="58" cy="70" r="34.1" fill="#fff6d8" opacity="0.3"/><circle cx="58" cy="70" r="22" fill="#fdf3c4" /><circle cx="50.96" cy="66.04" r="3.96" fill="#e7d9a8" opacity="0.6"/><circle cx="64.16" cy="76.6" r="2.8600000000000003" fill="#e7d9a8" opacity="0.55"/><circle cx="60.64" cy="60.76" r="2.2" fill="#e7d9a8" opacity="0.5"/><ellipse cx="110" cy="296" rx="230" ry="130" fill="#3f4f7a" /><ellipse cx="400" cy="306" rx="240" ry="140" fill="#586591" /><path d="M0 236 Q240 212 480 236 L480 360 L0 360 Z" fill="url(#grass)" /><path d="M 150 106 L 153.12 114.88 L 162 118 L 153.12 121.12 L 150 130 L 146.88 121.12 L 138 118 L 146.88 114.88 Z" fill="#fff3c4" /><path d="M 300 74 L 303.64 84.36 L 314 88 L 303.64 91.64 L 300 102 L 296.36 91.64 L 286 88 L 296.36 84.36 Z" fill="#fff3c4" /><path d="M 360 140 L 362.6 147.4 L 370 150 L 362.6 152.6 L 360 160 L 357.4 152.6 L 350 150 L 357.4 147.4 Z" fill="#fff3c4" /><path d="M 110 168 L 112.08 173.92 L 118 176 L 112.08 178.08 L 110 184 L 107.92 178.08 L 102 176 L 107.92 173.92 Z" fill="#fff3c4" /><path d="M 248 144 L 250.08 149.92 L 256 152 L 250.08 154.08 L 248 160 L 245.92 154.08 L 240 152 L 245.92 149.92 Z" fill="#fff3c4" /><ellipse cx="240" cy="316.79999999999995" rx="37.800000000000004" ry="11.340000000000002" fill="rgba(90,60,30,0.13)" /><ellipse cx="227.4" cy="314" rx="9.520000000000001" ry="7.840000000000001" fill="#7a5436" /><ellipse cx="252.6" cy="314" rx="9.520000000000001" ry="7.840000000000001" fill="#7a5436" /><ellipse cx="240" cy="287.4" rx="25.76" ry="28.560000000000002" fill="#b9824f" /><ellipse cx="240" cy="291.88" rx="16.24" ry="19.599999999999998" fill="#ecd2ac" /><line x1="218.16" y1="283.2" x2="212.56" y2="301.4" stroke="#b9824f" stroke-width="12.88" stroke-linecap="round"/><line x1="259.6" y1="281.79999999999995" x2="273.6" y2="245.4" stroke="#b9824f" stroke-width="12.88" stroke-linecap="round"/><circle cx="219.84" cy="221.6" r="11.200000000000001" fill="#b9824f" /><circle cx="219.84" cy="221.6" r="5.6000000000000005" fill="#ecd2ac" /><circle cx="260.16" cy="221.6" r="11.200000000000001" fill="#b9824f" /><circle cx="260.16" cy="221.6" r="5.6000000000000005" fill="#ecd2ac" /><circle cx="240" cy="244" r="28" fill="#b9824f" /><ellipse cx="230.48" cy="232.8" rx="8.96" ry="6.16" fill="rgba(255,255,255,0.4)" /><ellipse cx="240" cy="252.4" rx="16.8" ry="12.88" fill="#ecd2ac" /><circle cx="230.48" cy="242.88" r="3.36" fill="#4a3526" /><circle cx="249.52" cy="242.88" r="3.36" fill="#4a3526" /><circle cx="231.488" cy="241.8048" r="1.1424" fill="#ffffff" /><circle cx="250.52800000000002" cy="241.8048" r="1.1424" fill="#ffffff" /><ellipse cx="240" cy="247.36" rx="3.64" ry="2.8000000000000003" fill="#7a5436" /><path d="M 234.4 253.52 Q 240 259.12 245.6 253.52" stroke="#4a3526" stroke-width="2" fill="none" stroke-linecap="round"/><circle cx="223.76" cy="249.6" r="4.2" fill="#f29bb0" opacity="0.7"/><circle cx="256.24" cy="249.6" r="4.2" fill="#f29bb0" opacity="0.7"/><g><circle cx="72" cy="340" r="4.96" fill="#ffd24d" /><circle cx="66.47213595499957" cy="347.60845213036123" r="4.96" fill="#ffd24d" /><circle cx="57.52786404500042" cy="344.70228201833976" r="4.96" fill="#ffd24d" /><circle cx="57.52786404500042" cy="335.29771798166024" r="4.96" fill="#ffd24d" /><circle cx="66.47213595499957" cy="332.39154786963877" r="4.96" fill="#ffd24d" /><circle cx="64" cy="340" r="4.4" fill="#ffe14d" /></g><g><circle cx="428" cy="340" r="4.96" fill="#b58bff" /><circle cx="422.4721359549996" cy="347.60845213036123" r="4.96" fill="#b58bff" /><circle cx="413.5278640450004" cy="344.70228201833976" r="4.96" fill="#b58bff" /><circle cx="413.5278640450004" cy="335.29771798166024" r="4.96" fill="#b58bff" /><circle cx="422.4721359549996" cy="332.39154786963877" r="4.96" fill="#b58bff" /><circle cx="420" cy="340" r="4.4" fill="#ffe14d" /></g></svg>