<svg viewBox="0 0 480 360" xmlns="http://www.w3.org/2000/svg"><defs><linearGradient id="sky" x1="0" y1="0" x2="0" y2="1"><stop offset="0" stop-color="#bfe6ff"/><stop offset="1" stop-color="#eaf7ff"/></linearGradient><linearGradient id="grass" x1="0" y1="0" x2="0" y2="1"><stop offset="0" stop-color="#9ad36f"/><stop offset="1" stop-color="#84c457"/></linearGradient></defs><rect x="0" y="0" width="480" height="360" rx="0" fill="url(#sky)" /><circle cx="60" cy="58" r="48" fill="#ffe89a" opacity="0.45"/><line x1="100.5" y1="58" x2="111" y2="58" stroke="#ffe89a" stroke-width="5" stroke-linecap="round"/><line x1="95.07" y1="78.25" x2="104.17" y2="83.5" stroke="#ffe89a" stroke-width="5" stroke-linecap="round"/><line x1="80.25" y1="93.07" x2="85.5" y2="102.17" stroke="#ffe89a" stroke-width="5" stroke-linecap="round"/><line x1="60" y1="98.5" x2="60" y2="109" stroke="#ffe89a" stroke-width="5" stroke-linecap="round"/><line x1="39.75" y1="93.07" x2="34.5" y2="102.17" stroke="#ffe89a" stroke-width="5" stroke-linecap="round"/><line x1="24.93" y1="78.25" x2="15.83" y2="83.5" stroke="#ffe89a" stroke-width="5" stroke-linecap="round"/><line x1="19.5" y1="58" x2="9" y2="58" stroke="#ffe89a" stroke-width="5" stroke-linecap="round"/><line x1="24.93" y1="37.75" x2="15.83" y2="32.5" stroke="#ffe89a" stroke-width="5" stroke-linecap="round"/><line x1="39.75" y1="22.93" x2="34.5" y2="13.83" stroke="#ffe89a" stroke-width="5" stroke-linecap="round"/><line x1="60" y1="17.5" x2="60" y2="7" stroke="#ffe89a" stroke-width="5" stroke-linecap="round"/><line x1="80.25" y1="22.93" x2="85.5" y2="13.83" stroke="#ffe89a" stroke-width="5" stroke-linecap="round"/><line x1="95.07" y1="37.75" x2="104.17" y2="32.5" stroke="#ffe89a" stroke-width="5" stroke-linecap="round"/><circle cx="60" cy="58" r="30" fill="#ffd24d" /><ellipse cx="330" cy="80.4" rx="39" ry="14.3" fill="#ffffff" /><circle cx="311.8" cy="72.6" r="15.6" fill="#ffffff" /><circle cx="330" cy="62.2" r="20.28" fill="#ffffff" /><circle cx="349.5" cy="71.3" r="16.12" fill="#ffffff" /><ellipse cx="190" cy="53.2" rx="27" ry="9.9" fill="#ffffff" /><circle cx="177.4" cy="47.8" r="10.799999999999999" fill="#ffffff" /><circle cx="190" cy="40.6" r="14.040000000000001" fill="#ffffff" /><circle cx="203.5" cy="46.9" r="11.16" fill="#ffffff" /><ellipse cx="110" cy="292" rx="230" ry="130" fill="#cdeeb0" /><ellipse cx="400" cy="302" rx="240" ry="140" fill="#b2e28d" /><path d="M0 232 Q240 206 480 232 L480 360 L0 360 Z" fill="url(#grass)" /><ellipse cx="120" cy="252.1" rx="37.800000000000004" ry="11.340000000000002" fill="rgba(90,60,30,0.13)" /><rect x="113.28" y="187" width="13.44" height="67.2" rx="4.2" fill="#b07a4e" /><circle cx="120" cy="170.2" r="39.9" fill="#5fae46" /><circle cx="90.6" cy="187" r="29.4" fill="#7cc35e" /><circle cx="149.4" cy="187" r="30.24" fill="#7cc35e" /><circle cx="120" cy="166" r="33.6" fill="#7cc35e" /><ellipse cx="107.4" cy="157.6" rx="16.8" ry="11.760000000000002" fill="#a3d885" opacity="0.7"/><circle cx="99" cy="191.2" r="8.4" fill="#e8483f" /><circle cx="96.48" cy="188.67999999999998" r="2.52" fill="#ffffff" opacity="0.6"/><circle cx="141" cy="187" r="8.4" fill="#e8483f" /><circle cx="138.48" cy="184.48" r="2.52" fill="#ffffff" opacity="0.6"/><circle cx="120" cy="161.8" r="8.4" fill="#e8483f" /><circle cx="117.48" cy="159.28" r="2.52" fill="#ffffff" opacity="0.6"/><circle cx="90.6" cy="170.2" r="8.4" fill="#e8483f" /><circle cx="88.08" cy="167.67999999999998" r="2.52" fill="#ffffff" opacity="0.6"/><circle cx="149.4" cy="170.2" r="8.4" fill="#e8483f" /><circle cx="146.88" cy="167.67999999999998" r="2.52" fill="#ffffff" opacity="0.6"/><circle cx="128.4" cy="195.4" r="8.4" fill="#e8483f" /><circle cx="125.88000000000001" cy="192.88" r="2.52" fill="#ffffff" opacity="0.6"/><ellipse cx="380" cy="258.3" rx="41.4" ry="12.42" fill="rgba(90,60,30,0.13)" /><rect x="372.64" y="187" width="14.72" height="73.60000000000001" rx="4.6000000000000005" fill="#b07a4e" /><circle cx="380" cy="168.60000000000002" r="43.699999999999996" fill="#5fae46" /><circle cx="347.8" cy="187" r="32.199999999999996" fill="#7cc35e" /><circle cx="412.2" cy="187" r="33.12" fill="#7cc35e" /><circle cx="380" cy="164" r="36.800000000000004" fill="#7cc35e" /><ellipse cx="366.2" cy="154.8" rx="18.400000000000002" ry="12.88" fill="#a3d885" opacity="0.7"/><circle cx="357" cy="191.60000000000002" r="9.200000000000001" fill="#e8483f" /><circle cx="354.24" cy="188.84000000000003" r="2.76" fill="#ffffff" opacity="0.6"/><circle cx="403" cy="187" r="9.200000000000001" fill="#e8483f" /><circle cx="400.24" cy="184.24" r="2.76" fill="#ffffff" opacity="0.6"/><circle cx="380" cy="159.39999999999998" r="9.200000000000001" fill="#e8483f" /><circle cx="377.24" cy="156.64" r="2.76" fill="#ffffff" opacity="0.6"/><circle cx="347.8" cy="168.60000000000002" r="9.200000000000001" fill="#e8483f" /><circle cx="345.04" cy="165.84000000000003" r="2.76" fill="#ffffff" opacity="0.6"/><circle cx="412.2" cy="168.60000000000002" r="9.200000000000001" fill="#e8483f" /><circle cx="409.44" cy="165.84000000000003" r="2.76" fill="#ffffff" opacity="0.6"/><circle cx="389.2" cy="196.2" r="9.200000000000001" fill="#e8483f" /><circle cx="386.44" cy="193.44" r="2.76" fill="#ffffff" opacity="0.6"/><rect x="300" y="300" width="70" height="44" rx="10" fill="#c98a4a" /><rect x="300" y="300" width="70" height="44" rx="10" fill="none" stroke="#a86f34" stroke-width="3"/><ellipse cx="318" cy="311" rx="9.9" ry="2.97" fill="rgba(90,60,30,0.13)" /><ellipse cx="318" cy="300" rx="10.120000000000001" ry="9.9" fill="#e8483f" /><ellipse cx="314.7" cy="296.7" rx="2.8600000000000003" ry="2.2" fill="#ff8a7a" opacity="0.7"/><rect x="317.34" y="288.45" width="1.3199999999999998" height="4.4" rx="0.6599999999999999" fill="#7a5436" /><ellipse cx="321.08" cy="290.65" rx="3.08" ry="1.76" fill="#5fae46" transform="rotate(28 318 300)"/><ellipse cx="340" cy="307" rx="9.9" ry="2.97" fill="rgba(90,60,30,0.13)" /><ellipse cx="340" cy="296" rx="10.120000000000001" ry="9.9" fill="#e8483f" /><ellipse cx="336.7" cy="292.7" rx="2.8600000000000003" ry="2.2" fill="#ff8a7a" opacity="0.7"/><rect x="339.34" y="284.45" width="1.3199999999999998" height="4.4" rx="0.6599999999999999" fill="#7a5436" /><ellipse cx="343.08" cy="286.65" rx="3.08" ry="1.76" fill="#5fae46" transform="rotate(28 340 296)"/><ellipse cx="355" cy="314" rx="9" ry="2.6999999999999997" fill="rgba(90,60,30,0.13)" /><ellipse cx="355" cy="304" rx="9.200000000000001" ry="9" fill="#e8483f" /><ellipse cx="352" cy="301" rx="2.6" ry="2" fill="#ff8a7a" opacity="0.7"/><rect x="354.4" y="293.5" width="1.2" height="4" rx="0.6" fill="#7a5436" /><ellipse cx="357.8" cy="295.5" rx="2.8000000000000003" ry="1.6" fill="#5fae46" transform="rotate(28 355 304)"/><ellipse cx="205" cy="315.20000000000005" rx="43.2" ry="12.96" fill="rgba(90,60,30,0.13)" /><ellipse cx="190.6" cy="312" rx="10.88" ry="8.96" fill="#7a5436" /><ellipse cx="219.4" cy="312" rx="10.88" ry="8.96" fill="#7a5436" /><ellipse cx="205" cy="281.6" rx="29.44" ry="32.64" fill="#b9824f" /><ellipse cx="205" cy="286.72" rx="18.56" ry="22.4" fill="#ecd2ac" /><line x1="180.04" y1="276.8" x2="173.64" y2="297.6" stroke="#b9824f" stroke-width="14.72" stroke-linecap="round"/><line x1="227.4" y1="275.20000000000005" x2="243.4" y2="233.6" stroke="#b9824f" stroke-width="14.72" stroke-linecap="round"/><ellipse cx="258" cy="213" rx="13.5" ry="4.05" fill="rgba(90,60,30,0.13)" /><ellipse cx="258" cy="198" rx="13.8" ry="13.5" fill="#e8483f" /><ellipse cx="253.5" cy="193.5" rx="3.9000000000000004" ry="3" fill="#ff8a7a" opacity="0.7"/><rect x="257.1" y="182.25" width="1.7999999999999998" height="6" rx="0.8999999999999999" fill="#7a5436" /><ellipse cx="262.2" cy="185.25" rx="4.2" ry="2.4" fill="#5fae46" transform="rotate(28 258 198)"/><circle cx="181.96" cy="206.4" r="12.8" fill="#b9824f" /><circle cx="181.96" cy="206.4" r="6.4" fill="#ecd2ac" /><circle cx="228.04" cy="206.4" r="12.8" fill="#b9824f" /><circle cx="228.04" cy="206.4" r="6.4" fill="#ecd2ac" /><circle cx="205" cy="232" r="32" fill="#b9824f" /><ellipse cx="194.12" cy="219.2" rx="10.24" ry="7.04" fill="rgba(255,255,255,0.4)" /><ellipse cx="205" cy="241.6" rx="19.2" ry="14.72" fill="#ecd2ac" /><circle cx="194.12" cy="230.72" r="3.84" fill="#4a3526" /><circle cx="215.88" cy="230.72" r="3.84" fill="#4a3526" /><circle cx="195.272" cy="229.4912" r="1.3056" fill="#ffffff" /><circle cx="217.03199999999998" cy="229.4912" r="1.3056" fill="#ffffff" /><ellipse cx="205" cy="235.84" rx="4.16" ry="3.2" fill="#7a5436" /><path d="M 198.6 242.88 Q 205 249.28 211.4 242.88" stroke="#4a3526" stroke-width="2" fill="none" stroke-linecap="round"/><circle cx="186.44" cy="238.4" r="4.8" fill="#f29bb0" opacity="0.7"/><circle cx="223.56" cy="238.4" r="4.8" fill="#f29bb0" opacity="0.7"/><g><circle cx="78" cy="336" r="4.96" fill="#ff8fb3" /><circle cx="72.47213595499957" cy="343.60845213036123" r="4.96" fill="#ff8fb3" /><circle cx="63.52786404500042" cy="340.70228201833976" r="4.96" fill="#ff8fb3" /><circle cx="63.52786404500042" cy="331.29771798166024" r="4.96" fill="#ff8fb3" /><circle cx="72.47213595499957" cy="328.39154786963877" r="4.96" fill="#ff8fb3" /><circle cx="70" cy="336" r="4.4" fill="#ffe14d" /></g><g><circle cx="448" cy="330" r="4.96" fill="#ffd24d" /><circle cx="442.4721359549996" cy="337.60845213036123" r="4.96" fill="#ffd24d" /><circle cx="433.5278640450004" cy="334.70228201833976" r="4.96" fill="#ffd24d" /><circle cx="433.5278640450004" cy="325.29771798166024" r="4.96" fill="#ffd24d" /><circle cx="442.4721359549996" cy="322.39154786963877" r="4.96" fill="#ffd24d" /><circle cx="440" cy="330" r="4.4" fill="#ffe14d" /></g><ellipse cx="412.8" cy="136.4" rx="6.6000000000000005" ry="8.399999999999999" fill="#c4a0ff" /><ellipse cx="427.2" cy="136.4" rx="6.6000000000000005" ry="8.399999999999999" fill="#c4a0ff" /><ellipse cx="413.4" cy="146.6" rx="5.04" ry="6" fill="#c4a0ff" opacity="0.85"/><ellipse cx="426.6" cy="146.6" rx="5.04" ry="6" fill="#c4a0ff" opacity="0.85"/><rect x="419.04" y="132.8" width="1.92" height="15.600000000000001" rx="0.96" fill="#5b4632" /><path d="M 40 320 q -3 -10 0 -16 q 3 6 0 16 M 45 320 q -2 -8 1 -13 q 2 5 -1 13" stroke="#7ab84e" stroke-width="2.4" fill="none" stroke-linecap="round"/><path d="M 250 340 q -3 -10 0 -16 q 3 6 0 16 M 255 340 q -2 -8 1 -13 q 2 5 -1 13" stroke="#7ab84e" stroke-width="2.4" fill="none" stroke-linecap="round"/><path d="M 460 320 q -3 -10 0 -16 q 3 6 0 16 M 465 320 q -2 -8 1 -13 q 2 5 -1 13" stroke="#7ab84e" stroke-width="2.4" fill="none" stroke-linecap="round"/></svg>