<svg viewBox="0 0 480 360" xmlns="http://www.w3.org/2000/svg"><style>
.enter{animation:bpEnter .7s cubic-bezier(.2,.9,.3,1.25) both}
.bob{animation:bpBob 3s ease-in-out infinite}
.bob2{animation:bpBob 3.7s ease-in-out infinite}
.sway{animation:bpSway 4s ease-in-out infinite;transform-box:fill-box;transform-origin:bottom center}
.flutter{animation:bpFlutter 3.2s ease-in-out infinite;transform-box:fill-box;transform-origin:center}
.twinkle{animation:bpTwinkle 2.4s ease-in-out infinite;transform-box:fill-box;transform-origin:center}
.spin{animation:bpSpin 24s linear infinite;transform-box:fill-box;transform-origin:center}
@keyframes bpEnter{0%{opacity:0;transform:translateY(28px)}100%{opacity:1;transform:translateY(0)}}
@keyframes bpBob{0%,100%{transform:translateY(0)}50%{transform:translateY(-6px)}}
@keyframes bpSway{0%,100%{transform:rotate(-3.5deg)}50%{transform:rotate(3.5deg)}}
@keyframes bpFlutter{0%{transform:translate(0,0) rotate(-7deg)}50%{transform:translate(12px,-14px) rotate(7deg)}100%{transform:translate(0,0) rotate(-7deg)}}
@keyframes bpTwinkle{0%,100%{opacity:.55;transform:scale(.8)}50%{opacity:1;transform:scale(1.18)}}
@keyframes bpSpin{to{transform:rotate(360deg)}}
@media(prefers-reduced-motion:reduce){.enter,.bob,.bob2,.sway,.flutter,.twinkle,.spin{animation:none}}
</style><defs><linearGradient id="sky" x1="0" y1="0" x2="0" y2="1"><stop offset="0" stop-color="#bfe6ff"/><stop offset="1" stop-color="#eaf7ff"/></linearGradient><linearGradient id="grass" x1="0" y1="0" x2="0" y2="1"><stop offset="0" stop-color="#9ad36f"/><stop offset="1" stop-color="#84c457"/></linearGradient></defs><rect x="0" y="0" width="480" height="360" rx="0" fill="url(#sky)" /><circle cx="408" cy="60" r="48" fill="#ffe89a" opacity="0.45"/><g class="spin"><line x1="448.5" y1="60" x2="459" y2="60" stroke="#ffe89a" stroke-width="5" stroke-linecap="round"/><line x1="443.07" y1="80.25" x2="452.17" y2="85.5" stroke="#ffe89a" stroke-width="5" stroke-linecap="round"/><line x1="428.25" y1="95.07" x2="433.5" y2="104.17" stroke="#ffe89a" stroke-width="5" stroke-linecap="round"/><line x1="408" y1="100.5" x2="408" y2="111" stroke="#ffe89a" stroke-width="5" stroke-linecap="round"/><line x1="387.75" y1="95.07" x2="382.5" y2="104.17" stroke="#ffe89a" stroke-width="5" stroke-linecap="round"/><line x1="372.93" y1="80.25" x2="363.83" y2="85.5" stroke="#ffe89a" stroke-width="5" stroke-linecap="round"/><line x1="367.5" y1="60" x2="357" y2="60" stroke="#ffe89a" stroke-width="5" stroke-linecap="round"/><line x1="372.93" y1="39.75" x2="363.83" y2="34.5" stroke="#ffe89a" stroke-width="5" stroke-linecap="round"/><line x1="387.75" y1="24.93" x2="382.5" y2="15.83" stroke="#ffe89a" stroke-width="5" stroke-linecap="round"/><line x1="408" y1="19.5" x2="408" y2="9" stroke="#ffe89a" stroke-width="5" stroke-linecap="round"/><line x1="428.25" y1="24.93" x2="433.5" y2="15.83" stroke="#ffe89a" stroke-width="5" stroke-linecap="round"/><line x1="443.07" y1="39.75" x2="452.17" y2="34.5" stroke="#ffe89a" stroke-width="5" stroke-linecap="round"/></g><circle cx="408" cy="60" r="30" fill="#ffd24d" /><ellipse cx="330" cy="80.4" rx="39" ry="14.3" fill="#ffffff" /><circle cx="311.8" cy="72.6" r="15.6" fill="#ffffff" /><circle cx="330" cy="62.2" r="20.28" fill="#ffffff" /><circle cx="349.5" cy="71.3" r="16.12" fill="#ffffff" /><ellipse cx="190" cy="53.2" rx="27" ry="9.9" fill="#ffffff" /><circle cx="177.4" cy="47.8" r="10.799999999999999" fill="#ffffff" /><circle cx="190" cy="40.6" r="14.040000000000001" fill="#ffffff" /><circle cx="203.5" cy="46.9" r="11.16" fill="#ffffff" /><ellipse cx="110" cy="292" rx="230" ry="130" fill="#cdeeb0" /><ellipse cx="400" cy="302" rx="240" ry="140" fill="#b2e28d" /><path d="M0 232 Q240 206 480 232 L480 360 L0 360 Z" fill="url(#grass)" /><ellipse cx="70" cy="197.2" rx="21.6" ry="6.48" fill="rgba(90,60,30,0.13)" /><rect x="66.16" y="160" width="7.68" height="38.400000000000006" rx="2.4000000000000004" fill="#b07a4e" /><circle cx="70" cy="150.4" r="22.799999999999997" fill="#5fae46" /><circle cx="53.2" cy="160" r="16.799999999999997" fill="#7cc35e" /><circle cx="86.8" cy="160" r="17.28" fill="#7cc35e" /><circle cx="70" cy="148" r="19.200000000000003" fill="#7cc35e" /><ellipse cx="62.8" cy="143.2" rx="9.600000000000001" ry="6.720000000000001" fill="#a3d885" opacity="0.7"/><circle cx="58" cy="162.4" r="4.800000000000001" fill="#e8483f" /><circle cx="56.56" cy="160.96" r="1.44" fill="#ffffff" opacity="0.6"/><circle cx="82" cy="160" r="4.800000000000001" fill="#e8483f" /><circle cx="80.56" cy="158.56" r="1.44" fill="#ffffff" opacity="0.6"/><circle cx="70" cy="145.6" r="4.800000000000001" fill="#e8483f" /><circle cx="68.56" cy="144.16" r="1.44" fill="#ffffff" opacity="0.6"/><circle cx="53.2" cy="150.4" r="4.800000000000001" fill="#e8483f" /><circle cx="51.760000000000005" cy="148.96" r="1.44" fill="#ffffff" opacity="0.6"/><circle cx="86.8" cy="150.4" r="4.800000000000001" fill="#e8483f" /><circle cx="85.36" cy="148.96" r="1.44" fill="#ffffff" opacity="0.6"/><circle cx="74.8" cy="164.8" r="4.800000000000001" fill="#e8483f" /><circle cx="73.36" cy="163.36" r="1.44" fill="#ffffff" opacity="0.6"/><ellipse cx="430" cy="201.1" rx="19.8" ry="5.94" fill="rgba(90,60,30,0.13)" /><rect x="426.48" y="167" width="7.04" height="35.2" rx="2.2" fill="#b07a4e" /><circle cx="430" cy="158.2" r="20.9" fill="#5fae46" /><circle cx="414.6" cy="167" r="15.399999999999999" fill="#7cc35e" /><circle cx="445.4" cy="167" r="15.84" fill="#7cc35e" /><circle cx="430" cy="156" r="17.6" fill="#7cc35e" /><ellipse cx="423.4" cy="151.6" rx="8.8" ry="6.16" fill="#a3d885" opacity="0.7"/><circle cx="419" cy="169.2" r="4.4" fill="#e8483f" /><circle cx="417.68" cy="167.88" r="1.3199999999999998" fill="#ffffff" opacity="0.6"/><circle cx="441" cy="167" r="4.4" fill="#e8483f" /><circle cx="439.68" cy="165.68" r="1.3199999999999998" fill="#ffffff" opacity="0.6"/><circle cx="430" cy="153.8" r="4.4" fill="#e8483f" /><circle cx="428.68" cy="152.48000000000002" r="1.3199999999999998" fill="#ffffff" opacity="0.6"/><circle cx="414.6" cy="158.2" r="4.4" fill="#e8483f" /><circle cx="413.28000000000003" cy="156.88" r="1.3199999999999998" fill="#ffffff" opacity="0.6"/><circle cx="445.4" cy="158.2" r="4.4" fill="#e8483f" /><circle cx="444.08" cy="156.88" r="1.3199999999999998" fill="#ffffff" opacity="0.6"/><circle cx="434.4" cy="171.4" r="4.4" fill="#e8483f" /><circle cx="433.08" cy="170.08" r="1.3199999999999998" fill="#ffffff" opacity="0.6"/><path d="M210 360 Q250 300 235 250 Q225 215 250 196 L280 196 Q258 220 268 252 Q282 305 300 360 Z" fill="#f2dca3" /><path d="M210 360 Q250 300 235 250 Q225 215 250 196" fill="none" stroke="#e6cb88" stroke-width="3"/><g class="enter"><g class="bob"><ellipse cx="232" cy="304" rx="40.5" ry="12.15" fill="rgba(90,60,30,0.13)" /><ellipse cx="218.5" cy="301" rx="10.200000000000001" ry="8.4" fill="#7a5436" /><ellipse cx="245.5" cy="301" rx="10.200000000000001" ry="8.4" fill="#7a5436" /><ellipse cx="232" cy="272.5" rx="27.6" ry="30.6" fill="#b9824f" /><ellipse cx="232" cy="277.3" rx="17.4" ry="21" fill="#ecd2ac" /><line x1="208.6" y1="268" x2="202.6" y2="287.5" stroke="#b9824f" stroke-width="13.8" stroke-linecap="round"/><line x1="255.4" y1="268" x2="261.4" y2="287.5" stroke="#b9824f" stroke-width="13.8" stroke-linecap="round"/><rect x="286" y="250" width="34" height="26" rx="6" fill="#c98a4a" /><rect x="286" y="250" width="34" height="26" rx="6" fill="none" stroke="#a86f34" stroke-width="2.5"/><path d="M288 252 Q303 238 318 252" fill="none" stroke="#a86f34" stroke-width="3"/><ellipse cx="296" cy="254" rx="5.4" ry="1.62" fill="rgba(90,60,30,0.13)" /><ellipse cx="296" cy="248" rx="5.5200000000000005" ry="5.4" fill="#e8483f" /><ellipse cx="294.2" cy="246.2" rx="1.56" ry="1.2000000000000002" fill="#ff8a7a" opacity="0.7"/><rect x="295.64" y="241.7" width="0.72" height="2.4000000000000004" rx="0.36" fill="#7a5436" /><ellipse cx="297.68" cy="242.9" rx="1.6800000000000002" ry="0.96" fill="#5fae46" transform="rotate(28 296 248)"/><ellipse cx="310" cy="256" rx="5.4" ry="1.62" fill="rgba(90,60,30,0.13)" /><ellipse cx="310" cy="250" rx="5.5200000000000005" ry="5.4" fill="#e8483f" /><ellipse cx="308.2" cy="248.2" rx="1.56" ry="1.2000000000000002" fill="#ff8a7a" opacity="0.7"/><rect x="309.64" y="243.7" width="0.72" height="2.4000000000000004" rx="0.36" fill="#7a5436" /><ellipse cx="311.68" cy="244.9" rx="1.6800000000000002" ry="0.96" fill="#5fae46" transform="rotate(28 310 250)"/><circle cx="210.4" cy="202" r="12" fill="#b9824f" /><circle cx="210.4" cy="202" r="6" fill="#ecd2ac" /><circle cx="253.6" cy="202" r="12" fill="#b9824f" /><circle cx="253.6" cy="202" r="6" fill="#ecd2ac" /><circle cx="232" cy="226" r="30" fill="#b9824f" /><ellipse cx="221.8" cy="214" rx="9.6" ry="6.6" fill="rgba(255,255,255,0.4)" /><ellipse cx="232" cy="235" rx="18" ry="13.8" fill="#ecd2ac" /><circle cx="221.8" cy="224.8" r="3.5999999999999996" fill="#4a3526" /><circle cx="242.2" cy="224.8" r="3.5999999999999996" fill="#4a3526" /><circle cx="222.88000000000002" cy="223.64800000000002" r="1.224" fill="#ffffff" /><circle cx="243.28" cy="223.64800000000002" r="1.224" fill="#ffffff" /><ellipse cx="232" cy="229.6" rx="3.9000000000000004" ry="3" fill="#7a5436" /><path d="M 226 236.2 Q 232 242.2 238 236.2" stroke="#4a3526" stroke-width="2" fill="none" stroke-linecap="round"/><circle cx="214.6" cy="232" r="4.5" fill="#f29bb0" opacity="0.7"/><circle cx="249.4" cy="232" r="4.5" fill="#f29bb0" opacity="0.7"/></g></g><g class="enter"><g class="bob2"><ellipse cx="330" cy="305" rx="25.299999999999997" ry="7.589999999999999" fill="rgba(90,60,30,0.13)" /><ellipse cx="322.52" cy="224.7" rx="5.720000000000001" ry="15.399999999999999" fill="#fff6ec" transform="rotate(-12 322.52 230.2)"/><ellipse cx="322.52" cy="224.7" rx="2.8600000000000003" ry="11" fill="#f6b9c6" transform="rotate(-12 322.52 230.2)"/><ellipse cx="337.48" cy="224.7" rx="5.720000000000001" ry="15.399999999999999" fill="#fff6ec" transform="rotate(12 337.48 230.2)"/><ellipse cx="337.48" cy="224.7" rx="2.8600000000000003" ry="11" fill="#f6b9c6" transform="rotate(12 337.48 230.2)"/><ellipse cx="330" cy="283" rx="18.04" ry="21.119999999999997" fill="#fff6ec" /><ellipse cx="330" cy="285.64" rx="11" ry="13.2" fill="#efe1d0" /><ellipse cx="321.2" cy="302.8" rx="6.6" ry="4.84" fill="#efe1d0" /><ellipse cx="338.8" cy="302.8" rx="6.6" ry="4.84" fill="#efe1d0" /><line x1="314.16" y1="280.8" x2="309.76" y2="292.9" stroke="#fff6ec" stroke-width="9.24" stroke-linecap="round"/><line x1="345.84" y1="280.8" x2="350.24" y2="292.9" stroke="#fff6ec" stroke-width="9.24" stroke-linecap="round"/><circle cx="330" cy="250" r="22" fill="#fff6ec" /><ellipse cx="322.52" cy="241.2" rx="7.04" ry="4.84" fill="rgba(255,255,255,0.4)" /><circle cx="322.96" cy="249.56" r="2.42" fill="#4a3526" /><circle cx="337.04" cy="249.56" r="2.42" fill="#4a3526" /><circle cx="323.686" cy="248.7856" r="0.8228000000000001" fill="#ffffff" /><circle cx="337.766" cy="248.7856" r="0.8228000000000001" fill="#ffffff" /><path d="M 327.8 253.52 L 332.2 253.52 L 330 256.6 Z" fill="#f6b9c6" /><path d="M 326.48 257.92 Q 330 261.44 333.52 257.92" stroke="#4a3526" stroke-width="2" fill="none" stroke-linecap="round"/><circle cx="318.12" cy="254.4" r="2.8600000000000003" fill="#f29bb0" opacity="0.7"/><circle cx="341.88" cy="254.4" r="2.8600000000000003" fill="#f29bb0" opacity="0.7"/></g></g><g class="sway" style="animation-delay:0s"><circle cx="68" cy="330" r="4.96" fill="#ff8fb3" /><circle cx="62.47213595499958" cy="337.60845213036123" r="4.96" fill="#ff8fb3" /><circle cx="53.52786404500042" cy="334.70228201833976" r="4.96" fill="#ff8fb3" /><circle cx="53.52786404500042" cy="325.29771798166024" r="4.96" fill="#ff8fb3" /><circle cx="62.47213595499958" cy="322.39154786963877" r="4.96" fill="#ff8fb3" /><circle cx="60" cy="330" r="4.4" fill="#ffe14d" /></g><g class="sway" style="animation-delay:0.3s"><circle cx="127" cy="345" r="4.34" fill="#ffd24d" /><circle cx="122.16311896062463" cy="351.65739561406605" r="4.34" fill="#ffd24d" /><circle cx="114.33688103937537" cy="349.1144967660473" r="4.34" fill="#ffd24d" /><circle cx="114.33688103937537" cy="340.8855032339527" r="4.34" fill="#ffd24d" /><circle cx="122.16311896062463" cy="338.3426043859339" r="4.34" fill="#ffd24d" /><circle cx="120" cy="345" r="3.8500000000000005" fill="#ffe14d" /></g><g class="sway" style="animation-delay:0.6s"><circle cx="428" cy="338" r="4.96" fill="#b58bff" /><circle cx="422.4721359549996" cy="345.60845213036123" r="4.96" fill="#b58bff" /><circle cx="413.5278640450004" cy="342.70228201833976" r="4.96" fill="#b58bff" /><circle cx="413.5278640450004" cy="333.29771798166024" r="4.96" fill="#b58bff" /><circle cx="422.4721359549996" cy="330.39154786963877" r="4.96" fill="#b58bff" /><circle cx="420" cy="338" r="4.4" fill="#ffe14d" /></g><g class="sway" style="animation-delay:0.9s"><circle cx="467" cy="320" r="4.34" fill="#ff8fb3" /><circle cx="462.1631189606246" cy="326.65739561406605" r="4.34" fill="#ff8fb3" /><circle cx="454.3368810393754" cy="324.1144967660473" r="4.34" fill="#ff8fb3" /><circle cx="454.3368810393754" cy="315.8855032339527" r="4.34" fill="#ff8fb3" /><circle cx="462.1631189606246" cy="313.3426043859339" r="4.34" fill="#ff8fb3" /><circle cx="460" cy="320" r="3.8500000000000005" fill="#ffe14d" /></g><g class="flutter"><ellipse cx="143.4" cy="146.7" rx="6.050000000000001" ry="7.699999999999999" fill="#ffb0d4" /><ellipse cx="156.6" cy="146.7" rx="6.050000000000001" ry="7.699999999999999" fill="#ffb0d4" /><ellipse cx="143.95" cy="156.05" rx="4.62" ry="5.5" fill="#ffb0d4" opacity="0.85"/><ellipse cx="156.05" cy="156.05" rx="4.62" ry="5.5" fill="#ffb0d4" opacity="0.85"/><rect x="149.12" y="143.4" width="1.76" height="14.3" rx="0.88" fill="#5b4632" /></g><path d="M 30 300 q -3 -10 0 -16 q 3 6 0 16 M 35 300 q -2 -8 1 -13 q 2 5 -1 13" stroke="#7ab84e" stroke-width="2.4" fill="none" stroke-linecap="round"/><path d="M 400 320 q -3 -10 0 -16 q 3 6 0 16 M 405 320 q -2 -8 1 -13 q 2 5 -1 13" stroke="#7ab84e" stroke-width="2.4" fill="none" stroke-linecap="round"/><path d="M 180 340 q -3 -10 0 -16 q 3 6 0 16 M 185 340 q -2 -8 1 -13 q 2 5 -1 13" stroke="#7ab84e" stroke-width="2.4" fill="none" stroke-linecap="round"/><path d="M 350 350 q -3 -10 0 -16 q 3 6 0 16 M 355 350 q -2 -8 1 -13 q 2 5 -1 13" stroke="#7ab84e" stroke-width="2.4" fill="none" stroke-linecap="round"/></svg>