<svg viewBox="0 0 480 360" xmlns="http://www.w3.org/2000/svg"><defs><linearGradient id="sky" x1="0" y1="0" x2="0" y2="1"><stop offset="0" stop-color="#bfe6ff"/><stop offset="1" stop-color="#eaf7ff"/></linearGradient><linearGradient id="grass" x1="0" y1="0" x2="0" y2="1"><stop offset="0" stop-color="#9ad36f"/><stop offset="1" stop-color="#84c457"/></linearGradient></defs><rect x="0" y="0" width="480" height="360" rx="0" fill="url(#sky)" /><circle cx="240" cy="52" r="48" fill="#ffe89a" opacity="0.45"/><line x1="280.5" y1="52" x2="291" y2="52" stroke="#ffe89a" stroke-width="5" stroke-linecap="round"/><line x1="275.07" y1="72.25" x2="284.17" y2="77.5" stroke="#ffe89a" stroke-width="5" stroke-linecap="round"/><line x1="260.25" y1="87.07" x2="265.5" y2="96.17" stroke="#ffe89a" stroke-width="5" stroke-linecap="round"/><line x1="240" y1="92.5" x2="240" y2="103" stroke="#ffe89a" stroke-width="5" stroke-linecap="round"/><line x1="219.75" y1="87.07" x2="214.5" y2="96.17" stroke="#ffe89a" stroke-width="5" stroke-linecap="round"/><line x1="204.93" y1="72.25" x2="195.83" y2="77.5" stroke="#ffe89a" stroke-width="5" stroke-linecap="round"/><line x1="199.5" y1="52" x2="189" y2="52" stroke="#ffe89a" stroke-width="5" stroke-linecap="round"/><line x1="204.93" y1="31.75" x2="195.83" y2="26.5" stroke="#ffe89a" stroke-width="5" stroke-linecap="round"/><line x1="219.75" y1="16.93" x2="214.5" y2="7.83" stroke="#ffe89a" stroke-width="5" stroke-linecap="round"/><line x1="240" y1="11.5" x2="240" y2="1" stroke="#ffe89a" stroke-width="5" stroke-linecap="round"/><line x1="260.25" y1="16.93" x2="265.5" y2="7.83" stroke="#ffe89a" stroke-width="5" stroke-linecap="round"/><line x1="275.07" y1="31.75" x2="284.17" y2="26.5" stroke="#ffe89a" stroke-width="5" stroke-linecap="round"/><circle cx="240" cy="52" r="30" fill="#ffd24d" /><ellipse cx="330" cy="80.4" rx="39" ry="14.3" fill="#ffffff" /><circle cx="311.8" cy="72.6" r="15.6" fill="#ffffff" /><circle cx="330" cy="62.2" r="20.28" fill="#ffffff" /><circle cx="349.5" cy="71.3" r="16.12" fill="#ffffff" /><ellipse cx="190" cy="53.2" rx="27" ry="9.9" fill="#ffffff" /><circle cx="177.4" cy="47.8" r="10.799999999999999" fill="#ffffff" /><circle cx="190" cy="40.6" r="14.040000000000001" fill="#ffffff" /><circle cx="203.5" cy="46.9" r="11.16" fill="#ffffff" /><ellipse cx="110" cy="292" rx="230" ry="130" fill="#cdeeb0" /><ellipse cx="400" cy="302" rx="240" ry="140" fill="#b2e28d" /><path d="M0 232 Q240 206 480 232 L480 360 L0 360 Z" fill="url(#grass)" /><clipPath id="bl"><ellipse cx="240" cy="300" rx="170" ry="56"/></clipPath><ellipse cx="240" cy="300" rx="170" ry="56" fill="#f7e6c2" /><ellipse cx="240" cy="300" rx="170" ry="56" fill="none" stroke="#e85f6a" stroke-width="3" opacity="0.5"/><line x1="131.2" y1="248.48" x2="131.2" y2="351.52" stroke="#e98a92" stroke-width="3" opacity="0.55" clip-path="url(#bl)"/><line x1="83.6" y1="261.92" x2="396.4" y2="261.92" stroke="#e98a92" stroke-width="3" opacity="0.55" clip-path="url(#bl)"/><line x1="185.6" y1="248.48" x2="185.6" y2="351.52" stroke="#e98a92" stroke-width="3" opacity="0.55" clip-path="url(#bl)"/><line x1="83.6" y1="280.96" x2="396.4" y2="280.96" stroke="#e98a92" stroke-width="3" opacity="0.55" clip-path="url(#bl)"/><line x1="240" y1="248.48" x2="240" y2="351.52" stroke="#e98a92" stroke-width="3" opacity="0.55" clip-path="url(#bl)"/><line x1="83.6" y1="300" x2="396.4" y2="300" stroke="#e98a92" stroke-width="3" opacity="0.55" clip-path="url(#bl)"/><line x1="294.4" y1="248.48" x2="294.4" y2="351.52" stroke="#e98a92" stroke-width="3" opacity="0.55" clip-path="url(#bl)"/><line x1="83.6" y1="319.04" x2="396.4" y2="319.04" stroke="#e98a92" stroke-width="3" opacity="0.55" clip-path="url(#bl)"/><line x1="348.8" y1="248.48" x2="348.8" y2="351.52" stroke="#e98a92" stroke-width="3" opacity="0.55" clip-path="url(#bl)"/><line x1="83.6" y1="338.08" x2="396.4" y2="338.08" stroke="#e98a92" stroke-width="3" opacity="0.55" clip-path="url(#bl)"/><ellipse cx="200" cy="306" rx="12.6" ry="3.78" fill="rgba(90,60,30,0.13)" /><ellipse cx="200" cy="292" rx="12.88" ry="12.6" fill="#e8483f" /><ellipse cx="195.8" cy="287.8" rx="3.64" ry="2.8000000000000003" fill="#ff8a7a" opacity="0.7"/><rect x="199.16" y="277.3" width="1.68" height="5.6000000000000005" rx="0.84" fill="#7a5436" /><ellipse cx="203.92" cy="280.1" rx="3.9200000000000004" ry="2.24" fill="#5fae46" transform="rotate(28 200 292)"/><path d="M 227 287 Q 241.4 316.7 263.9 297.8 Q 254.9 305 243.2 304.1 Q 233.3 301.4 227 287 Z" fill="#ffd23e" /><path d="M 227 287 Q 241.4 316.7 263.9 297.8" fill="none" stroke="#e6a92f" stroke-width="2.88" stroke-linecap="round"/><circle cx="227" cy="287" r="2.16" fill="#8a6a2e" /><ellipse cx="295" cy="296.5" rx="12.100000000000001" ry="3.6300000000000003" fill="rgba(90,60,30,0.13)" /><path d="M 295 273.4 q 6.6 -5.5 3.3 -12.1" fill="none" stroke="#6b4a2e" stroke-width="1.76" stroke-linecap="round"/><ellipse cx="302.7" cy="264.6" rx="5.5" ry="3.3" fill="#6cb84e" transform="rotate(20 295 280)"/><circle cx="286.42" cy="280" r="5.5" fill="#7e46a6" /><circle cx="286.42" cy="280" r="5.0600000000000005" fill="#9b5fc0" /><circle cx="284.66" cy="278.24" r="1.3199999999999998" fill="#ffffff" opacity="0.5"/><circle cx="303.58" cy="280" r="5.5" fill="#7e46a6" /><circle cx="303.58" cy="280" r="5.0600000000000005" fill="#9b5fc0" /><circle cx="301.82" cy="278.24" r="1.3199999999999998" fill="#ffffff" opacity="0.5"/><circle cx="295" cy="280" r="5.5" fill="#7e46a6" /><circle cx="295" cy="280" r="5.0600000000000005" fill="#9b5fc0" /><circle cx="293.24" cy="278.24" r="1.3199999999999998" fill="#ffffff" opacity="0.5"/><circle cx="290.71" cy="287.293" r="5.5" fill="#7e46a6" /><circle cx="290.71" cy="287.293" r="5.0600000000000005" fill="#9b5fc0" /><circle cx="288.95" cy="285.533" r="1.3199999999999998" fill="#ffffff" opacity="0.5"/><circle cx="299.29" cy="287.293" r="5.5" fill="#7e46a6" /><circle cx="299.29" cy="287.293" r="5.0600000000000005" fill="#9b5fc0" /><circle cx="297.53000000000003" cy="285.533" r="1.3199999999999998" fill="#ffffff" opacity="0.5"/><circle cx="295" cy="294.586" r="5.5" fill="#7e46a6" /><circle cx="295" cy="294.586" r="5.0600000000000005" fill="#9b5fc0" /><circle cx="293.24" cy="292.826" r="1.3199999999999998" fill="#ffffff" opacity="0.5"/><circle cx="282.13" cy="287.293" r="5.5" fill="#7e46a6" /><circle cx="282.13" cy="287.293" r="5.0600000000000005" fill="#9b5fc0" /><circle cx="280.37" cy="285.533" r="1.3199999999999998" fill="#ffffff" opacity="0.5"/><circle cx="307.87" cy="287.293" r="5.5" fill="#7e46a6" /><circle cx="307.87" cy="287.293" r="5.0600000000000005" fill="#9b5fc0" /><circle cx="306.11" cy="285.533" r="1.3199999999999998" fill="#ffffff" opacity="0.5"/><ellipse cx="110" cy="286.79999999999995" rx="37.800000000000004" ry="11.340000000000002" fill="rgba(90,60,30,0.13)" /><ellipse cx="97.4" cy="284" rx="9.520000000000001" ry="7.840000000000001" fill="#7a5436" /><ellipse cx="122.6" cy="284" rx="9.520000000000001" ry="7.840000000000001" fill="#7a5436" /><ellipse cx="110" cy="257.4" rx="25.76" ry="28.560000000000002" fill="#b9824f" /><ellipse cx="110" cy="261.88" rx="16.24" ry="19.599999999999998" fill="#ecd2ac" /><line x1="88.16" y1="253.2" x2="82.56" y2="271.4" stroke="#b9824f" stroke-width="12.88" stroke-linecap="round"/><line x1="131.84" y1="253.2" x2="137.44" y2="271.4" stroke="#b9824f" stroke-width="12.88" stroke-linecap="round"/><circle cx="89.84" cy="191.6" r="11.200000000000001" fill="#b9824f" /><circle cx="89.84" cy="191.6" r="5.6000000000000005" fill="#ecd2ac" /><circle cx="130.16" cy="191.6" r="11.200000000000001" fill="#b9824f" /><circle cx="130.16" cy="191.6" r="5.6000000000000005" fill="#ecd2ac" /><circle cx="110" cy="214" r="28" fill="#b9824f" /><ellipse cx="100.48" cy="202.8" rx="8.96" ry="6.16" fill="rgba(255,255,255,0.4)" /><ellipse cx="110" cy="222.4" rx="16.8" ry="12.88" fill="#ecd2ac" /><circle cx="100.48" cy="212.88" r="3.36" fill="#4a3526" /><circle cx="119.52" cy="212.88" r="3.36" fill="#4a3526" /><circle cx="101.488" cy="211.8048" r="1.1424" fill="#ffffff" /><circle cx="120.52799999999999" cy="211.8048" r="1.1424" fill="#ffffff" /><ellipse cx="110" cy="217.36" rx="3.64" ry="2.8000000000000003" fill="#7a5436" /><path d="M 104.4 223.52 Q 110 229.12 115.6 223.52" stroke="#4a3526" stroke-width="2" fill="none" stroke-linecap="round"/><circle cx="93.76" cy="219.6" r="4.2" fill="#f29bb0" opacity="0.7"/><circle cx="126.24" cy="219.6" r="4.2" fill="#f29bb0" opacity="0.7"/><ellipse cx="240" cy="260" rx="28.799999999999997" ry="8.639999999999999" fill="rgba(90,60,30,0.13)" /><ellipse cx="240" cy="236" rx="19.68" ry="23.04" fill="#8d6443" /><ellipse cx="240" cy="238.88" rx="12" ry="14.879999999999999" fill="#f0d6ae" /><line x1="222.72" y1="233.6" x2="217.2" y2="246.8" stroke="#8d6443" stroke-width="9.600000000000001" stroke-linecap="round"/><line x1="257.28" y1="233.6" x2="262.8" y2="246.8" stroke="#8d6443" stroke-width="9.600000000000001" stroke-linecap="round"/><ellipse cx="230.4" cy="257.6" rx="6.720000000000001" ry="5.28" fill="#6e4d34" /><ellipse cx="249.6" cy="257.6" rx="6.720000000000001" ry="5.28" fill="#6e4d34" /><circle cx="217.92" cy="201.2" r="7.68" fill="#8d6443" /><circle cx="217.92" cy="201.2" r="4.08" fill="#f0d6ae" /><circle cx="262.08" cy="201.2" r="7.68" fill="#8d6443" /><circle cx="262.08" cy="201.2" r="4.08" fill="#f0d6ae" /><circle cx="240" cy="200" r="24" fill="#8d6443" /><ellipse cx="231.84" cy="190.4" rx="7.68" ry="5.28" fill="rgba(255,255,255,0.4)" /><path d="M 240 186.8 C 217.2 188 223.2 220.4 240 218.72 C 256.8 220.4 262.8 188 240 186.8 Z" fill="#f0d6ae" /><circle cx="232.8" cy="199.52" r="2.64" fill="#4a3526" /><circle cx="247.2" cy="199.52" r="2.64" fill="#4a3526" /><circle cx="233.592" cy="198.67520000000002" r="0.8976000000000001" fill="#ffffff" /><circle cx="247.992" cy="198.67520000000002" r="0.8976000000000001" fill="#ffffff" /><ellipse cx="240" cy="206.24" rx="3.84" ry="2.4000000000000004" fill="#6e4d34" opacity="0.5"/><circle cx="238.08" cy="205.28" r="1.2000000000000002" fill="#6e4d34" /><circle cx="241.92" cy="205.28" r="1.2000000000000002" fill="#6e4d34" /><path d="M 235.2 208.64 Q 240 213.44 244.8 208.64" stroke="#4a3526" stroke-width="2" fill="none" stroke-linecap="round"/><circle cx="227.52" cy="203.84" r="3.12" fill="#f29bb0" opacity="0.7"/><circle cx="252.48" cy="203.84" r="3.12" fill="#f29bb0" opacity="0.7"/><ellipse cx="377.2" cy="273.8" rx="29.9" ry="8.969999999999999" fill="rgba(90,60,30,0.13)" /><path d="M 385 259.5 C 424 264.7 424 190.6 395.4 198.4 C 411 208.8 408.4 251.7 385 259.5 Z" fill="#df9249" /><path d="M 390.2 254.3 C 411 254.3 412.3 201 398 203.6 C 403.2 219.2 400.6 249.1 390.2 254.3 Z" fill="#f2c690" /><ellipse cx="372" cy="249.1" rx="17.68" ry="22.099999999999998" fill="#df9249" /><ellipse cx="372" cy="251.7" rx="10.92" ry="14.560000000000002" fill="#f2c690" /><ellipse cx="364.2" cy="269.38" rx="6.24" ry="4.68" fill="#b8702f" /><ellipse cx="379.8" cy="269.38" rx="6.24" ry="4.68" fill="#b8702f" /><line x1="359" y1="246.5" x2="355.88" y2="258.2" stroke="#df9249" stroke-width="8.84" stroke-linecap="round"/><line x1="385" y1="246.5" x2="388.12" y2="258.2" stroke="#df9249" stroke-width="8.84" stroke-linecap="round"/><path d="M 351.98 195.8 Q 357.7 180.2 363.42 195.8 Z" fill="#df9249" /><path d="M 354.58 194.76 Q 357.7 185.4 360.82 194.76 Z" fill="#f2c690" /><path d="M 380.58 195.8 Q 386.3 180.2 392.02 195.8 Z" fill="#df9249" /><path d="M 383.18 194.76 Q 386.3 185.4 389.42 194.76 Z" fill="#f2c690" /><circle cx="372" cy="214" r="26" fill="#df9249" /><ellipse cx="363.16" cy="203.6" rx="8.32" ry="5.72" fill="rgba(255,255,255,0.4)" /><ellipse cx="372" cy="222.32" rx="11.96" ry="9.36" fill="#f2c690" /><circle cx="364.2" cy="212.96" r="2.86" fill="#4a3526" /><circle cx="379.8" cy="212.96" r="2.86" fill="#4a3526" /><circle cx="365.058" cy="212.0448" r="0.9724" fill="#ffffff" /><circle cx="380.658" cy="212.0448" r="0.9724" fill="#ffffff" /><ellipse cx="372" cy="218.16" rx="2.6" ry="2.08" fill="#b8702f" /><path d="M 367.84 222.84 Q 372 227 376.16 222.84" stroke="#4a3526" stroke-width="2" fill="none" stroke-linecap="round"/><circle cx="358.48" cy="218.68" r="3.38" fill="#f29bb0" opacity="0.7"/><circle cx="385.52" cy="218.68" r="3.38" fill="#f29bb0" opacity="0.7"/><g><circle cx="48" cy="200" r="4.96" fill="#ff8fb3" /><circle cx="42.47213595499958" cy="207.60845213036123" r="4.96" fill="#ff8fb3" /><circle cx="33.52786404500042" cy="204.7022820183398" r="4.96" fill="#ff8fb3" /><circle cx="33.52786404500042" cy="195.2977179816602" r="4.96" fill="#ff8fb3" /><circle cx="42.47213595499958" cy="192.39154786963877" r="4.96" fill="#ff8fb3" /><circle cx="40" cy="200" r="4.4" fill="#ffe14d" /></g><g><circle cx="458" cy="196" r="4.96" fill="#ffd24d" /><circle cx="452.4721359549996" cy="203.60845213036123" r="4.96" fill="#ffd24d" /><circle cx="443.5278640450004" cy="200.7022820183398" r="4.96" fill="#ffd24d" /><circle cx="443.5278640450004" cy="191.2977179816602" r="4.96" fill="#ffd24d" /><circle cx="452.4721359549996" cy="188.39154786963877" r="4.96" fill="#ffd24d" /><circle cx="450" cy="196" r="4.4" fill="#ffe14d" /></g><ellipse cx="392.8" cy="106.4" rx="6.6000000000000005" ry="8.399999999999999" fill="#ffb0d4" /><ellipse cx="407.2" cy="106.4" rx="6.6000000000000005" ry="8.399999999999999" fill="#ffb0d4" /><ellipse cx="393.4" cy="116.6" rx="5.04" ry="6" fill="#ffb0d4" opacity="0.85"/><ellipse cx="406.6" cy="116.6" rx="5.04" ry="6" fill="#ffb0d4" opacity="0.85"/><rect x="399.04" y="102.8" width="1.92" height="15.600000000000001" rx="0.96" fill="#5b4632" /></svg>