<svg viewBox="0 0 480 360" xmlns="http://www.w3.org/2000/svg"><style>
.enter{animation:bpEnter .7s cubic-bezier(.2,.9,.3,1.25) both}
.bob{animation:bpBob 3s ease-in-out infinite}
.bob2{animation:bpBob 3.7s ease-in-out infinite}
.sway{animation:bpSway 4s ease-in-out infinite;transform-box:fill-box;transform-origin:bottom center}
.flutter{animation:bpFlutter 3.2s ease-in-out infinite;transform-box:fill-box;transform-origin:center}
.twinkle{animation:bpTwinkle 2.4s ease-in-out infinite;transform-box:fill-box;transform-origin:center}
.spin{animation:bpSpin 24s linear infinite;transform-box:fill-box;transform-origin:center}
@keyframes bpEnter{0%{opacity:0;transform:translateY(28px)}100%{opacity:1;transform:translateY(0)}}
@keyframes bpBob{0%,100%{transform:translateY(0)}50%{transform:translateY(-6px)}}
@keyframes bpSway{0%,100%{transform:rotate(-3.5deg)}50%{transform:rotate(3.5deg)}}
@keyframes bpFlutter{0%{transform:translate(0,0) rotate(-7deg)}50%{transform:translate(12px,-14px) rotate(7deg)}100%{transform:translate(0,0) rotate(-7deg)}}
@keyframes bpTwinkle{0%,100%{opacity:.55;transform:scale(.8)}50%{opacity:1;transform:scale(1.18)}}
@keyframes bpSpin{to{transform:rotate(360deg)}}
@media(prefers-reduced-motion:reduce){.enter,.bob,.bob2,.sway,.flutter,.twinkle,.spin{animation:none}}
</style><defs><linearGradient id="sky" x1="0" y1="0" x2="0" y2="1"><stop offset="0" stop-color="#bfe6ff"/><stop offset="1" stop-color="#eaf7ff"/></linearGradient><linearGradient id="grass" x1="0" y1="0" x2="0" y2="1"><stop offset="0" stop-color="#9ad36f"/><stop offset="1" stop-color="#84c457"/></linearGradient></defs><rect x="0" y="0" width="480" height="360" rx="0" fill="url(#sky)" /><circle cx="64" cy="60" r="48" fill="#ffe89a" opacity="0.45"/><g class="spin"><line x1="104.5" y1="60" x2="115" y2="60" stroke="#ffe89a" stroke-width="5" stroke-linecap="round"/><line x1="99.07" y1="80.25" x2="108.17" y2="85.5" stroke="#ffe89a" stroke-width="5" stroke-linecap="round"/><line x1="84.25" y1="95.07" x2="89.5" y2="104.17" stroke="#ffe89a" stroke-width="5" stroke-linecap="round"/><line x1="64" y1="100.5" x2="64" y2="111" stroke="#ffe89a" stroke-width="5" stroke-linecap="round"/><line x1="43.75" y1="95.07" x2="38.5" y2="104.17" stroke="#ffe89a" stroke-width="5" stroke-linecap="round"/><line x1="28.93" y1="80.25" x2="19.83" y2="85.5" stroke="#ffe89a" stroke-width="5" stroke-linecap="round"/><line x1="23.5" y1="60" x2="13" y2="60" stroke="#ffe89a" stroke-width="5" stroke-linecap="round"/><line x1="28.93" y1="39.75" x2="19.83" y2="34.5" stroke="#ffe89a" stroke-width="5" stroke-linecap="round"/><line x1="43.75" y1="24.93" x2="38.5" y2="15.83" stroke="#ffe89a" stroke-width="5" stroke-linecap="round"/><line x1="64" y1="19.5" x2="64" y2="9" stroke="#ffe89a" stroke-width="5" stroke-linecap="round"/><line x1="84.25" y1="24.93" x2="89.5" y2="15.83" stroke="#ffe89a" stroke-width="5" stroke-linecap="round"/><line x1="99.07" y1="39.75" x2="108.17" y2="34.5" stroke="#ffe89a" stroke-width="5" stroke-linecap="round"/></g><circle cx="64" cy="60" r="30" fill="#ffd24d" /><ellipse cx="330" cy="80.4" rx="39" ry="14.3" fill="#ffffff" /><circle cx="311.8" cy="72.6" r="15.6" fill="#ffffff" /><circle cx="330" cy="62.2" r="20.28" fill="#ffffff" /><circle cx="349.5" cy="71.3" r="16.12" fill="#ffffff" /><ellipse cx="190" cy="53.2" rx="27" ry="9.9" fill="#ffffff" /><circle cx="177.4" cy="47.8" r="10.799999999999999" fill="#ffffff" /><circle cx="190" cy="40.6" r="14.040000000000001" fill="#ffffff" /><circle cx="203.5" cy="46.9" r="11.16" fill="#ffffff" /><ellipse cx="110" cy="292" rx="230" ry="130" fill="#cdeeb0" /><ellipse cx="400" cy="302" rx="240" ry="140" fill="#b2e28d" /><path d="M0 232 Q240 206 480 232 L480 360 L0 360 Z" fill="url(#grass)" /><ellipse cx="400" cy="252" rx="36" ry="10.799999999999999" fill="rgba(90,60,30,0.13)" /><rect x="393.6" y="190" width="12.8" height="64" rx="4" fill="#b07a4e" /><circle cx="400" cy="174" r="38" fill="#5fae46" /><circle cx="372" cy="190" r="28" fill="#7cc35e" /><circle cx="428" cy="190" r="28.799999999999997" fill="#7cc35e" /><circle cx="400" cy="170" r="32" fill="#7cc35e" /><ellipse cx="388" cy="162" rx="16" ry="11.200000000000001" fill="#a3d885" opacity="0.7"/><ellipse cx="112" cy="300" rx="26" ry="18" fill="#e8615f" /><circle cx="98" cy="296" r="5" fill="#fff" /><circle cx="122" cy="290" r="4" fill="#fff" /><rect x="104" y="300" width="16" height="26" rx="6" fill="#fff2dc" /><g class="enter"><g class="bob2"><ellipse cx="226" cy="283" rx="34.5" ry="10.35" fill="rgba(90,60,30,0.13)" /><path d="M 235 266.5 C 280 272.5 280 187 247 196 C 265 208 262 257.5 235 266.5 Z" fill="#df9249" /><path d="M 241 260.5 C 265 260.5 266.5 199 250 202 C 256 220 253 254.5 241 260.5 Z" fill="#f2c690" /><ellipse cx="220" cy="254.5" rx="20.400000000000002" ry="25.5" fill="#df9249" /><ellipse cx="220" cy="257.5" rx="12.6" ry="16.8" fill="#f2c690" /><ellipse cx="211" cy="277.9" rx="7.199999999999999" ry="5.3999999999999995" fill="#b8702f" /><ellipse cx="229" cy="277.9" rx="7.199999999999999" ry="5.3999999999999995" fill="#b8702f" /><line x1="208" y1="251.5" x2="218.5" y2="236.5" stroke="#df9249" stroke-width="10.200000000000001" stroke-linecap="round"/><line x1="232" y1="251.5" x2="221.5" y2="236.5" stroke="#df9249" stroke-width="10.200000000000001" stroke-linecap="round"/><ellipse cx="221" cy="240" rx="19" ry="22" fill="#ffffff" opacity="0.28"/><ellipse cx="221" cy="256" rx="13.200000000000001" ry="3.96" fill="rgba(90,60,30,0.13)" /><path d="M 221 230.8 q 7.2 -6 3.6 -13.2" fill="none" stroke="#6b4a2e" stroke-width="1.92" stroke-linecap="round"/><ellipse cx="229.4" cy="221.2" rx="6" ry="3.5999999999999996" fill="#6cb84e" transform="rotate(20 221 238)"/><circle cx="211.64" cy="238" r="6" fill="#7e46a6" /><circle cx="211.64" cy="238" r="5.5200000000000005" fill="#9b5fc0" /><circle cx="209.72" cy="236.08" r="1.44" fill="#ffffff" opacity="0.5"/><circle cx="230.36" cy="238" r="6" fill="#7e46a6" /><circle cx="230.36" cy="238" r="5.5200000000000005" fill="#9b5fc0" /><circle cx="228.44000000000003" cy="236.08" r="1.44" fill="#ffffff" opacity="0.5"/><circle cx="221" cy="238" r="6" fill="#7e46a6" /><circle cx="221" cy="238" r="5.5200000000000005" fill="#9b5fc0" /><circle cx="219.08" cy="236.08" r="1.44" fill="#ffffff" opacity="0.5"/><circle cx="216.32" cy="245.956" r="6" fill="#7e46a6" /><circle cx="216.32" cy="245.956" r="5.5200000000000005" fill="#9b5fc0" /><circle cx="214.4" cy="244.036" r="1.44" fill="#ffffff" opacity="0.5"/><circle cx="225.68" cy="245.956" r="6" fill="#7e46a6" /><circle cx="225.68" cy="245.956" r="5.5200000000000005" fill="#9b5fc0" /><circle cx="223.76000000000002" cy="244.036" r="1.44" fill="#ffffff" opacity="0.5"/><circle cx="221" cy="253.912" r="6" fill="#7e46a6" /><circle cx="221" cy="253.912" r="5.5200000000000005" fill="#9b5fc0" /><circle cx="219.08" cy="251.99200000000002" r="1.44" fill="#ffffff" opacity="0.5"/><circle cx="206.96" cy="245.956" r="6" fill="#7e46a6" /><circle cx="206.96" cy="245.956" r="5.5200000000000005" fill="#9b5fc0" /><circle cx="205.04000000000002" cy="244.036" r="1.44" fill="#ffffff" opacity="0.5"/><circle cx="235.04" cy="245.956" r="6" fill="#7e46a6" /><circle cx="235.04" cy="245.956" r="5.5200000000000005" fill="#9b5fc0" /><circle cx="233.12" cy="244.036" r="1.44" fill="#ffffff" opacity="0.5"/><path d="M 196.9 193 Q 203.5 175 210.1 193 Z" fill="#df9249" /><path d="M 199.9 191.8 Q 203.5 181 207.1 191.8 Z" fill="#f2c690" /><path d="M 229.9 193 Q 236.5 175 243.1 193 Z" fill="#df9249" /><path d="M 232.9 191.8 Q 236.5 181 240.1 191.8 Z" fill="#f2c690" /><circle cx="220" cy="214" r="30" fill="#df9249" /><ellipse cx="209.8" cy="202" rx="9.6" ry="6.6" fill="rgba(255,255,255,0.4)" /><ellipse cx="220" cy="223.6" rx="13.8" ry="10.799999999999999" fill="#f2c690" /><circle cx="211" cy="212.8" r="3.3" fill="#4a3526" /><circle cx="229" cy="212.8" r="3.3" fill="#4a3526" /><circle cx="211.99" cy="211.744" r="1.122" fill="#ffffff" /><circle cx="229.99" cy="211.744" r="1.122" fill="#ffffff" /><ellipse cx="220" cy="218.8" rx="3" ry="2.4" fill="#b8702f" /><path d="M 215.2 224.2 Q 220 229 224.8 224.2" stroke="#4a3526" stroke-width="2" fill="none" stroke-linecap="round"/><circle cx="204.4" cy="219.4" r="3.9000000000000004" fill="#f29bb0" opacity="0.7"/><circle cx="235.6" cy="219.4" r="3.9000000000000004" fill="#f29bb0" opacity="0.7"/></g></g><g class="enter"><g class="bob"><ellipse cx="360" cy="317.6" rx="35.1" ry="10.53" fill="rgba(90,60,30,0.13)" /><ellipse cx="348.3" cy="315" rx="8.84" ry="7.280000000000001" fill="#7a5436" /><ellipse cx="371.7" cy="315" rx="8.84" ry="7.280000000000001" fill="#7a5436" /><ellipse cx="360" cy="290.3" rx="23.92" ry="26.52" fill="#b9824f" /><ellipse cx="360" cy="294.46000000000004" rx="15.079999999999998" ry="18.2" fill="#ecd2ac" /><line x1="339.72" y1="286.40000000000003" x2="334.52" y2="303.3" stroke="#b9824f" stroke-width="11.96" stroke-linecap="round"/><line x1="380.28" y1="286.40000000000003" x2="385.48" y2="303.3" stroke="#b9824f" stroke-width="11.96" stroke-linecap="round"/><circle cx="341.28" cy="229.2" r="10.4" fill="#b9824f" /><circle cx="341.28" cy="229.2" r="5.2" fill="#ecd2ac" /><circle cx="378.72" cy="229.2" r="10.4" fill="#b9824f" /><circle cx="378.72" cy="229.2" r="5.2" fill="#ecd2ac" /><circle cx="360" cy="250" r="26" fill="#b9824f" /><ellipse cx="351.16" cy="239.6" rx="8.32" ry="5.72" fill="rgba(255,255,255,0.4)" /><ellipse cx="360" cy="257.8" rx="15.6" ry="11.96" fill="#ecd2ac" /><circle cx="351.16" cy="248.96" r="3.12" fill="#4a3526" /><circle cx="368.84" cy="248.96" r="3.12" fill="#4a3526" /><circle cx="352.096" cy="247.9616" r="1.0608000000000002" fill="#ffffff" /><circle cx="369.77599999999995" cy="247.9616" r="1.0608000000000002" fill="#ffffff" /><ellipse cx="360" cy="253.12" rx="3.38" ry="2.6" fill="#7a5436" /><path d="M 354.8 258.84 Q 360 264.04 365.2 258.84" stroke="#4a3526" stroke-width="2" fill="none" stroke-linecap="round"/><circle cx="344.92" cy="255.2" r="3.9" fill="#f29bb0" opacity="0.7"/><circle cx="375.08" cy="255.2" r="3.9" fill="#f29bb0" opacity="0.7"/></g></g><g class="sway" style="animation-delay:0.9s"><circle cx="68" cy="344" r="4.96" fill="#ffd24d" /><circle cx="62.47213595499958" cy="351.60845213036123" r="4.96" fill="#ffd24d" /><circle cx="53.52786404500042" cy="348.70228201833976" r="4.96" fill="#ffd24d" /><circle cx="53.52786404500042" cy="339.29771798166024" r="4.96" fill="#ffd24d" /><circle cx="62.47213595499958" cy="336.39154786963877" r="4.96" fill="#ffd24d" /><circle cx="60" cy="344" r="4.4" fill="#ffe14d" /></g><g class="sway" style="animation-delay:1.2s"><circle cx="307" cy="344" r="4.34" fill="#ff8fb3" /><circle cx="302.1631189606246" cy="350.65739561406605" r="4.34" fill="#ff8fb3" /><circle cx="294.3368810393754" cy="348.1144967660473" r="4.34" fill="#ff8fb3" /><circle cx="294.3368810393754" cy="339.8855032339527" r="4.34" fill="#ff8fb3" /><circle cx="302.1631189606246" cy="337.3426043859339" r="4.34" fill="#ff8fb3" /><circle cx="300" cy="344" r="3.8500000000000005" fill="#ffe14d" /></g><g class="flutter"><ellipse cx="143.4" cy="126.7" rx="6.050000000000001" ry="7.699999999999999" fill="#c4a0ff" /><ellipse cx="156.6" cy="126.7" rx="6.050000000000001" ry="7.699999999999999" fill="#c4a0ff" /><ellipse cx="143.95" cy="136.05" rx="4.62" ry="5.5" fill="#c4a0ff" opacity="0.85"/><ellipse cx="156.05" cy="136.05" rx="4.62" ry="5.5" fill="#c4a0ff" opacity="0.85"/><rect x="149.12" y="123.4" width="1.76" height="14.3" rx="0.88" fill="#5b4632" /></g><path d="M 40 326 q -3 -10 0 -16 q 3 6 0 16 M 45 326 q -2 -8 1 -13 q 2 5 -1 13" stroke="#7ab84e" stroke-width="2.4" fill="none" stroke-linecap="round"/><path d="M 280 340 q -3 -10 0 -16 q 3 6 0 16 M 285 340 q -2 -8 1 -13 q 2 5 -1 13" stroke="#7ab84e" stroke-width="2.4" fill="none" stroke-linecap="round"/><path d="M 440 320 q -3 -10 0 -16 q 3 6 0 16 M 445 320 q -2 -8 1 -13 q 2 5 -1 13" stroke="#7ab84e" stroke-width="2.4" fill="none" stroke-linecap="round"/></svg>