<svg viewBox="0 0 480 360" xmlns="http://www.w3.org/2000/svg"><style>
.enter{animation:bpEnter .7s cubic-bezier(.2,.9,.3,1.25) both}
.bob{animation:bpBob 3s ease-in-out infinite}
.bob2{animation:bpBob 3.7s ease-in-out infinite}
.sway{animation:bpSway 4s ease-in-out infinite;transform-box:fill-box;transform-origin:bottom center}
.flutter{animation:bpFlutter 3.2s ease-in-out infinite;transform-box:fill-box;transform-origin:center}
.twinkle{animation:bpTwinkle 2.4s ease-in-out infinite;transform-box:fill-box;transform-origin:center}
.spin{animation:bpSpin 24s linear infinite;transform-box:fill-box;transform-origin:center}
@keyframes bpEnter{0%{opacity:0;transform:translateY(28px)}100%{opacity:1;transform:translateY(0)}}
@keyframes bpBob{0%,100%{transform:translateY(0)}50%{transform:translateY(-6px)}}
@keyframes bpSway{0%,100%{transform:rotate(-3.5deg)}50%{transform:rotate(3.5deg)}}
@keyframes bpFlutter{0%{transform:translate(0,0) rotate(-7deg)}50%{transform:translate(12px,-14px) rotate(7deg)}100%{transform:translate(0,0) rotate(-7deg)}}
@keyframes bpTwinkle{0%,100%{opacity:.55;transform:scale(.8)}50%{opacity:1;transform:scale(1.18)}}
@keyframes bpSpin{to{transform:rotate(360deg)}}
@media(prefers-reduced-motion:reduce){.enter,.bob,.bob2,.sway,.flutter,.twinkle,.spin{animation:none}}
</style><defs><linearGradient id="sky" x1="0" y1="0" x2="0" y2="1"><stop offset="0" stop-color="#bfe6ff"/><stop offset="1" stop-color="#eaf7ff"/></linearGradient><linearGradient id="grass" x1="0" y1="0" x2="0" y2="1"><stop offset="0" stop-color="#9ad36f"/><stop offset="1" stop-color="#84c457"/></linearGradient></defs><rect x="0" y="0" width="480" height="360" rx="0" fill="url(#sky)" /><circle cx="410" cy="56" r="48" fill="#ffe89a" opacity="0.45"/><g class="spin"><line x1="450.5" y1="56" x2="461" y2="56" stroke="#ffe89a" stroke-width="5" stroke-linecap="round"/><line x1="445.07" y1="76.25" x2="454.17" y2="81.5" stroke="#ffe89a" stroke-width="5" stroke-linecap="round"/><line x1="430.25" y1="91.07" x2="435.5" y2="100.17" stroke="#ffe89a" stroke-width="5" stroke-linecap="round"/><line x1="410" y1="96.5" x2="410" y2="107" stroke="#ffe89a" stroke-width="5" stroke-linecap="round"/><line x1="389.75" y1="91.07" x2="384.5" y2="100.17" stroke="#ffe89a" stroke-width="5" stroke-linecap="round"/><line x1="374.93" y1="76.25" x2="365.83" y2="81.5" stroke="#ffe89a" stroke-width="5" stroke-linecap="round"/><line x1="369.5" y1="56" x2="359" y2="56" stroke="#ffe89a" stroke-width="5" stroke-linecap="round"/><line x1="374.93" y1="35.75" x2="365.83" y2="30.5" stroke="#ffe89a" stroke-width="5" stroke-linecap="round"/><line x1="389.75" y1="20.93" x2="384.5" y2="11.83" stroke="#ffe89a" stroke-width="5" stroke-linecap="round"/><line x1="410" y1="15.5" x2="410" y2="5" stroke="#ffe89a" stroke-width="5" stroke-linecap="round"/><line x1="430.25" y1="20.93" x2="435.5" y2="11.83" stroke="#ffe89a" stroke-width="5" stroke-linecap="round"/><line x1="445.07" y1="35.75" x2="454.17" y2="30.5" stroke="#ffe89a" stroke-width="5" stroke-linecap="round"/></g><circle cx="410" cy="56" r="30" fill="#ffd24d" /><ellipse cx="330" cy="80.4" rx="39" ry="14.3" fill="#ffffff" /><circle cx="311.8" cy="72.6" r="15.6" fill="#ffffff" /><circle cx="330" cy="62.2" r="20.28" fill="#ffffff" /><circle cx="349.5" cy="71.3" r="16.12" fill="#ffffff" /><ellipse cx="190" cy="53.2" rx="27" ry="9.9" fill="#ffffff" /><circle cx="177.4" cy="47.8" r="10.799999999999999" fill="#ffffff" /><circle cx="190" cy="40.6" r="14.040000000000001" fill="#ffffff" /><circle cx="203.5" cy="46.9" r="11.16" fill="#ffffff" /><ellipse cx="110" cy="292" rx="230" ry="130" fill="#cdeeb0" /><ellipse cx="400" cy="302" rx="240" ry="140" fill="#b2e28d" /><path d="M0 232 Q240 206 480 232 L480 360 L0 360 Z" fill="url(#grass)" /><rect x="0" y="300" width="480" height="60" rx="0" fill="#8d96a3" /><rect x="0" y="300" width="480" height="5" rx="0" fill="#a7afba" /><rect x="20" y="326" width="34" height="7" rx="3" fill="#f4e9c8" /><rect x="120" y="326" width="34" height="7" rx="3" fill="#f4e9c8" /><rect x="220" y="326" width="34" height="7" rx="3" fill="#f4e9c8" /><rect x="320" y="326" width="34" height="7" rx="3" fill="#f4e9c8" /><rect x="420" y="326" width="34" height="7" rx="3" fill="#f4e9c8" /><g class="enter"><g class="bob"><ellipse cx="268" cy="341.512" rx="56" ry="16.8" fill="rgba(90,60,30,0.13)" /><rect x="226" y="288.2" width="84" height="47.6" rx="14" fill="#ffcf4d" /><rect x="232.72" y="295.816" width="13.02" height="17.136" rx="2.8000000000000003" fill="#bfe6ff" /><rect x="251.62" y="295.816" width="13.02" height="17.136" rx="2.8000000000000003" fill="#bfe6ff" /><rect x="270.52" y="295.816" width="13.02" height="17.136" rx="2.8000000000000003" fill="#bfe6ff" /><rect x="289.42" y="295.816" width="13.02" height="17.136" rx="2.8000000000000003" fill="#bfe6ff" /><rect x="228.8" y="313.904" width="78.4" height="6.664000000000001" rx="1.68" fill="#e6a92f" /><circle cx="305.8" cy="312" r="3.36" fill="#fff3a0" /><ellipse cx="239.44" cy="298.672" rx="14" ry="5.6000000000000005" fill="#fff" opacity="0.35"/><ellipse cx="242.8" cy="336.752" rx="9.520000000000001" ry="9.520000000000001" fill="#3a3a44" /><circle cx="242.8" cy="336.752" r="4.284000000000001" fill="#9aa1ac" /><ellipse cx="293.2" cy="336.752" rx="9.520000000000001" ry="9.520000000000001" fill="#3a3a44" /><circle cx="293.2" cy="336.752" r="4.284000000000001" fill="#9aa1ac" /></g></g><g class="enter"><g class="bob2"><ellipse cx="96" cy="308.4" rx="32.400000000000006" ry="9.72" fill="rgba(90,60,30,0.13)" /><ellipse cx="85.2" cy="306" rx="8.16" ry="6.720000000000001" fill="#7a5436" /><ellipse cx="106.8" cy="306" rx="8.16" ry="6.720000000000001" fill="#7a5436" /><ellipse cx="96" cy="283.2" rx="22.080000000000002" ry="24.48" fill="#b9824f" /><ellipse cx="96" cy="287.03999999999996" rx="13.919999999999998" ry="16.799999999999997" fill="#ecd2ac" /><line x1="77.28" y1="279.59999999999997" x2="72.48" y2="295.2" stroke="#b9824f" stroke-width="11.040000000000001" stroke-linecap="round"/><line x1="112.8" y1="278.4" x2="124.8" y2="247.2" stroke="#b9824f" stroke-width="11.040000000000001" stroke-linecap="round"/><circle cx="78.72" cy="226.8" r="9.600000000000001" fill="#b9824f" /><circle cx="78.72" cy="226.8" r="4.800000000000001" fill="#ecd2ac" /><circle cx="113.28" cy="226.8" r="9.600000000000001" fill="#b9824f" /><circle cx="113.28" cy="226.8" r="4.800000000000001" fill="#ecd2ac" /><circle cx="96" cy="246" r="24" fill="#b9824f" /><ellipse cx="87.84" cy="236.4" rx="7.68" ry="5.28" fill="rgba(255,255,255,0.4)" /><ellipse cx="96" cy="253.2" rx="14.399999999999999" ry="11.040000000000001" fill="#ecd2ac" /><circle cx="87.84" cy="245.04" r="2.88" fill="#4a3526" /><circle cx="104.16" cy="245.04" r="2.88" fill="#4a3526" /><circle cx="88.70400000000001" cy="244.11839999999998" r="0.9792000000000001" fill="#ffffff" /><circle cx="105.024" cy="244.11839999999998" r="0.9792000000000001" fill="#ffffff" /><ellipse cx="96" cy="248.88" rx="3.12" ry="2.4000000000000004" fill="#7a5436" /><path d="M 91.2 254.16 Q 96 258.96 100.8 254.16" stroke="#4a3526" stroke-width="2" fill="none" stroke-linecap="round"/><circle cx="82.08" cy="250.8" r="3.5999999999999996" fill="#f29bb0" opacity="0.7"/><circle cx="109.92" cy="250.8" r="3.5999999999999996" fill="#f29bb0" opacity="0.7"/></g></g><ellipse cx="440" cy="239.2" rx="21.6" ry="6.48" fill="rgba(90,60,30,0.13)" /><rect x="436.16" y="202" width="7.68" height="38.400000000000006" rx="2.4000000000000004" fill="#b07a4e" /><circle cx="440" cy="192.4" r="22.799999999999997" fill="#5fae46" /><circle cx="423.2" cy="202" r="16.799999999999997" fill="#7cc35e" /><circle cx="456.8" cy="202" r="17.28" fill="#7cc35e" /><circle cx="440" cy="190" r="19.200000000000003" fill="#7cc35e" /><ellipse cx="432.8" cy="185.2" rx="9.600000000000001" ry="6.720000000000001" fill="#a3d885" opacity="0.7"/><g class="sway" style="animation-delay:0.9s"><circle cx="57" cy="352" r="4.34" fill="#ff8fb3" /><circle cx="52.16311896062463" cy="358.65739561406605" r="4.34" fill="#ff8fb3" /><circle cx="44.33688103937537" cy="356.1144967660473" r="4.34" fill="#ff8fb3" /><circle cx="44.33688103937537" cy="347.8855032339527" r="4.34" fill="#ff8fb3" /><circle cx="52.16311896062463" cy="345.3426043859339" r="4.34" fill="#ff8fb3" /><circle cx="50" cy="352" r="3.8500000000000005" fill="#ffe14d" /></g><g class="flutter"><ellipse cx="323.4" cy="116.7" rx="6.050000000000001" ry="7.699999999999999" fill="#ffb0d4" /><ellipse cx="336.6" cy="116.7" rx="6.050000000000001" ry="7.699999999999999" fill="#ffb0d4" /><ellipse cx="323.95" cy="126.05" rx="4.62" ry="5.5" fill="#ffb0d4" opacity="0.85"/><ellipse cx="336.05" cy="126.05" rx="4.62" ry="5.5" fill="#ffb0d4" opacity="0.85"/><rect x="329.12" y="113.4" width="1.76" height="14.3" rx="0.88" fill="#5b4632" /></g></svg>