<svg viewBox="0 0 480 360" xmlns="http://www.w3.org/2000/svg"><style>
.enter{animation:bpEnter .7s cubic-bezier(.2,.9,.3,1.25) both}
.bob{animation:bpBob 3s ease-in-out infinite}
.bob2{animation:bpBob 3.7s ease-in-out infinite}
.sway{animation:bpSway 4s ease-in-out infinite;transform-box:fill-box;transform-origin:bottom center}
.flutter{animation:bpFlutter 3.2s ease-in-out infinite;transform-box:fill-box;transform-origin:center}
.twinkle{animation:bpTwinkle 2.4s ease-in-out infinite;transform-box:fill-box;transform-origin:center}
.spin{animation:bpSpin 24s linear infinite;transform-box:fill-box;transform-origin:center}
@keyframes bpEnter{0%{opacity:0;transform:translateY(28px)}100%{opacity:1;transform:translateY(0)}}
@keyframes bpBob{0%,100%{transform:translateY(0)}50%{transform:translateY(-6px)}}
@keyframes bpSway{0%,100%{transform:rotate(-3.5deg)}50%{transform:rotate(3.5deg)}}
@keyframes bpFlutter{0%{transform:translate(0,0) rotate(-7deg)}50%{transform:translate(12px,-14px) rotate(7deg)}100%{transform:translate(0,0) rotate(-7deg)}}
@keyframes bpTwinkle{0%,100%{opacity:.55;transform:scale(.8)}50%{opacity:1;transform:scale(1.18)}}
@keyframes bpSpin{to{transform:rotate(360deg)}}
@media(prefers-reduced-motion:reduce){.enter,.bob,.bob2,.sway,.flutter,.twinkle,.spin{animation:none}}
</style><defs><linearGradient id="sky" x1="0" y1="0" x2="0" y2="1"><stop offset="0" stop-color="#ffe0a6"/><stop offset="0.55" stop-color="#ffb38f"/><stop offset="1" stop-color="#f6c1d6"/></linearGradient><linearGradient id="grass" x1="0" y1="0" x2="0" y2="1"><stop offset="0" stop-color="#cf9f6a"/><stop offset="1" stop-color="#b9854f"/></linearGradient></defs><rect x="0" y="0" width="480" height="360" rx="0" fill="url(#sky)" /><circle cx="240" cy="150" r="73.60000000000001" fill="#ffd9a0" opacity="0.45"/><g class="spin"><line x1="302.1" y1="150" x2="318.2" y2="150" stroke="#ffd9a0" stroke-width="5" stroke-linecap="round"/><line x1="293.78" y1="181.05" x2="307.72" y2="189.1" stroke="#ffd9a0" stroke-width="5" stroke-linecap="round"/><line x1="271.05" y1="203.78" x2="279.1" y2="217.72" stroke="#ffd9a0" stroke-width="5" stroke-linecap="round"/><line x1="240" y1="212.1" x2="240" y2="228.2" stroke="#ffd9a0" stroke-width="5" stroke-linecap="round"/><line x1="208.95" y1="203.78" x2="200.9" y2="217.72" stroke="#ffd9a0" stroke-width="5" stroke-linecap="round"/><line x1="186.22" y1="181.05" x2="172.28" y2="189.1" stroke="#ffd9a0" stroke-width="5" stroke-linecap="round"/><line x1="177.9" y1="150" x2="161.8" y2="150" stroke="#ffd9a0" stroke-width="5" stroke-linecap="round"/><line x1="186.22" y1="118.95" x2="172.28" y2="110.9" stroke="#ffd9a0" stroke-width="5" stroke-linecap="round"/><line x1="208.95" y1="96.22" x2="200.9" y2="82.28" stroke="#ffd9a0" stroke-width="5" stroke-linecap="round"/><line x1="240" y1="87.9" x2="240" y2="71.8" stroke="#ffd9a0" stroke-width="5" stroke-linecap="round"/><line x1="271.05" y1="96.22" x2="279.1" y2="82.28" stroke="#ffd9a0" stroke-width="5" stroke-linecap="round"/><line x1="293.78" y1="118.95" x2="307.72" y2="110.9" stroke="#ffd9a0" stroke-width="5" stroke-linecap="round"/></g><circle cx="240" cy="150" r="46" fill="#ff9e5a" /><ellipse cx="360" cy="89.6" rx="36" ry="13.200000000000001" fill="#ffffff" /><circle cx="343.2" cy="82.4" r="14.399999999999999" fill="#ffffff" /><circle cx="360" cy="72.8" r="18.72" fill="#ffffff" /><circle cx="378" cy="81.2" r="14.879999999999999" fill="#ffffff" /><ellipse cx="110" cy="71.2" rx="27" ry="9.9" fill="#ffffff" /><circle cx="97.4" cy="65.8" r="10.799999999999999" fill="#ffffff" /><circle cx="110" cy="58.6" r="14.040000000000001" fill="#ffffff" /><circle cx="123.5" cy="64.9" r="11.16" fill="#ffffff" /><ellipse cx="110" cy="300" rx="230" ry="130" fill="#d7a96f" /><ellipse cx="400" cy="310" rx="240" ry="140" fill="#caa063" /><path d="M0 244 Q240 220 480 244 L480 360 L0 360 Z" fill="url(#grass)" /><g class="enter"><g class="bob"><ellipse cx="360" cy="324.2" rx="37.4" ry="11.219999999999999" fill="rgba(90,60,30,0.13)" /><path d="M 339.1 295.6 Q 342.84 279.1 357.8 279.1 L 373.64 279.1 Q 381.56 279.76 382.88 295.6 Z" fill="#ef6aa6" /><rect x="331.4" y="294.5" width="57.2" height="20.9" rx="9.9" fill="#ef6aa6" /><rect x="342.4" y="282.84" width="14.520000000000001" height="11" rx="2.6399999999999997" fill="#bfe6ff" /><rect x="360.44" y="282.84" width="13.64" height="11" rx="2.6399999999999997" fill="#bfe6ff" /><ellipse cx="349" cy="301.1" rx="9.9" ry="3.96" fill="#fff" opacity="0.4"/><circle cx="386.312" cy="303.96" r="2.8600000000000003" fill="#fff3a0" /><ellipse cx="342.84" cy="317.16" rx="7.04" ry="7.04" fill="#3a3a44" /><circle cx="342.84" cy="317.16" r="3.168" fill="#9aa1ac" /><ellipse cx="377.16" cy="317.16" rx="7.04" ry="7.04" fill="#3a3a44" /><circle cx="377.16" cy="317.16" r="3.168" fill="#9aa1ac" /></g></g><g class="enter"><g class="bob2"><ellipse cx="130" cy="299.6" rx="35.1" ry="10.53" fill="rgba(90,60,30,0.13)" /><ellipse cx="118.3" cy="297" rx="8.84" ry="7.280000000000001" fill="#7a5436" /><ellipse cx="141.7" cy="297" rx="8.84" ry="7.280000000000001" fill="#7a5436" /><ellipse cx="130" cy="272.3" rx="23.92" ry="26.52" fill="#b9824f" /><ellipse cx="130" cy="276.46000000000004" rx="15.079999999999998" ry="18.2" fill="#ecd2ac" /><line x1="109.72" y1="268.40000000000003" x2="104.52" y2="285.3" stroke="#b9824f" stroke-width="11.96" stroke-linecap="round"/><line x1="148.2" y1="267.1" x2="161.2" y2="233.3" stroke="#b9824f" stroke-width="11.96" stroke-linecap="round"/><circle cx="111.28" cy="211.2" r="10.4" fill="#b9824f" /><circle cx="111.28" cy="211.2" r="5.2" fill="#ecd2ac" /><circle cx="148.72" cy="211.2" r="10.4" fill="#b9824f" /><circle cx="148.72" cy="211.2" r="5.2" fill="#ecd2ac" /><circle cx="130" cy="232" r="26" fill="#b9824f" /><ellipse cx="121.16" cy="221.6" rx="8.32" ry="5.72" fill="rgba(255,255,255,0.4)" /><ellipse cx="130" cy="239.8" rx="15.6" ry="11.96" fill="#ecd2ac" /><circle cx="121.16" cy="230.96" r="3.12" fill="#4a3526" /><circle cx="138.84" cy="230.96" r="3.12" fill="#4a3526" /><circle cx="122.096" cy="229.9616" r="1.0608000000000002" fill="#ffffff" /><circle cx="139.776" cy="229.9616" r="1.0608000000000002" fill="#ffffff" /><ellipse cx="130" cy="235.12" rx="3.38" ry="2.6" fill="#7a5436" /><path d="M 124.8 240.84 Q 130 246.04 135.2 240.84" stroke="#4a3526" stroke-width="2" fill="none" stroke-linecap="round"/><circle cx="114.92" cy="237.2" r="3.9" fill="#f29bb0" opacity="0.7"/><circle cx="145.07999999999998" cy="237.2" r="3.9" fill="#f29bb0" opacity="0.7"/></g></g><g class="enter"><g class="bob"><ellipse cx="250" cy="290" rx="23" ry="6.8999999999999995" fill="rgba(90,60,30,0.13)" /><ellipse cx="243.2" cy="217" rx="5.2" ry="14" fill="#fff6ec" transform="rotate(-12 243.2 222)"/><ellipse cx="243.2" cy="217" rx="2.6" ry="10" fill="#f6b9c6" transform="rotate(-12 243.2 222)"/><ellipse cx="256.8" cy="217" rx="5.2" ry="14" fill="#fff6ec" transform="rotate(12 256.8 222)"/><ellipse cx="256.8" cy="217" rx="2.6" ry="10" fill="#f6b9c6" transform="rotate(12 256.8 222)"/><ellipse cx="250" cy="270" rx="16.4" ry="19.2" fill="#fff6ec" /><ellipse cx="250" cy="272.4" rx="10" ry="12" fill="#efe1d0" /><ellipse cx="242" cy="288" rx="6" ry="4.4" fill="#efe1d0" /><ellipse cx="258" cy="288" rx="6" ry="4.4" fill="#efe1d0" /><line x1="235.6" y1="268" x2="231.6" y2="279" stroke="#fff6ec" stroke-width="8.4" stroke-linecap="round"/><line x1="263.6" y1="266" x2="273" y2="241" stroke="#fff6ec" stroke-width="8.4" stroke-linecap="round"/><circle cx="250" cy="240" r="20" fill="#fff6ec" /><ellipse cx="243.2" cy="232" rx="6.4" ry="4.4" fill="rgba(255,255,255,0.4)" /><circle cx="243.6" cy="239.6" r="2.2" fill="#4a3526" /><circle cx="256.4" cy="239.6" r="2.2" fill="#4a3526" /><circle cx="244.26" cy="238.896" r="0.7480000000000001" fill="#ffffff" /><circle cx="257.06" cy="238.896" r="0.7480000000000001" fill="#ffffff" /><path d="M 248 243.2 L 252 243.2 L 250 246 Z" fill="#f6b9c6" /><path d="M 246.8 247.2 Q 250 250.4 253.2 247.2" stroke="#4a3526" stroke-width="2" fill="none" stroke-linecap="round"/><circle cx="239.2" cy="244" r="2.6" fill="#f29bb0" opacity="0.7"/><circle cx="260.8" cy="244" r="2.6" fill="#f29bb0" opacity="0.7"/></g></g><g class="flutter"><ellipse cx="174" cy="117" rx="5.5" ry="7" fill="#ffc4a0" /><ellipse cx="186" cy="117" rx="5.5" ry="7" fill="#ffc4a0" /><ellipse cx="174.5" cy="125.5" rx="4.2" ry="5" fill="#ffc4a0" opacity="0.85"/><ellipse cx="185.5" cy="125.5" rx="4.2" ry="5" fill="#ffc4a0" opacity="0.85"/><rect x="179.2" y="114" width="1.6" height="13" rx="0.8" fill="#5b4632" /></g></svg>