<svg viewBox="0 0 480 360" xmlns="http://www.w3.org/2000/svg"><style>
.enter{animation:bpEnter .7s cubic-bezier(.2,.9,.3,1.25) both}
.bob{animation:bpBob 3s ease-in-out infinite}
.bob2{animation:bpBob 3.7s ease-in-out infinite}
.sway{animation:bpSway 4s ease-in-out infinite;transform-box:fill-box;transform-origin:bottom center}
.flutter{animation:bpFlutter 3.2s ease-in-out infinite;transform-box:fill-box;transform-origin:center}
.twinkle{animation:bpTwinkle 2.4s ease-in-out infinite;transform-box:fill-box;transform-origin:center}
.spin{animation:bpSpin 24s linear infinite;transform-box:fill-box;transform-origin:center}
@keyframes bpEnter{0%{opacity:0;transform:translateY(28px)}100%{opacity:1;transform:translateY(0)}}
@keyframes bpBob{0%,100%{transform:translateY(0)}50%{transform:translateY(-6px)}}
@keyframes bpSway{0%,100%{transform:rotate(-3.5deg)}50%{transform:rotate(3.5deg)}}
@keyframes bpFlutter{0%{transform:translate(0,0) rotate(-7deg)}50%{transform:translate(12px,-14px) rotate(7deg)}100%{transform:translate(0,0) rotate(-7deg)}}
@keyframes bpTwinkle{0%,100%{opacity:.55;transform:scale(.8)}50%{opacity:1;transform:scale(1.18)}}
@keyframes bpSpin{to{transform:rotate(360deg)}}
@media(prefers-reduced-motion:reduce){.enter,.bob,.bob2,.sway,.flutter,.twinkle,.spin{animation:none}}
</style><defs><linearGradient id="sky" x1="0" y1="0" x2="0" y2="1"><stop offset="0" stop-color="#bfe6ff"/><stop offset="1" stop-color="#eaf7ff"/></linearGradient><linearGradient id="grass" x1="0" y1="0" x2="0" y2="1"><stop offset="0" stop-color="#9ad36f"/><stop offset="1" stop-color="#84c457"/></linearGradient></defs><rect x="0" y="0" width="480" height="360" rx="0" fill="url(#sky)" /><circle cx="410" cy="58" r="48" fill="#ffe89a" opacity="0.45"/><g class="spin"><line x1="450.5" y1="58" x2="461" y2="58" stroke="#ffe89a" stroke-width="5" stroke-linecap="round"/><line x1="445.07" y1="78.25" x2="454.17" y2="83.5" stroke="#ffe89a" stroke-width="5" stroke-linecap="round"/><line x1="430.25" y1="93.07" x2="435.5" y2="102.17" stroke="#ffe89a" stroke-width="5" stroke-linecap="round"/><line x1="410" y1="98.5" x2="410" y2="109" stroke="#ffe89a" stroke-width="5" stroke-linecap="round"/><line x1="389.75" y1="93.07" x2="384.5" y2="102.17" stroke="#ffe89a" stroke-width="5" stroke-linecap="round"/><line x1="374.93" y1="78.25" x2="365.83" y2="83.5" stroke="#ffe89a" stroke-width="5" stroke-linecap="round"/><line x1="369.5" y1="58" x2="359" y2="58" stroke="#ffe89a" stroke-width="5" stroke-linecap="round"/><line x1="374.93" y1="37.75" x2="365.83" y2="32.5" stroke="#ffe89a" stroke-width="5" stroke-linecap="round"/><line x1="389.75" y1="22.93" x2="384.5" y2="13.83" stroke="#ffe89a" stroke-width="5" stroke-linecap="round"/><line x1="410" y1="17.5" x2="410" y2="7" stroke="#ffe89a" stroke-width="5" stroke-linecap="round"/><line x1="430.25" y1="22.93" x2="435.5" y2="13.83" stroke="#ffe89a" stroke-width="5" stroke-linecap="round"/><line x1="445.07" y1="37.75" x2="454.17" y2="32.5" stroke="#ffe89a" stroke-width="5" stroke-linecap="round"/></g><circle cx="410" cy="58" r="30" fill="#ffd24d" /><ellipse cx="330" cy="80.4" rx="39" ry="14.3" fill="#ffffff" /><circle cx="311.8" cy="72.6" r="15.6" fill="#ffffff" /><circle cx="330" cy="62.2" r="20.28" fill="#ffffff" /><circle cx="349.5" cy="71.3" r="16.12" fill="#ffffff" /><ellipse cx="190" cy="53.2" rx="27" ry="9.9" fill="#ffffff" /><circle cx="177.4" cy="47.8" r="10.799999999999999" fill="#ffffff" /><circle cx="190" cy="40.6" r="14.040000000000001" fill="#ffffff" /><circle cx="203.5" cy="46.9" r="11.16" fill="#ffffff" /><ellipse cx="110" cy="292" rx="230" ry="130" fill="#cdeeb0" /><ellipse cx="400" cy="302" rx="240" ry="140" fill="#b2e28d" /><path d="M0 232 Q240 206 480 232 L480 360 L0 360 Z" fill="url(#grass)" /><rect x="0" y="300" width="480" height="60" rx="0" fill="#8d96a3" /><rect x="0" y="300" width="480" height="5" rx="0" fill="#a7afba" /><rect x="20" y="326" width="34" height="7" rx="3" fill="#f4e9c8" /><rect x="120" y="326" width="34" height="7" rx="3" fill="#f4e9c8" /><rect x="220" y="326" width="34" height="7" rx="3" fill="#f4e9c8" /><rect x="320" y="326" width="34" height="7" rx="3" fill="#f4e9c8" /><rect x="420" y="326" width="34" height="7" rx="3" fill="#f4e9c8" /><ellipse cx="74" cy="281.5" rx="45" ry="13.5" fill="rgba(90,60,30,0.13)" /><rect x="44" y="244" width="60" height="39" rx="3" fill="#ffe0b0" /><path d="M 38 244 L 74 215.5 L 110 244 Z" fill="#e07a5a" /><rect x="64.4" y="260.2" width="19.2" height="22.8" rx="2.4" fill="#b07a4e" /><circle cx="80" cy="272.2" r="2.1" fill="#ffd24d" /><rect x="50.599999999999994" y="253" width="12" height="12" rx="1.7999999999999998" fill="#bfe6ff" /><rect x="85.4" y="253" width="12" height="12" rx="1.7999999999999998" fill="#bfe6ff" /><line x1="56.6" y1="253" x2="56.6" y2="265" stroke="#9a6840" stroke-width="2" stroke-linecap="round"/><line x1="50.599999999999994" y1="259" x2="62.6" y2="259" stroke="#9a6840" stroke-width="2" stroke-linecap="round"/><circle cx="74" cy="231.4" r="4.8" fill="#fff" opacity="0.7"/><ellipse cx="424" cy="235.4" rx="25.2" ry="7.56" fill="rgba(90,60,30,0.13)" /><rect x="419.52" y="192" width="8.96" height="44.800000000000004" rx="2.8000000000000003" fill="#b07a4e" /><circle cx="424" cy="180.8" r="26.599999999999998" fill="#5fae46" /><circle cx="404.4" cy="192" r="19.599999999999998" fill="#7cc35e" /><circle cx="443.6" cy="192" r="20.16" fill="#7cc35e" /><circle cx="424" cy="178" r="22.400000000000002" fill="#7cc35e" /><ellipse cx="415.6" cy="172.39999999999998" rx="11.200000000000001" ry="7.840000000000001" fill="#a3d885" opacity="0.7"/><g class="enter"><g class="bob2"><ellipse cx="240" cy="310" rx="40.5" ry="12.15" fill="rgba(90,60,30,0.13)" /><ellipse cx="226.5" cy="307" rx="10.200000000000001" ry="8.4" fill="#7a5436" /><ellipse cx="253.5" cy="307" rx="10.200000000000001" ry="8.4" fill="#7a5436" /><ellipse cx="240" cy="278.5" rx="27.6" ry="30.6" fill="#b9824f" /><ellipse cx="240" cy="283.3" rx="17.4" ry="21" fill="#ecd2ac" /><line x1="216.6" y1="274" x2="210.6" y2="293.5" stroke="#b9824f" stroke-width="13.8" stroke-linecap="round"/><line x1="263.4" y1="274" x2="269.4" y2="293.5" stroke="#b9824f" stroke-width="13.8" stroke-linecap="round"/><circle cx="218.4" cy="208" r="12" fill="#b9824f" /><circle cx="218.4" cy="208" r="6" fill="#ecd2ac" /><circle cx="261.6" cy="208" r="12" fill="#b9824f" /><circle cx="261.6" cy="208" r="6" fill="#ecd2ac" /><circle cx="240" cy="232" r="30" fill="#b9824f" /><ellipse cx="229.8" cy="220" rx="9.6" ry="6.6" fill="rgba(255,255,255,0.4)" /><ellipse cx="240" cy="241" rx="18" ry="13.8" fill="#ecd2ac" /><circle cx="229.8" cy="230.8" r="3.5999999999999996" fill="#4a3526" /><circle cx="250.2" cy="230.8" r="3.5999999999999996" fill="#4a3526" /><circle cx="230.88000000000002" cy="229.64800000000002" r="1.224" fill="#ffffff" /><circle cx="251.28" cy="229.64800000000002" r="1.224" fill="#ffffff" /><ellipse cx="240" cy="235.6" rx="3.9000000000000004" ry="3" fill="#7a5436" /><path d="M 234 242.2 Q 240 248.2 246 242.2" stroke="#4a3526" stroke-width="2" fill="none" stroke-linecap="round"/><circle cx="222.6" cy="238" r="4.5" fill="#f29bb0" opacity="0.7"/><circle cx="257.4" cy="238" r="4.5" fill="#f29bb0" opacity="0.7"/></g></g><g class="sway" style="animation-delay:0.3s"><circle cx="157" cy="352" r="4.34" fill="#ffd24d" /><circle cx="152.16311896062464" cy="358.65739561406605" r="4.34" fill="#ffd24d" /><circle cx="144.33688103937536" cy="356.1144967660473" r="4.34" fill="#ffd24d" /><circle cx="144.33688103937536" cy="347.8855032339527" r="4.34" fill="#ffd24d" /><circle cx="152.16311896062464" cy="345.3426043859339" r="4.34" fill="#ffd24d" /><circle cx="150" cy="352" r="3.8500000000000005" fill="#ffe14d" /></g><g class="flutter"><ellipse cx="173.4" cy="136.7" rx="6.050000000000001" ry="7.699999999999999" fill="#ffb0d4" /><ellipse cx="186.6" cy="136.7" rx="6.050000000000001" ry="7.699999999999999" fill="#ffb0d4" /><ellipse cx="173.95" cy="146.05" rx="4.62" ry="5.5" fill="#ffb0d4" opacity="0.85"/><ellipse cx="186.05" cy="146.05" rx="4.62" ry="5.5" fill="#ffb0d4" opacity="0.85"/><rect x="179.12" y="133.4" width="1.76" height="14.3" rx="0.88" fill="#5b4632" /></g></svg>