<svg viewBox="0 0 480 360" xmlns="http://www.w3.org/2000/svg"><style>
.enter{animation:bpEnter .7s cubic-bezier(.2,.9,.3,1.25) both}
.bob{animation:bpBob 3s ease-in-out infinite}
.bob2{animation:bpBob 3.7s ease-in-out infinite}
.sway{animation:bpSway 4s ease-in-out infinite;transform-box:fill-box;transform-origin:bottom center}
.flutter{animation:bpFlutter 3.2s ease-in-out infinite;transform-box:fill-box;transform-origin:center}
.twinkle{animation:bpTwinkle 2.4s ease-in-out infinite;transform-box:fill-box;transform-origin:center}
.spin{animation:bpSpin 24s linear infinite;transform-box:fill-box;transform-origin:center}
@keyframes bpEnter{0%{opacity:0;transform:translateY(28px)}100%{opacity:1;transform:translateY(0)}}
@keyframes bpBob{0%,100%{transform:translateY(0)}50%{transform:translateY(-6px)}}
@keyframes bpSway{0%,100%{transform:rotate(-3.5deg)}50%{transform:rotate(3.5deg)}}
@keyframes bpFlutter{0%{transform:translate(0,0) rotate(-7deg)}50%{transform:translate(12px,-14px) rotate(7deg)}100%{transform:translate(0,0) rotate(-7deg)}}
@keyframes bpTwinkle{0%,100%{opacity:.55;transform:scale(.8)}50%{opacity:1;transform:scale(1.18)}}
@keyframes bpSpin{to{transform:rotate(360deg)}}
@media(prefers-reduced-motion:reduce){.enter,.bob,.bob2,.sway,.flutter,.twinkle,.spin{animation:none}}
</style><defs><linearGradient id="sky" x1="0" y1="0" x2="0" y2="1"><stop offset="0" stop-color="#bfe6ff"/><stop offset="1" stop-color="#eaf7ff"/></linearGradient><linearGradient id="grass" x1="0" y1="0" x2="0" y2="1"><stop offset="0" stop-color="#9ad36f"/><stop offset="1" stop-color="#84c457"/></linearGradient></defs><rect x="0" y="0" width="480" height="360" rx="0" fill="url(#sky)" /><circle cx="240" cy="50" r="48" fill="#ffe89a" opacity="0.45"/><g class="spin"><line x1="280.5" y1="50" x2="291" y2="50" stroke="#ffe89a" stroke-width="5" stroke-linecap="round"/><line x1="275.07" y1="70.25" x2="284.17" y2="75.5" stroke="#ffe89a" stroke-width="5" stroke-linecap="round"/><line x1="260.25" y1="85.07" x2="265.5" y2="94.17" stroke="#ffe89a" stroke-width="5" stroke-linecap="round"/><line x1="240" y1="90.5" x2="240" y2="101" stroke="#ffe89a" stroke-width="5" stroke-linecap="round"/><line x1="219.75" y1="85.07" x2="214.5" y2="94.17" stroke="#ffe89a" stroke-width="5" stroke-linecap="round"/><line x1="204.93" y1="70.25" x2="195.83" y2="75.5" stroke="#ffe89a" stroke-width="5" stroke-linecap="round"/><line x1="199.5" y1="50" x2="189" y2="50" stroke="#ffe89a" stroke-width="5" stroke-linecap="round"/><line x1="204.93" y1="29.75" x2="195.83" y2="24.5" stroke="#ffe89a" stroke-width="5" stroke-linecap="round"/><line x1="219.75" y1="14.93" x2="214.5" y2="5.83" stroke="#ffe89a" stroke-width="5" stroke-linecap="round"/><line x1="240" y1="9.5" x2="240" y2="-1" stroke="#ffe89a" stroke-width="5" stroke-linecap="round"/><line x1="260.25" y1="14.93" x2="265.5" y2="5.83" stroke="#ffe89a" stroke-width="5" stroke-linecap="round"/><line x1="275.07" y1="29.75" x2="284.17" y2="24.5" stroke="#ffe89a" stroke-width="5" stroke-linecap="round"/></g><circle cx="240" cy="50" r="30" fill="#ffd24d" /><ellipse cx="330" cy="80.4" rx="39" ry="14.3" fill="#ffffff" /><circle cx="311.8" cy="72.6" r="15.6" fill="#ffffff" /><circle cx="330" cy="62.2" r="20.28" fill="#ffffff" /><circle cx="349.5" cy="71.3" r="16.12" fill="#ffffff" /><ellipse cx="190" cy="53.2" rx="27" ry="9.9" fill="#ffffff" /><circle cx="177.4" cy="47.8" r="10.799999999999999" fill="#ffffff" /><circle cx="190" cy="40.6" r="14.040000000000001" fill="#ffffff" /><circle cx="203.5" cy="46.9" r="11.16" fill="#ffffff" /><ellipse cx="110" cy="292" rx="230" ry="130" fill="#cdeeb0" /><ellipse cx="400" cy="302" rx="240" ry="140" fill="#b2e28d" /><path d="M0 232 Q240 206 480 232 L480 360 L0 360 Z" fill="url(#grass)" /><rect x="0" y="300" width="480" height="60" rx="0" fill="#8d96a3" /><rect x="0" y="300" width="480" height="5" rx="0" fill="#a7afba" /><rect x="20" y="326" width="34" height="7" rx="3" fill="#f4e9c8" /><rect x="120" y="326" width="34" height="7" rx="3" fill="#f4e9c8" /><rect x="220" y="326" width="34" height="7" rx="3" fill="#f4e9c8" /><rect x="320" y="326" width="34" height="7" rx="3" fill="#f4e9c8" /><rect x="420" y="326" width="34" height="7" rx="3" fill="#f4e9c8" /><g class="enter"><g class="bob"><ellipse cx="96" cy="344" rx="34" ry="10.2" fill="rgba(90,60,30,0.13)" /><path d="M 77 318 Q 80.4 303 94 303 L 108.4 303 Q 115.6 303.6 116.8 318 Z" fill="#7ec9f0" /><rect x="70" y="317" width="52" height="19" rx="9" fill="#7ec9f0" /><rect x="80" y="306.4" width="13.200000000000001" height="10" rx="2.4" fill="#bfe6ff" /><rect x="96.4" y="306.4" width="12.4" height="10" rx="2.4" fill="#bfe6ff" /><ellipse cx="86" cy="323" rx="9" ry="3.5999999999999996" fill="#fff" opacity="0.4"/><circle cx="119.92" cy="325.6" r="2.6" fill="#fff3a0" /><ellipse cx="80.4" cy="337.6" rx="6.4" ry="6.4" fill="#3a3a44" /><circle cx="80.4" cy="337.6" r="2.8800000000000003" fill="#9aa1ac" /><ellipse cx="111.6" cy="337.6" rx="6.4" ry="6.4" fill="#3a3a44" /><circle cx="111.6" cy="337.6" r="2.8800000000000003" fill="#9aa1ac" /></g></g><g class="enter"><g class="bob2"><ellipse cx="248" cy="337.188" rx="44" ry="13.2" fill="rgba(90,60,30,0.13)" /><rect x="215" y="295.3" width="66" height="37.4" rx="11" fill="#ffcf4d" /><rect x="220.28" y="301.284" width="10.23" height="13.463999999999999" rx="2.2" fill="#bfe6ff" /><rect x="235.13" y="301.284" width="10.23" height="13.463999999999999" rx="2.2" fill="#bfe6ff" /><rect x="249.98" y="301.284" width="10.23" height="13.463999999999999" rx="2.2" fill="#bfe6ff" /><rect x="264.83" y="301.284" width="10.23" height="13.463999999999999" rx="2.2" fill="#bfe6ff" /><rect x="217.2" y="315.496" width="61.6" height="5.236000000000001" rx="1.3199999999999998" fill="#e6a92f" /><circle cx="277.7" cy="314" r="2.6399999999999997" fill="#fff3a0" /><ellipse cx="225.56" cy="303.528" rx="11" ry="4.4" fill="#fff" opacity="0.35"/><ellipse cx="228.2" cy="333.448" rx="7.48" ry="7.48" fill="#3a3a44" /><circle cx="228.2" cy="333.448" r="3.366" fill="#9aa1ac" /><ellipse cx="267.8" cy="333.448" rx="7.48" ry="7.48" fill="#3a3a44" /><circle cx="267.8" cy="333.448" r="3.366" fill="#9aa1ac" /></g></g><g class="enter"><g class="bob"><ellipse cx="392" cy="338.65999999999997" rx="40.8" ry="12.239999999999998" fill="rgba(90,60,30,0.13)" /><rect x="349.5" y="313.67" width="23.799999999999997" height="20.229999999999997" rx="3.4000000000000004" fill="#7cc35e" /><rect x="353.75" y="316.764" width="7.14" height="9.995999999999999" rx="1.02" fill="#eaf7ff" /><rect x="363.1" y="316.764" width="7.14" height="9.995999999999999" rx="1.02" fill="#eaf7ff" /><rect x="372.45" y="323.19" width="4.08" height="4.283999999999999" rx="0.68" fill="#6b4a2e" /><rect x="375.85" y="308.91" width="34" height="24.99" rx="3.74" fill="#e0533f" /><rect x="378.74" y="312.004" width="13.26" height="13.09" rx="1.7000000000000002" fill="#bfe6ff" /><circle cx="401.35" cy="321.524" r="6.12" fill="#ffd24d" /><circle cx="401.35" cy="321.524" r="3.06" fill="#ffe89a" /><rect x="384.86" y="298.2" width="6.12" height="11.899999999999999" rx="1.02" fill="#9a3f30" /><ellipse cx="387.92" cy="293.44" rx="9.350000000000001" ry="7.14" fill="#ffffff" /><ellipse cx="380.1" cy="287.49" rx="7.14" ry="5.78" fill="#ffffff" opacity="0.85"/><ellipse cx="354.26" cy="333.9" rx="5.1" ry="5.1" fill="#3a3a44" /><circle cx="354.26" cy="333.9" r="2.295" fill="#9aa1ac" /><ellipse cx="368.53999999999996" cy="333.9" rx="5.1" ry="5.1" fill="#3a3a44" /><circle cx="368.53999999999996" cy="333.9" r="2.295" fill="#9aa1ac" /><ellipse cx="393.7" cy="335.09" rx="6.12" ry="6.12" fill="#3a3a44" /><circle cx="393.7" cy="335.09" r="2.72" fill="#9aa1ac" /><ellipse cx="403.9" cy="335.09" rx="6.12" ry="6.12" fill="#3a3a44" /><circle cx="403.9" cy="335.09" r="2.72" fill="#9aa1ac" /></g></g><g class="enter"><g class="bob2"><ellipse cx="54" cy="296.20000000000005" rx="22.950000000000003" ry="6.885000000000001" fill="rgba(90,60,30,0.13)" /><ellipse cx="46.35" cy="294.5" rx="5.78" ry="4.760000000000001" fill="#7a5436" /><ellipse cx="61.65" cy="294.5" rx="5.78" ry="4.760000000000001" fill="#7a5436" /><ellipse cx="54" cy="278.35" rx="15.64" ry="17.34" fill="#b9824f" /><ellipse cx="54" cy="281.07000000000005" rx="9.86" ry="11.899999999999999" fill="#ecd2ac" /><line x1="40.74" y1="275.8" x2="37.34" y2="286.85" stroke="#b9824f" stroke-width="7.82" stroke-linecap="round"/><line x1="65.9" y1="274.95000000000005" x2="74.4" y2="252.85" stroke="#b9824f" stroke-width="7.82" stroke-linecap="round"/><circle cx="41.76" cy="238.4" r="6.800000000000001" fill="#b9824f" /><circle cx="41.76" cy="238.4" r="3.4000000000000004" fill="#ecd2ac" /><circle cx="66.24" cy="238.4" r="6.800000000000001" fill="#b9824f" /><circle cx="66.24" cy="238.4" r="3.4000000000000004" fill="#ecd2ac" /><circle cx="54" cy="252" r="17" fill="#b9824f" /><ellipse cx="48.22" cy="245.2" rx="5.44" ry="3.74" fill="rgba(255,255,255,0.4)" /><ellipse cx="54" cy="257.1" rx="10.2" ry="7.82" fill="#ecd2ac" /><circle cx="48.22" cy="251.32" r="2.04" fill="#4a3526" /><circle cx="59.78" cy="251.32" r="2.04" fill="#4a3526" /><circle cx="48.832" cy="250.66719999999998" r="0.6936000000000001" fill="#ffffff" /><circle cx="60.392" cy="250.66719999999998" r="0.6936000000000001" fill="#ffffff" /><ellipse cx="54" cy="254.04" rx="2.21" ry="1.7000000000000002" fill="#7a5436" /><path d="M 50.6 257.78 Q 54 261.18 57.4 257.78" stroke="#4a3526" stroke-width="2" fill="none" stroke-linecap="round"/><circle cx="44.14" cy="255.4" r="2.55" fill="#f29bb0" opacity="0.7"/><circle cx="63.86" cy="255.4" r="2.55" fill="#f29bb0" opacity="0.7"/></g></g><g class="flutter"><ellipse cx="292.8" cy="104.4" rx="6.6000000000000005" ry="8.399999999999999" fill="#ffb0d4" /><ellipse cx="307.2" cy="104.4" rx="6.6000000000000005" ry="8.399999999999999" fill="#ffb0d4" /><ellipse cx="293.4" cy="114.6" rx="5.04" ry="6" fill="#ffb0d4" opacity="0.85"/><ellipse cx="306.6" cy="114.6" rx="5.04" ry="6" fill="#ffb0d4" opacity="0.85"/><rect x="299.04" y="100.8" width="1.92" height="15.600000000000001" rx="0.96" fill="#5b4632" /></g></svg>