<svg viewBox="0 0 480 360" xmlns="http://www.w3.org/2000/svg"><style>
.enter{animation:bpEnter .7s cubic-bezier(.2,.9,.3,1.25) both}
.bob{animation:bpBob 3s ease-in-out infinite}
.bob2{animation:bpBob 3.7s ease-in-out infinite}
.sway{animation:bpSway 4s ease-in-out infinite;transform-box:fill-box;transform-origin:bottom center}
.flutter{animation:bpFlutter 3.2s ease-in-out infinite;transform-box:fill-box;transform-origin:center}
.twinkle{animation:bpTwinkle 2.4s ease-in-out infinite;transform-box:fill-box;transform-origin:center}
.spin{animation:bpSpin 24s linear infinite;transform-box:fill-box;transform-origin:center}
@keyframes bpEnter{0%{opacity:0;transform:translateY(28px)}100%{opacity:1;transform:translateY(0)}}
@keyframes bpBob{0%,100%{transform:translateY(0)}50%{transform:translateY(-6px)}}
@keyframes bpSway{0%,100%{transform:rotate(-3.5deg)}50%{transform:rotate(3.5deg)}}
@keyframes bpFlutter{0%{transform:translate(0,0) rotate(-7deg)}50%{transform:translate(12px,-14px) rotate(7deg)}100%{transform:translate(0,0) rotate(-7deg)}}
@keyframes bpTwinkle{0%,100%{opacity:.55;transform:scale(.8)}50%{opacity:1;transform:scale(1.18)}}
@keyframes bpSpin{to{transform:rotate(360deg)}}
@media(prefers-reduced-motion:reduce){.enter,.bob,.bob2,.sway,.flutter,.twinkle,.spin{animation:none}}
</style><defs><linearGradient id="sky" x1="0" y1="0" x2="0" y2="1"><stop offset="0" stop-color="#bfe6ff"/><stop offset="1" stop-color="#eaf7ff"/></linearGradient><linearGradient id="grass" x1="0" y1="0" x2="0" y2="1"><stop offset="0" stop-color="#9ad36f"/><stop offset="1" stop-color="#84c457"/></linearGradient></defs><rect x="0" y="0" width="480" height="360" rx="0" fill="url(#sky)" /><circle cx="64" cy="58" r="48" fill="#ffe89a" opacity="0.45"/><g class="spin"><line x1="104.5" y1="58" x2="115" y2="58" stroke="#ffe89a" stroke-width="5" stroke-linecap="round"/><line x1="99.07" y1="78.25" x2="108.17" y2="83.5" stroke="#ffe89a" stroke-width="5" stroke-linecap="round"/><line x1="84.25" y1="93.07" x2="89.5" y2="102.17" stroke="#ffe89a" stroke-width="5" stroke-linecap="round"/><line x1="64" y1="98.5" x2="64" y2="109" stroke="#ffe89a" stroke-width="5" stroke-linecap="round"/><line x1="43.75" y1="93.07" x2="38.5" y2="102.17" stroke="#ffe89a" stroke-width="5" stroke-linecap="round"/><line x1="28.93" y1="78.25" x2="19.83" y2="83.5" stroke="#ffe89a" stroke-width="5" stroke-linecap="round"/><line x1="23.5" y1="58" x2="13" y2="58" stroke="#ffe89a" stroke-width="5" stroke-linecap="round"/><line x1="28.93" y1="37.75" x2="19.83" y2="32.5" stroke="#ffe89a" stroke-width="5" stroke-linecap="round"/><line x1="43.75" y1="22.93" x2="38.5" y2="13.83" stroke="#ffe89a" stroke-width="5" stroke-linecap="round"/><line x1="64" y1="17.5" x2="64" y2="7" stroke="#ffe89a" stroke-width="5" stroke-linecap="round"/><line x1="84.25" y1="22.93" x2="89.5" y2="13.83" stroke="#ffe89a" stroke-width="5" stroke-linecap="round"/><line x1="99.07" y1="37.75" x2="108.17" y2="32.5" stroke="#ffe89a" stroke-width="5" stroke-linecap="round"/></g><circle cx="64" cy="58" r="30" fill="#ffd24d" /><ellipse cx="330" cy="80.4" rx="39" ry="14.3" fill="#ffffff" /><circle cx="311.8" cy="72.6" r="15.6" fill="#ffffff" /><circle cx="330" cy="62.2" r="20.28" fill="#ffffff" /><circle cx="349.5" cy="71.3" r="16.12" fill="#ffffff" /><ellipse cx="190" cy="53.2" rx="27" ry="9.9" fill="#ffffff" /><circle cx="177.4" cy="47.8" r="10.799999999999999" fill="#ffffff" /><circle cx="190" cy="40.6" r="14.040000000000001" fill="#ffffff" /><circle cx="203.5" cy="46.9" r="11.16" fill="#ffffff" /><ellipse cx="110" cy="292" rx="230" ry="130" fill="#cdeeb0" /><ellipse cx="400" cy="302" rx="240" ry="140" fill="#b2e28d" /><path d="M0 232 Q240 206 480 232 L480 360 L0 360 Z" fill="url(#grass)" /><rect x="0" y="300" width="480" height="60" rx="0" fill="#8d96a3" /><rect x="0" y="300" width="480" height="5" rx="0" fill="#a7afba" /><rect x="20" y="326" width="34" height="7" rx="3" fill="#f4e9c8" /><rect x="120" y="326" width="34" height="7" rx="3" fill="#f4e9c8" /><rect x="220" y="326" width="34" height="7" rx="3" fill="#f4e9c8" /><rect x="320" y="326" width="34" height="7" rx="3" fill="#f4e9c8" /><rect x="420" y="326" width="34" height="7" rx="3" fill="#f4e9c8" /><ellipse cx="56" cy="233.3" rx="23.400000000000002" ry="7.0200000000000005" fill="rgba(90,60,30,0.13)" /><rect x="51.84" y="193" width="8.32" height="41.6" rx="2.6" fill="#b07a4e" /><circle cx="56" cy="182.6" r="24.7" fill="#5fae46" /><circle cx="37.8" cy="193" r="18.2" fill="#7cc35e" /><circle cx="74.2" cy="193" r="18.72" fill="#7cc35e" /><circle cx="56" cy="180" r="20.8" fill="#7cc35e" /><ellipse cx="48.2" cy="174.8" rx="10.4" ry="7.280000000000001" fill="#a3d885" opacity="0.7"/><g class="enter"><g class="bob"><ellipse cx="270" cy="351" rx="51" ry="15.299999999999999" fill="rgba(90,60,30,0.13)" /><path d="M 241.5 312 Q 246.6 289.5 267 289.5 L 288.6 289.5 Q 299.4 290.4 301.2 312 Z" fill="#ef6aa6" /><rect x="231" y="310.5" width="78" height="28.5" rx="13.5" fill="#ef6aa6" /><rect x="246" y="294.6" width="19.8" height="15" rx="3.5999999999999996" fill="#bfe6ff" /><rect x="270.6" y="294.6" width="18.6" height="15" rx="3.5999999999999996" fill="#bfe6ff" /><ellipse cx="255" cy="319.5" rx="13.5" ry="5.3999999999999995" fill="#fff" opacity="0.4"/><circle cx="305.88" cy="323.4" r="3.9000000000000004" fill="#fff3a0" /><ellipse cx="246.6" cy="341.4" rx="9.6" ry="9.6" fill="#3a3a44" /><circle cx="246.6" cy="341.4" r="4.32" fill="#9aa1ac" /><ellipse cx="293.4" cy="341.4" rx="9.6" ry="9.6" fill="#3a3a44" /><circle cx="293.4" cy="341.4" r="4.32" fill="#9aa1ac" /></g></g><g class="enter"><g class="bob2"><ellipse cx="120" cy="311.6" rx="35.1" ry="10.53" fill="rgba(90,60,30,0.13)" /><ellipse cx="108.3" cy="309" rx="8.84" ry="7.280000000000001" fill="#7a5436" /><ellipse cx="131.7" cy="309" rx="8.84" ry="7.280000000000001" fill="#7a5436" /><ellipse cx="120" cy="284.3" rx="23.92" ry="26.52" fill="#b9824f" /><ellipse cx="120" cy="288.46000000000004" rx="15.079999999999998" ry="18.2" fill="#ecd2ac" /><line x1="99.72" y1="280.40000000000003" x2="94.52" y2="297.3" stroke="#b9824f" stroke-width="11.96" stroke-linecap="round"/><line x1="138.2" y1="279.1" x2="151.2" y2="245.3" stroke="#b9824f" stroke-width="11.96" stroke-linecap="round"/><circle cx="101.28" cy="223.2" r="10.4" fill="#b9824f" /><circle cx="101.28" cy="223.2" r="5.2" fill="#ecd2ac" /><circle cx="138.72" cy="223.2" r="10.4" fill="#b9824f" /><circle cx="138.72" cy="223.2" r="5.2" fill="#ecd2ac" /><circle cx="120" cy="244" r="26" fill="#b9824f" /><ellipse cx="111.16" cy="233.6" rx="8.32" ry="5.72" fill="rgba(255,255,255,0.4)" /><ellipse cx="120" cy="251.8" rx="15.6" ry="11.96" fill="#ecd2ac" /><circle cx="111.16" cy="242.96" r="3.12" fill="#4a3526" /><circle cx="128.84" cy="242.96" r="3.12" fill="#4a3526" /><circle cx="112.096" cy="241.9616" r="1.0608000000000002" fill="#ffffff" /><circle cx="129.776" cy="241.9616" r="1.0608000000000002" fill="#ffffff" /><ellipse cx="120" cy="247.12" rx="3.38" ry="2.6" fill="#7a5436" /><path d="M 114.8 252.84 Q 120 258.04 125.2 252.84" stroke="#4a3526" stroke-width="2" fill="none" stroke-linecap="round"/><circle cx="104.92" cy="249.2" r="3.9" fill="#f29bb0" opacity="0.7"/><circle cx="135.07999999999998" cy="249.2" r="3.9" fill="#f29bb0" opacity="0.7"/></g></g><g class="sway" style="animation-delay:0.6s"><circle cx="437" cy="352" r="4.34" fill="#b58bff" /><circle cx="432.1631189606246" cy="358.65739561406605" r="4.34" fill="#b58bff" /><circle cx="424.3368810393754" cy="356.1144967660473" r="4.34" fill="#b58bff" /><circle cx="424.3368810393754" cy="347.8855032339527" r="4.34" fill="#b58bff" /><circle cx="432.1631189606246" cy="345.3426043859339" r="4.34" fill="#b58bff" /><circle cx="430" cy="352" r="3.8500000000000005" fill="#ffe14d" /></g><g class="flutter"><ellipse cx="373.4" cy="126.7" rx="6.050000000000001" ry="7.699999999999999" fill="#c4a0ff" /><ellipse cx="386.6" cy="126.7" rx="6.050000000000001" ry="7.699999999999999" fill="#c4a0ff" /><ellipse cx="373.95" cy="136.05" rx="4.62" ry="5.5" fill="#c4a0ff" opacity="0.85"/><ellipse cx="386.05" cy="136.05" rx="4.62" ry="5.5" fill="#c4a0ff" opacity="0.85"/><rect x="379.12" y="123.4" width="1.76" height="14.3" rx="0.88" fill="#5b4632" /></g></svg>