<svg viewBox="0 0 480 360" xmlns="http://www.w3.org/2000/svg"><style>
.enter{animation:bpEnter .7s cubic-bezier(.2,.9,.3,1.25) both}
.bob{animation:bpBob 3s ease-in-out infinite}
.bob2{animation:bpBob 3.7s ease-in-out infinite}
.sway{animation:bpSway 4s ease-in-out infinite;transform-box:fill-box;transform-origin:bottom center}
.flutter{animation:bpFlutter 3.2s ease-in-out infinite;transform-box:fill-box;transform-origin:center}
.twinkle{animation:bpTwinkle 2.4s ease-in-out infinite;transform-box:fill-box;transform-origin:center}
.spin{animation:bpSpin 24s linear infinite;transform-box:fill-box;transform-origin:center}
@keyframes bpEnter{0%{opacity:0;transform:translateY(28px)}100%{opacity:1;transform:translateY(0)}}
@keyframes bpBob{0%,100%{transform:translateY(0)}50%{transform:translateY(-6px)}}
@keyframes bpSway{0%,100%{transform:rotate(-3.5deg)}50%{transform:rotate(3.5deg)}}
@keyframes bpFlutter{0%{transform:translate(0,0) rotate(-7deg)}50%{transform:translate(12px,-14px) rotate(7deg)}100%{transform:translate(0,0) rotate(-7deg)}}
@keyframes bpTwinkle{0%,100%{opacity:.55;transform:scale(.8)}50%{opacity:1;transform:scale(1.18)}}
@keyframes bpSpin{to{transform:rotate(360deg)}}
@media(prefers-reduced-motion:reduce){.enter,.bob,.bob2,.sway,.flutter,.twinkle,.spin{animation:none}}
</style><defs><linearGradient id="sky" x1="0" y1="0" x2="0" y2="1"><stop offset="0" stop-color="#bfe6ff"/><stop offset="1" stop-color="#eaf7ff"/></linearGradient><linearGradient id="grass" x1="0" y1="0" x2="0" y2="1"><stop offset="0" stop-color="#9ad36f"/><stop offset="1" stop-color="#84c457"/></linearGradient></defs><rect x="0" y="0" width="480" height="360" rx="0" fill="url(#sky)" /><circle cx="70" cy="58" r="48" fill="#ffe89a" opacity="0.45"/><g class="spin"><line x1="110.5" y1="58" x2="121" y2="58" stroke="#ffe89a" stroke-width="5" stroke-linecap="round"/><line x1="105.07" y1="78.25" x2="114.17" y2="83.5" stroke="#ffe89a" stroke-width="5" stroke-linecap="round"/><line x1="90.25" y1="93.07" x2="95.5" y2="102.17" stroke="#ffe89a" stroke-width="5" stroke-linecap="round"/><line x1="70" y1="98.5" x2="70" y2="109" stroke="#ffe89a" stroke-width="5" stroke-linecap="round"/><line x1="49.75" y1="93.07" x2="44.5" y2="102.17" stroke="#ffe89a" stroke-width="5" stroke-linecap="round"/><line x1="34.93" y1="78.25" x2="25.83" y2="83.5" stroke="#ffe89a" stroke-width="5" stroke-linecap="round"/><line x1="29.5" y1="58" x2="19" y2="58" stroke="#ffe89a" stroke-width="5" stroke-linecap="round"/><line x1="34.93" y1="37.75" x2="25.83" y2="32.5" stroke="#ffe89a" stroke-width="5" stroke-linecap="round"/><line x1="49.75" y1="22.93" x2="44.5" y2="13.83" stroke="#ffe89a" stroke-width="5" stroke-linecap="round"/><line x1="70" y1="17.5" x2="70" y2="7" stroke="#ffe89a" stroke-width="5" stroke-linecap="round"/><line x1="90.25" y1="22.93" x2="95.5" y2="13.83" stroke="#ffe89a" stroke-width="5" stroke-linecap="round"/><line x1="105.07" y1="37.75" x2="114.17" y2="32.5" stroke="#ffe89a" stroke-width="5" stroke-linecap="round"/></g><circle cx="70" cy="58" r="30" fill="#ffd24d" /><ellipse cx="330" cy="80.4" rx="39" ry="14.3" fill="#ffffff" /><circle cx="311.8" cy="72.6" r="15.6" fill="#ffffff" /><circle cx="330" cy="62.2" r="20.28" fill="#ffffff" /><circle cx="349.5" cy="71.3" r="16.12" fill="#ffffff" /><ellipse cx="190" cy="53.2" rx="27" ry="9.9" fill="#ffffff" /><circle cx="177.4" cy="47.8" r="10.799999999999999" fill="#ffffff" /><circle cx="190" cy="40.6" r="14.040000000000001" fill="#ffffff" /><circle cx="203.5" cy="46.9" r="11.16" fill="#ffffff" /><ellipse cx="110" cy="292" rx="230" ry="130" fill="#cdeeb0" /><ellipse cx="400" cy="302" rx="240" ry="140" fill="#b2e28d" /><path d="M0 232 Q240 206 480 232 L480 360 L0 360 Z" fill="url(#grass)" /><rect x="0" y="300" width="480" height="60" rx="0" fill="#8d96a3" /><rect x="0" y="300" width="480" height="5" rx="0" fill="#a7afba" /><rect x="20" y="326" width="34" height="7" rx="3" fill="#f4e9c8" /><rect x="120" y="326" width="34" height="7" rx="3" fill="#f4e9c8" /><rect x="220" y="326" width="34" height="7" rx="3" fill="#f4e9c8" /><rect x="320" y="326" width="34" height="7" rx="3" fill="#f4e9c8" /><rect x="420" y="326" width="34" height="7" rx="3" fill="#f4e9c8" /><g class="enter"><g class="bob"><ellipse cx="262" cy="335.48" rx="62.4" ry="18.72" fill="rgba(90,60,30,0.13)" /><rect x="197" y="297.26" width="36.4" height="30.939999999999998" rx="5.2" fill="#7cc35e" /><rect x="203.5" y="301.992" width="10.92" height="15.287999999999998" rx="1.56" fill="#eaf7ff" /><rect x="217.8" y="301.992" width="10.92" height="15.287999999999998" rx="1.56" fill="#eaf7ff" /><rect x="232.1" y="311.82" width="6.24" height="6.552" rx="1.04" fill="#6b4a2e" /><rect x="237.3" y="289.98" width="52" height="38.22" rx="5.72" fill="#e0533f" /><rect x="241.72" y="294.712" width="20.28" height="20.02" rx="2.6" fill="#bfe6ff" /><circle cx="276.3" cy="309.272" r="9.36" fill="#ffd24d" /><circle cx="276.3" cy="309.272" r="4.68" fill="#ffe89a" /><rect x="251.08" y="273.6" width="9.36" height="18.2" rx="1.56" fill="#9a3f30" /><ellipse cx="255.76" cy="266.32" rx="14.3" ry="10.92" fill="#ffffff" /><ellipse cx="243.8" cy="257.22" rx="10.92" ry="8.84" fill="#ffffff" opacity="0.85"/><ellipse cx="204.28" cy="328.2" rx="7.8" ry="7.8" fill="#3a3a44" /><circle cx="204.28" cy="328.2" r="3.51" fill="#9aa1ac" /><ellipse cx="226.11999999999998" cy="328.2" rx="7.8" ry="7.8" fill="#3a3a44" /><circle cx="226.11999999999998" cy="328.2" r="3.51" fill="#9aa1ac" /><ellipse cx="264.6" cy="330.02" rx="9.36" ry="9.36" fill="#3a3a44" /><circle cx="264.6" cy="330.02" r="4.16" fill="#9aa1ac" /><ellipse cx="280.2" cy="330.02" rx="9.36" ry="9.36" fill="#3a3a44" /><circle cx="280.2" cy="330.02" r="4.16" fill="#9aa1ac" /></g></g><g class="enter"><g class="bob2"><ellipse cx="86" cy="307.20000000000005" rx="29.700000000000003" ry="8.91" fill="rgba(90,60,30,0.13)" /><ellipse cx="76.1" cy="305" rx="7.48" ry="6.16" fill="#7a5436" /><ellipse cx="95.9" cy="305" rx="7.48" ry="6.16" fill="#7a5436" /><ellipse cx="86" cy="284.1" rx="20.240000000000002" ry="22.44" fill="#b9824f" /><ellipse cx="86" cy="287.62" rx="12.76" ry="15.399999999999999" fill="#ecd2ac" /><line x1="68.84" y1="280.8" x2="64.44" y2="295.1" stroke="#b9824f" stroke-width="10.120000000000001" stroke-linecap="round"/><line x1="101.4" y1="279.70000000000005" x2="112.4" y2="251.1" stroke="#b9824f" stroke-width="10.120000000000001" stroke-linecap="round"/><circle cx="70.16" cy="232.4" r="8.8" fill="#b9824f" /><circle cx="70.16" cy="232.4" r="4.4" fill="#ecd2ac" /><circle cx="101.84" cy="232.4" r="8.8" fill="#b9824f" /><circle cx="101.84" cy="232.4" r="4.4" fill="#ecd2ac" /><circle cx="86" cy="250" r="22" fill="#b9824f" /><ellipse cx="78.52" cy="241.2" rx="7.04" ry="4.84" fill="rgba(255,255,255,0.4)" /><ellipse cx="86" cy="256.6" rx="13.2" ry="10.120000000000001" fill="#ecd2ac" /><circle cx="78.52" cy="249.12" r="2.6399999999999997" fill="#4a3526" /><circle cx="93.48" cy="249.12" r="2.6399999999999997" fill="#4a3526" /><circle cx="79.312" cy="248.2752" r="0.8976" fill="#ffffff" /><circle cx="94.272" cy="248.2752" r="0.8976" fill="#ffffff" /><ellipse cx="86" cy="252.64" rx="2.8600000000000003" ry="2.2" fill="#7a5436" /><path d="M 81.6 257.48 Q 86 261.88 90.4 257.48" stroke="#4a3526" stroke-width="2" fill="none" stroke-linecap="round"/><circle cx="73.24" cy="254.4" r="3.3" fill="#f29bb0" opacity="0.7"/><circle cx="98.76" cy="254.4" r="3.3" fill="#f29bb0" opacity="0.7"/></g></g><g class="sway" style="animation-delay:1.2s"><circle cx="457" cy="352" r="4.34" fill="#ffd24d" /><circle cx="452.1631189606246" cy="358.65739561406605" r="4.34" fill="#ffd24d" /><circle cx="444.3368810393754" cy="356.1144967660473" r="4.34" fill="#ffd24d" /><circle cx="444.3368810393754" cy="347.8855032339527" r="4.34" fill="#ffd24d" /><circle cx="452.1631189606246" cy="345.3426043859339" r="4.34" fill="#ffd24d" /><circle cx="450" cy="352" r="3.8500000000000005" fill="#ffe14d" /></g><g class="flutter"><ellipse cx="353.4" cy="126.7" rx="6.050000000000001" ry="7.699999999999999" fill="#c4a0ff" /><ellipse cx="366.6" cy="126.7" rx="6.050000000000001" ry="7.699999999999999" fill="#c4a0ff" /><ellipse cx="353.95" cy="136.05" rx="4.62" ry="5.5" fill="#c4a0ff" opacity="0.85"/><ellipse cx="366.05" cy="136.05" rx="4.62" ry="5.5" fill="#c4a0ff" opacity="0.85"/><rect x="359.12" y="123.4" width="1.76" height="14.3" rx="0.88" fill="#5b4632" /></g></svg>